SnideHand1.sfdir
StartChar: quotedbl
Encoding: 34 34 268
Width: 414
VWidth: 1828
Flags: HMW
LayerCount: 2
Fore
SplineSet
245 920 m 4
 247 926 258 928 272 928 c 7
 300 928 320 902 320 822 c 7
 320 750 324 716 326 710 c 4
 332 692 338 668 340 650 c 4
 342 630 344 603 340 591 c 4
 336 581 334 578 324 578 c 4
 308 578 290 588 278 606 c 4
 256 640 253 666 247 684 c 4
 241 702 237 740 237 800 c 4
 237 878 241 918 245 920 c 4
72 818 m 7
 72 864 82 882 90 888 c 4
 96 892 106 892 118 892 c 7
 144 892 154 886 154 820 c 7
 154 792 154 772 156 760 c 4
 160 732 170 696 176 668 c 4
 180 648 182 636 182 626 c 4
 182 616 178 606 168 596 c 4
 156 584 154 576 148 576 c 4
 140 576 124 578 110 610 c 4
 96 642 86 672 82 688 c 4
 76 712 72 738 72 818 c 7
EndSplineSet
Validated: 33
EndChar
StartChar: numbersign
Encoding: 35 35 100
Width: 536
VWidth: 1828
Flags: HMW
LayerCount: 2
Fore
SplineSet
362 472 m 5
 362 552 l 5
 312 552 286 546 246 542 c 5
 242 516 234 418 234 368 c 5
 250 368 334 390 362 398 c 5
 362 472 l 5
438 280 m 4
 434 248 434 222 434 182 c 4
 434 148 426 132 418 128 c 4
 408 122 402 120 400 120 c 4
 382 120 362 140 362 212 c 7
 362 244 362 296 362 310 c 5
 330 300 274 286 234 280 c 5
 228 234 226 138 226 96 c 7
 226 82 232 76 242 72 c 4
 250 68 254 64 254 54 c 4
 254 44 252 36 244 26 c 4
 236 16 228 12 218 12 c 4
 206 12 186 24 172 30 c 4
 152 40 146 64 146 98 c 4
 146 184 148 256 148 280 c 5
 134 280 120 280 108 280 c 4
 90 280 68 282 56 286 c 4
 36 292 28 306 24 318 c 4
 22 328 20 334 20 336 c 4
 20 356 42 376 64 376 c 7
 88 376 122 360 154 360 c 5
 158 396 168 496 168 530 c 5
 148 530 110 524 106 520 c 4
 100 516 94 514 84 514 c 4
 68 514 52 516 40 526 c 4
 26 536 16 538 16 560 c 4
 16 578 18 590 24 596 c 4
 30 602 46 604 74 606 c 4
 128 612 154 620 174 620 c 5
 176 640 182 678 182 720 c 4
 182 756 184 782 194 792 c 4
 202 802 216 806 234 804 c 4
 246 802 254 798 258 794 c 4
 262 790 262 780 262 764 c 4
 262 736 262 666 256 634 c 5
 296 638 324 642 368 642 c 5
 370 716 376 738 406 738 c 4
 414 738 422 734 428 730 c 4
 438 724 450 700 442 682 c 4
 438 672 436 650 436 644 c 5
 468 644 486 642 496 630 c 4
 510 612 514 608 514 600 c 4
 514 594 514 588 510 580 c 4
 502 564 488 556 478 554 c 4
 466 552 464 562 438 558 c 5
 438 528 440 430 440 412 c 5
 452 416 462 416 490 416 c 7
 512 416 520 410 524 408 c 4
 528 406 530 396 530 384 c 4
 530 352 520 342 488 340 c 4
 472 338 458 338 442 334 c 5
 442 320 440 300 438 280 c 4
EndSplineSet
Validated: 33
EndChar
StartChar: dollar
Encoding: 36 36 101
Width: 458
VWidth: 1828
Flags: MW
LayerCount: 2
Fore
SplineSet
332 316 m 17
 346 324 364 338 370 344 c 1
 364 352 336 362 326 368 c 9
 332 316 l 17
238 616 m 0
 238 636 238 666 238 678 c 9
 210 674 188 668 148 636 c 0
 116 610 100 592 100 582 c 0
 100 570 110 552 130 528 c 0
 136 522 158 510 192 492 c 0
 226 474 240 472 246 472 c 1
 246 478 244 496 242 512 c 0
 238 564 238 590 238 616 c 0
264 922 m 0
 272 924 276 926 278 926 c 0
 296 926 306 902 306 856 c 2
 306 842 l 1
 306 826 l 2
 306 806 310 782 310 768 c 1
 324 758 340 756 372 726 c 0
 400 700 414 674 414 650 c 0
 414 648 412 648 412 646 c 0
 412 644 412 642 412 640 c 0
 408 624 400 616 390 616 c 0
 380 616 368 624 352 638 c 0
 332 656 330 664 314 676 c 1
 320 614 316 556 320 500 c 0
 320 490 320 470 320 456 c 1
 350 442 398 420 414 410 c 0
 432 398 450 368 450 344 c 0
 450 314 398 266 340 240 c 1
 344 222 340 176 346 136 c 0
 350 102 352 72 378 50 c 0
 388 44 390 36 390 32 c 3
 390 12 340 -28 322 -28 c 3
 310 -28 272 28 272 60 c 3
 272 142 270 180 262 212 c 1
 234 198 208 196 154 196 c 3
 102 196 62 202 40 222 c 0
 26 236 18 252 18 268 c 0
 18 294 36 320 54 320 c 3
 64 320 70 316 76 310 c 0
 94 292 122 278 170 278 c 0
 206 278 232 280 258 290 c 1
 252 320 252 358 250 380 c 1
 242 386 212 396 192 406 c 0
 176 416 158 418 142 428 c 0
 126 438 112 444 102 448 c 0
 82 458 64 474 50 498 c 0
 36 522 28 548 28 580 c 0
 28 604 28 620 32 628 c 0
 52 674 110 716 148 746 c 0
 160 756 188 768 198 770 c 0
 204 772 226 772 236 772 c 1
 236 788 236 798 236 822 c 0
 236 856 238 878 244 880 c 0
 250 882 254 890 254 902 c 0
 254 912 256 920 264 922 c 0
EndSplineSet
Validated: 2049
EndChar
StartChar: percent
Encoding: 37 37 102
Width: 884
VWidth: 1828
Flags: MW
LayerCount: 2
Fore
SplineSet
308 234 m 4
 352 318 396 408 420 456 c 4
 458 532 482 580 490 596 c 4
 520 660 526 664 540 704 c 5
 518 690 474 668 434 668 c 7
 416 668 384 670 364 684 c 5
 354 642 296 574 274 552 c 4
 232 510 184 488 134 488 c 4
 96 488 84 504 62 528 c 4
 34 560 20 570 20 622 c 4
 20 684 30 738 50 786 c 4
 62 812 126 874 154 886 c 4
 170 894 184 896 192 896 c 7
 226 896 290 856 290 842 c 7
 290 810 240 796 186 790 c 4
 140 784 106 716 106 662 c 4
 106 634 116 612 128 598 c 4
 138 586 144 580 154 580 c 4
 196 580 224 604 256 640 c 4
 282 672 294 696 294 714 c 4
 294 722 290 726 286 732 c 4
 280 740 278 746 278 764 c 4
 278 804 284 824 316 824 c 7
 338 824 354 816 362 790 c 4
 370 762 400 748 436 748 c 7
 478 748 586 802 616 838 c 4
 622 846 626 848 634 848 c 4
 654 848 674 828 674 798 c 7
 674 786 668 770 662 766 c 4
 656 762 624 710 562 582 c 4
 544 544 536 528 468 392 c 4
 440 338 380 214 364 184 c 4
 338 138 322 110 320 90 c 4
 318 66 282 34 256 34 c 4
 240 34 232 52 232 86 c 4
 232 110 238 128 248 138 c 4
 262 152 302 224 308 234 c 4
664 108 m 4
 706 108 734 130 764 160 c 4
 780 176 788 204 788 222 c 7
 788 260 788 270 756 286 c 4
 738 296 718 300 698 300 c 4
 664 300 656 292 640 266 c 28
 626 242 620 228 620 178 c 4
 620 132 634 108 664 108 c 4
612 374 m 4
 630 394 670 402 682 402 c 7
 720 402 742 382 762 376 c 4
 870 350 876 280 876 230 c 4
 876 206 862 162 828 110 c 4
 776 36 708 18 652 18 c 4
 568 18 534 96 534 182 c 7
 534 260 544 298 612 374 c 4
EndSplineSet
Validated: 2049
EndChar
StartChar: parenleft
Encoding: 40 40 169
Width: 396
VWidth: 1828
Flags: MW
LayerCount: 2
Fore
SplineSet
196 764 m 24
 238 804 276 826 324 826 c 0
 338 826 348 820 348 792 c 3
 348 760 344 756 320 748 c 0
 288 738 264 716 240 688 c 0
 214 658 196 636 186 616 c 0
 172 592 158 560 148 520 c 0
 138 478 114 406 114 324 c 3
 114 260 132 154 144 96 c 0
 150 68 150 64 160 34 c 0
 172 -4 184 -38 192 -54 c 0
 202 -78 218 -110 238 -138 c 0
 256 -162 282 -182 310 -182 c 0
 322 -182 328 -180 340 -180 c 0
 352 -180 362 -192 362 -208 c 0
 362 -240 322 -270 308 -270 c 0
 242 -270 182 -222 142 -142 c 0
 116 -90 104 -60 86 0 c 0
 78 24 70 56 62 108 c 0
 52 180 38 228 38 304 c 3
 38 332 38 366 42 418 c 0
 44 448 62 532 80 586 c 0
 102 652 134 702 196 764 c 24
EndSplineSet
Validated: 1
EndChar
StartChar: parenright
Encoding: 41 41 170
Width: 412
VWidth: 1828
Flags: MW
LayerCount: 2
Fore
SplineSet
254 66 m 0
 258 78 296 204 296 258 c 3
 296 352 284 364 272 434 c 0
 260 502 216 588 122 706 c 0
 70 770 48 808 48 820 c 3
 48 832 74 860 100 860 c 0
 132 860 144 812 174 780 c 0
 262 684 276 666 292 624 c 0
 336 514 350 472 364 374 c 0
 368 344 376 290 366 210 c 0
 362 178 358 156 352 138 c 0
 332 78 310 -26 224 -152 c 0
 196 -192 182 -206 140 -254 c 0
 126 -270 100 -290 90 -290 c 0
 76 -290 50 -272 50 -254 c 0
 50 -236 70 -216 86 -198 c 0
 106 -176 138 -146 148 -136 c 0
 192 -84 240 26 254 66 c 0
EndSplineSet
Validated: 33
EndChar
StartChar: plus
Encoding: 43 43 105
Width: 568
VWidth: 1828
Flags: MW
LayerCount: 2
Fore
SplineSet
360 200 m 1
 362 76 378 66 378 38 c 3
 378 18 372 2 352 -10 c 0
 346 -14 342 -14 338 -14 c 0
 322 -14 306 0 292 30 c 0
 282 54 278 118 276 194 c 5
 174 190 88 190 64 194 c 0
 40 198 20 218 20 246 c 3
 20 272 42 284 78 284 c 0
 100 284 162 282 196 282 c 3
 228 282 248 284 270 288 c 1
 272 298 272 330 276 374 c 0
 284 478 286 512 290 522 c 0
 292 526 300 528 316 528 c 0
 334 528 344 522 350 512 c 0
 356 502 360 476 360 436 c 3
 360 386 358 338 358 290 c 1
 436 290 462 302 538 302 c 3
 560 302 562 290 562 272 c 3
 562 240 552 236 538 230 c 0
 492 212 402 208 360 200 c 1
EndSplineSet
Validated: 33
EndChar
StartChar: comma
Encoding: 44 44 171
Width: 182
VWidth: 1828
Flags: HMW
LayerCount: 2
Fore
SplineSet
116 108 m 0
 144 108 148 86 148 48 c 0
 148 -16 139.4765625 -69.4609375 130 -120 c 0
 124 -152 120 -178 116 -194 c 4
 111.125094269 -213.499622922 104 -234 94 -252 c 0
 84 -270 76 -280 68 -280 c 0
 54 -280 46 -250 46 -194 c 0
 46 -144 49 -102 52 -60 c 0
 55.6572265625 -8.794921875 59.1756125008 26.659578671 62.4033203125 52 c 0
 68.3505859375 98.69140625 86.0779310748 108 116 108 c 0
EndSplineSet
Validated: 1
EndChar
StartChar: four
Encoding: 52 52 178
Width: 554
VWidth: 1828
Flags: MW
LayerCount: 2
Fore
SplineSet
464 10 m 0
 452 8 434 8 426 8 c 1
 426 -106 456 -206 464 -216 c 0
 474 -228 478 -242 478 -254 c 0
 478 -264 474 -274 468 -284 c 0
 460 -296 458 -302 448 -302 c 0
 442 -302 436 -300 426 -298 c 0
 378 -288 364 -232 340 -118 c 0
 336 -100 330 -42 328 4 c 1
 288 4 l 1
 224 6 122 -12 64 8 c 0
 36 18 30 50 30 92 c 3
 30 132 50 166 58 182 c 0
 84 236 94 272 120 330 c 0
 128 346 148 378 200 510 c 0
 212 538 224 574 240 574 c 3
 254 574 288 554 288 540 c 3
 288 498 262 436 250 406 c 0
 220 340 230 356 198 288 c 0
 176 238 144 192 130 128 c 0
 120 88 160 92 204 94 c 0
 262 100 298 98 336 96 c 1
 338 136 360 220 362 246 c 0
 364 276 384 304 416 304 c 3
 428 304 440 300 440 292 c 3
 440 284 440 250 434 190 c 2
 424 98 l 1
 458 88 484 98 512 98 c 0
 520 98 544 72 544 62 c 0
 544 36 518 16 464 10 c 0
EndSplineSet
Validated: 33
EndChar
StartChar: five
Encoding: 53 53 179
Width: 528
VWidth: 1828
UnlinkRmOvrlpSave: 1
Flags: HMW
LayerCount: 2
Fore
SplineSet
159.149414062 435.86328125 m 4
 153.051757812 388.470703125 141.28125 346.024414062 134.377929688 274.186523438 c 4
 132.057617188 250.044921875 129.235351562 197.733398438 128.008789062 176.447265625 c 5
 156.342773438 186.569335938 241.907226562 213.541015625 303.11328125 213.541015625 c 4
 421.809570312 213.541015625 480 166.290039062 480 49 c 4
 480 -37.75 395.70703125 -150.682617188 283.459960938 -254.37109375 c 4
 249.181640625 -286.03515625 203.932617188 -310.564453125 182.232421875 -310.564453125 c 4
 131.146484375 -310.564453125 104.296875 -250.06640625 104.296875 -210.051757812 c 4
 104.296875 -197.381835938 113.564453125 -186.71875 129.732421875 -186.71875 c 4
 156.776367188 -186.71875 163.859375 -201.930664062 184.967773438 -201.930664062 c 4
 199.8828125 -201.930664062 246.123046875 -164.67578125 273.857421875 -134.978515625 c 4
 342.598632812 -61.373046875 390.774414062 4.208984375 390.774414062 45.890625 c 4
 390.774414062 108.759765625 338.2265625 152.673828125 192.157226562 101.232421875 c 4
 145.3125 84.7353515625 97.39453125 71.7490234375 84.6328125 71.7763671875 c 4
 29.1455078125 71.892578125 37.173828125 110.083984375 51.193359375 277.7265625 c 4
 58.033203125 359.510742188 70.88671875 438.720703125 75.8662109375 474.520507812 c 4
 80.1669921875 505.434570312 163.1328125 466.819335938 159.149414062 435.86328125 c 4
56.2841796875 520.215820312 m 4
 69.6689453125 541.456054688 67.294921875 541.384765625 210.603515625 524.8515625 c 4
 262.623046875 518.849609375 308.540039062 517.969726562 361.529296875 522.895507812 c 4
 462.004882812 532.235351562 480.037109375 526.3046875 480.142578125 483.885742188 c 4
 480.228515625 449.418945312 420.295898438 436.381835938 279.051757812 430.453125 c 4
 211.475585938 427.616210938 160.741210938 431.893554688 108.921875 444.568359375 c 4
 57.0478515625 457.256835938 49.4697265625 509.40234375 56.2841796875 520.215820312 c 4
EndSplineSet
EndChar
StartChar: six
Encoding: 54 54 180
Width: 550
VWidth: 1828
Flags: MW
LayerCount: 2
Fore
SplineSet
434 254 m 3
 434 332 384 394 324 394 c 3
 292 394 256 380 210 346 c 0
 180 324 154 282 144 252 c 1
 162 178 232 116 272 96 c 0
 288 88 304 84 326 84 c 3
 348 84 366 100 378 118 c 0
 394 142 416 178 422 190 c 0
 430 204 434 222 434 254 c 3
328 484 m 3
 370 484 406 464 430 444 c 0
 494 390 522 318 522 238 c 0
 522 200 516 170 504 156 c 0
 488 138 486 124 478 110 c 0
 472 96 458 70 422 44 c 0
 384 16 354 -2 304 -2 c 27
 268 -2 228 6 212 14 c 0
 180 28 142 56 102 116 c 0
 64 174 44 238 44 330 c 3
 44 396 58 452 62 484 c 0
 72 554 88 606 104 660 c 0
 122 718 148 764 170 796 c 0
 206 850 260 892 318 892 c 3
 348 892 372 876 372 852 c 3
 372 834 360 828 322 818 c 0
 300 812 276 802 240 752 c 0
 204 702 192 662 182 628 c 0
 172 596 164 572 160 542 c 0
 156 520 144 458 136 384 c 1
 190 454 274 484 328 484 c 3
EndSplineSet
Validated: 1
EndChar
StartChar: seven
Encoding: 55 55 181
Width: 560
VWidth: 1828
Flags: MW
LayerCount: 2
Fore
SplineSet
366 202 m 0
 376 242 380 266 396 316 c 0
 406 348 426 402 426 428 c 1
 366 434 190 430 128 430 c 1
 130 418 132 404 134 394 c 0
 152 322 164 292 164 280 c 3
 164 270 158 256 148 238 c 0
 138 220 134 212 128 212 c 0
 118 212 108 220 98 232 c 0
 88 244 86 262 84 278 c 0
 78 324 32 446 32 478 c 3
 32 488 36 498 42 506 c 0
 56 526 66 528 120 528 c 3
 152 528 176 526 184 524 c 0
 208 518 226 520 344 520 c 0
 466 520 470 526 500 526 c 3
 526 526 538 506 538 488 c 3
 538 458 524 440 508 396 c 0
 502 384 502 372 500 362 c 0
 490 308 466 268 454 220 c 0
 432 142 414 60 384 -34 c 0
 372 -86 362 -136 362 -182 c 0
 362 -210 364 -232 370 -244 c 0
 372 -250 374 -254 374 -260 c 3
 374 -278 350 -324 338 -324 c 3
 334 -324 322 -314 304 -296 c 0
 288 -280 278 -256 278 -228 c 3
 278 -116 298 -20 312 26 c 0
 320 50 356 160 366 202 c 0
EndSplineSet
Validated: 33
EndChar
StartChar: semicolon
Encoding: 59 59 185
Width: 180
VWidth: 1828
Flags: MW
LayerCount: 2
Fore
SplineSet
106 538 m 3
 112 538 130 536 134 532 c 0
 138 528 144 526 146 520 c 0
 150 512 152 496 152 484 c 0
 152 476 146 462 136 448 c 0
 120 424 88 414 72 414 c 0
 48 414 38 436 38 478 c 0
 38 496 40 506 42 510 c 0
 46 526 72 538 106 538 c 3
66 112 m 4
 74 120 86 122 102 122 c 4
 126 122 140 116 148 106 c 4
 152 98 154 94 154 88 c 4
 154 78 150 80 146 6 c 4
 144 -20 140 -58 130 -86 c 4
 126 -100 122 -116 122 -128 c 4
 122 -138 118 -148 108 -158 c 4
 98 -168 88 -172 78 -172 c 7
 58 -172 48 -164 48 -130 c 7
 48 -114 48 -100 50 -88 c 4
 54 -12 56 32 56 42 c 4
 56 80 58 104 66 112 c 4
EndSplineSet
Validated: 1
EndChar
StartChar: less
Encoding: 60 60 107
Width: 572
VWidth: 1828
Flags: MW
LayerCount: 2
Fore
SplineSet
76 188 m 0
 48 212 40 232 40 252 c 0
 40 264 42 280 50 292 c 0
 58 304 62 310 68 312 c 0
 78 316 86 320 114 334 c 0
 142 348 166 366 196 382 c 0
 226 398 244 412 276 434 c 0
 316 462 330 470 388 502 c 0
 414 514 428 522 430 526 c 4
 434 532 442 534 452 534 c 3
 464 534 512 506 512 496 c 3
 512 476 508 464 476 458 c 0
 462 456 424 440 390 422 c 0
 348 398 322 386 280 360 c 24
 246 340 220 324 192 304 c 0
 164 284 134 264 134 260 c 3
 134 252 172 234 208 210 c 0
 302 152 326 158 410 112 c 0
 464 82 512 52 536 32 c 0
 548 22 558 12 558 2 c 0
 558 -14 540 -22 504 -24 c 0
 472 -24 460 -16 442 -6 c 0
 398 22 358 38 202 112 c 0
 144 140 120 150 76 188 c 0
EndSplineSet
Validated: 1
EndChar
StartChar: equal
Encoding: 61 61 108
Width: 468
VWidth: 1828
Flags: MW
LayerCount: 2
Fore
SplineSet
376 430 m 0
 378 430 382 434 384 434 c 0
 390 434 404 428 422 418 c 0
 446 404 456 390 456 380 c 0
 456 370 446 362 430 354 c 0
 424 352 398 350 346 348 c 0
 294 346 246 340 192 340 c 3
 138 340 80 344 76 344 c 0
 74 342 68 342 62 342 c 0
 54 342 20 360 20 384 c 3
 20 392 24 400 28 406 c 0
 32 414 44 418 64 420 c 0
 84 422 132 422 208 424 c 0
 320 424 370 428 376 430 c 0
28 224 m 0
 30 226 34 224 42 224 c 0
 74 224 80 214 106 212 c 24
 156 206 184 204 234 204 c 0
 284 204 368 204 374 204 c 3
 384 204 386 208 396 208 c 0
 408 208 422 206 434 196 c 0
 446 186 452 176 452 166 c 0
 452 158 446 154 436 146 c 0
 426 138 412 136 400 136 c 0
 354 136 284 128 220 128 c 0
 164 128 94 140 58 154 c 0
 32 164 22 186 22 200 c 0
 22 210 24 216 28 224 c 0
EndSplineSet
Validated: 1
EndChar
StartChar: question
Encoding: 63 63 186
Width: 474
VWidth: 1828
Flags: HMW
LayerCount: 2
Fore
SplineSet
82.900390625 863.450195312 m 0
 110.200195312 884.450195312 120.700195312 888.650390625 160.599609375 907.549804688 c 0
 171.099609375 913.849609375 190 918.049804688 223.599609375 918.049804688 c 0
 301.299804688 918.049804688 328.599609375 907.549804688 372.700195312 873.950195312 c 0
 416.799804688 840.349609375 439.900390625 785.75 439.900390625 705.950195312 c 0
 439.900390625 653.450195312 410.5 548.450195312 376.900390625 485.450195312 c 0
 347.5 430.849609375 299.200195312 382.549804688 253 365.75 c 1
 253 346.849609375 255.099609375 319.549804688 257.200195312 315.349609375 c 0
 265.599609375 283.849609375 276.099609375 271.25 276.099609375 246.049804688 c 0
 276.099609375 222.950195312 257.200195312 201.950195312 234.099609375 201.950195312 c 0
 200.5 201.950195312 190 216.650390625 179.5 243.950195312 c 0
 171.099609375 258.650390625 166.900390625 294.349609375 162.700195312 313.25 c 0
 158.5 330.049804688 145.900390625 367.849609375 145.900390625 384.650390625 c 0
 145.900390625 403.549804688 160.599609375 416.150390625 187.900390625 424.549804688 c 0
 219.400390625 435.049804688 288.700195312 481.25 313.900390625 542.150390625 c 0
 330.700195312 584.150390625 362.200195312 645.049804688 362.200195312 695.450195312 c 0
 362.200195312 756.349609375 355.900390625 766.849609375 328.599609375 794.150390625 c 0
 303.400390625 819.349609375 261.400390625 827.75 234.099609375 827.75 c 0
 211 827.75 187.900390625 819.349609375 158.5 800.450195312 c 0
 135.400390625 785.75 112.299804688 771.049804688 106 733.25 c 0
 103.900390625 710.150390625 91.2998046875 699.650390625 66.099609375 699.650390625 c 0
 40.900390625 699.650390625 24.099609375 714.349609375 24.099609375 739.549804688 c 0
 24.099609375 796.25 40.900390625 829.849609375 82.900390625 863.450195312 c 0
337 46.5498046875 m 3
 337 25.5498046875 271.900390625 -8.0498046875 248.799804688 -8.0498046875 c 3
 236.200195312 -8.0498046875 196.299804688 12.9501953125 196.299804688 33.9501953125 c 3
 196.299804688 46.5498046875 211 69.650390625 211 75.9501953125 c 3
 211 88.5498046875 221.5 99.0498046875 240.400390625 99.0498046875 c 3
 265.599609375 99.0498046875 305.5 84.349609375 322.299804688 69.650390625 c 0
 334.900390625 59.150390625 337 48.650390625 337 46.5498046875 c 3
EndSplineSet
Validated: 1
EndChar
StartChar: at
Encoding: 64 64 187
Width: 930
VWidth: 1828
Flags: MW
LayerCount: 2
Fore
SplineSet
220 812 m 0
 280 854 326 878 410 878 c 0
 500 878 564 860 636 838 c 0
 668 828 724 796 746 778 c 0
 754 772 774 760 804 726 c 0
 874 640 914 540 914 418 c 0
 914 314 890 258 810 186 c 0
 756 138 720 110 650 110 c 3
 618 110 582 124 552 144 c 0
 520 168 498 196 490 242 c 1
 442 210 432 200 372 200 c 0
 316 200 286 246 286 288 c 0
 286 384 288 418 364 538 c 0
 416 618 460 646 512 646 c 3
 548 646 594 642 608 612 c 0
 610 608 618 594 618 574 c 3
 618 542 616 522 584 522 c 0
 564 522 548 530 536 542 c 0
 522 554 520 558 512 558 c 3
 490 558 446 518 420 464 c 0
 406 432 372 398 372 324 c 3
 372 302 378 292 398 292 c 0
 410 292 462 320 468 326 c 0
 478 336 488 344 508 374 c 0
 530 406 550 418 568 418 c 0
 596 418 606 392 606 362 c 3
 606 336 570 312 570 278 c 3
 570 256 574 242 576 240 c 0
 596 212 622 198 662 198 c 3
 682 198 716 206 726 214 c 0
 792 264 842 334 842 430 c 0
 842 484 834 518 828 536 c 0
 810 592 770 666 726 700 c 0
 672 740 654 744 618 760 c 0
 586 774 478 802 428 802 c 0
 292 802 224 722 176 600 c 0
 128 476 116 372 116 298 c 3
 116 128 122 84 206 0 c 0
 256 -50 326 -66 408 -66 c 3
 476 -66 540 -50 578 -20 c 0
 672 50 718 56 738 56 c 0
 748 56 750 54 750 48 c 3
 750 40 732 14 662 -44 c 0
 622 -76 586 -104 532 -132 c 24
 494 -150 462 -160 424 -160 c 3
 332 -160 212 -130 154 -66 c 0
 72 24 50 98 40 194 c 0
 36 226 34 260 34 292 c 3
 34 438 74 538 96 612 c 0
 110 664 176 782 220 812 c 0
EndSplineSet
Validated: 1
EndChar
StartChar: B
Encoding: 66 66 189
Width: 608
VWidth: 1828
Flags: HMW
AnchorPoint: "cedilla" 304 36 basemark 0
AnchorPoint: "ogonek" 444 86 basemark 0
AnchorPoint: "acute" 268 948 basemark 0
LayerCount: 2
Fore
SplineSet
290 370 m 0
 256 380 236 382 216 382 c 0
 202 382 178 382 164 382 c 1
 164.454101562 334.268554688 167.840820312 262.955078125 172 202 c 0
 175.3125 153.451171875 178 140 182 110 c 0
 184 94 184 84 184 76 c 1
 190 72 228 70 252 70 c 0
 324 70 348 92 380 108 c 0
 394 116 425.7734375 135.323242188 442 148 c 0
 474 173 488 192 488 206 c 3
 488 220 480 236 468 250 c 0
 456 264 438 282 414 302 c 0
 370 338 356 344 290 370 c 0
232 814 m 0
 202.037109375 815.498046875 187 820 161 818 c 1
 160 786 156 718 156 642 c 3
 156 592 162 526 162 472 c 1
 204 472 242 476 252 480 c 0
 270 488 328 506 370 538 c 0
 412 570 432 596 432 624 c 3
 432 671.993164062 386.5234375 727.616210938 348 764 c 0
 312 798 272 812 232 814 c 0
128 928 m 3
 142 928 148 918 164 914 c 0
 174 910 186 914 228 906 c 0
 303.387695312 892.0390625 353 874 388 846 c 0
 399.04296875 837.165039062 414.366210938 816.844726562 436 788 c 0
 484 724 508 688.005859375 508 625 c 3
 508 555.623046875 471.806640625 530.283203125 426 488 c 0
 400 464 372 446 356 436 c 1
 392 422 426 398 444 386 c 0
 460 376 484 362 506 340 c 0
 528 318 542.791015625 298.416992188 552 280 c 0
 562 260 570 240 570 210 c 3
 570 142 503.728515625 81.4345703125 424 46 c 0
 406 38 380 22 352 12 c 0
 324 2 274 -10 200 -10 c 3
 160 -10 136 -6 104 12 c 24
 90 20 84 42 84 52 c 0
 84 58 89 68 101 76 c 1
 93 128 87 170 83 228 c 0
 77 334 72 374 72 616 c 3
 72 630 74 688 74 700 c 3
 74 834 64 828 64 864 c 0
 64 910 98 928 128 928 c 3
EndSplineSet
Validated: 2081
EndChar
StartChar: C
Encoding: 67 67 190
Width: 642
VWidth: 1828
Flags: HMW
AnchorPoint: "cedilla" 316 32 basemark 0
AnchorPoint: "ogonek" 576 142 basemark 0
AnchorPoint: "acute" 354 942 basemark 0
LayerCount: 2
Fore
SplineSet
276 866 m 0
 304 876 334 884 372 884 c 3
 404 884 432 876 456 866 c 0
 480 856 510 834 542 802 c 0
 562 782 576 770 580 760 c 0
 584 750 586 734 586 714 c 0
 586 696 584 684 580 676 c 0
 576 668 572 664 562 658 c 0
 546 648 516 642 476 642 c 0
 454 642 444 644 444 650 c 0
 444 654 452 662 470 676 c 0
 488 690 500 700 500 702 c 0
 500 708 488 724 464 752 c 0
 448 770 435 775.16015625 425.200195312 779.080078125 c 0
 415.400390625 784.959960938 380.120117188 790.83984375 356.599609375 790.83984375 c 3
 301.719726562 790.83984375 274.280273438 769.280273438 242.919921875 737.919921875 c 0
 233.120117188 728.120117188 219.400390625 708.51953125 205.6796875 679.120117188 c 0
 174.3203125 614.440429688 170.166992188 628.213867188 154.719726562 561.51953125 c 0
 140.202148438 498.837890625 129.240234375 467.974609375 129.240234375 404.719726562 c 7
 129.240234375 373.360351562 128.766601562 322.313476562 135.120117188 289.080078125 c 4
 147.860351562 222.440429688 162.559570312 189.120117188 201.759765625 147.959960938 c 4
 235.080078125 112.6796875 264.48046875 89.16015625 342.879882812 89.16015625 c 4
 382.080078125 89.16015625 415.400390625 95.0400390625 442.83984375 106.799804688 c 4
 505.559570312 136.200195312 529.080078125 159.719726562 544.759765625 171.48046875 c 4
 558.48046875 181.280273438 574 182 590 182 c 7
 606 182 616 168 616 158 c 7
 616 148 612 140 592 118 c 4
 546 68 506 44 442 10 c 4
 420 -2 380 -8 326 -8 c 4
 288 -8 258 -4 238 4 c 4
 212 14 183.251171867 35.1313189411 146 68 c 4
 112 98 82.939453125 143.770507812 70 180 c 4
 50 236 42 312 42 408 c 7
 42 464 62 576 90 630 c 0
 120 694 96 656 138 726 c 0
 184 800 230 848 276 866 c 0
EndSplineSet
Validated: 33
EndChar
StartChar: D
Encoding: 68 68 191
Width: 682
VWidth: 1828
Flags: HMW
AnchorPoint: "cedilla" 309.863 78 basemark 0
AnchorPoint: "ogonek" 427.863 174 basemark 0
AnchorPoint: "acute" 323.863 946 basemark 0
LayerCount: 2
Fore
SplineSet
95.86328125 898 m 0
 107.86328125 904 113.86328125 908 117.86328125 908 c 0
 127.86328125 908 153.86328125 886 163.86328125 868 c 1
 227.86328125 872 279.86328125 864 335.86328125 856 c 0
 343.86328125 856 359.86328125 850 391.86328125 846 c 0
 415.86328125 842 445.86328125 834 479.86328125 822 c 0
 513.86328125 810 553.86328125 776 583.86328125 744 c 0
 621.86328125 704 641.86328125 620 639.86328125 550 c 0
 635.86328125 448 619.86328125 402 555.86328125 298 c 0
 517.86328125 236 475.86328125 190 449.86328125 164 c 0
 371.86328125 90 317.86328125 40 293.86328125 24 c 0
 245.86328125 -8 211.86328125 -26 191.86328125 -26 c 0
 179.86328125 -26 169.86328125 -22 165.86328125 -20 c 0
 161.86328125 -18 155.86328125 -6 155.86328125 4 c 0
 155.86328125 12 159.86328125 24 167.86328125 32 c 0
 205.86328125 66 193.86328125 62 247.86328125 100 c 0
 329.86328125 160 357.86328125 182 407.86328125 240 c 0
 455.86328125 290 465.86328125 308 507.86328125 374 c 0
 537.86328125 422 555.86328125 480 557.86328125 548 c 0
 559.86328125 586 553.86328125 616 543.86328125 640 c 0
 515.86328125 690 505.86328125 704 455.86328125 726 c 0
 421.86328125 744 379.86328125 756 333.86328125 764 c 0
 287.86328125 772 253.86328125 772 225.86328125 774 c 0
 201.86328125 776 185.86328125 776 163.86328125 770 c 1
 161.86328125 750 157.86328125 700 153.86328125 622 c 0
 149.86328125 550 157.86328125 524 155.86328125 376 c 0
 153.86328125 298 161.86328125 206 163.86328125 202 c 0
 175.86328125 166 191.86328125 160 191.86328125 144 c 0
 189.86328125 116 167.86328125 88 141.86328125 90 c 0
 133.86328125 90 127.86328125 102 117.86328125 118 c 0
 95.86328125 152 89.86328125 164 79.86328125 206 c 0
 73.86328125 236 71.86328125 308 71.86328125 426 c 0
 75.86328125 532 73.86328125 544 71.86328125 602 c 0
 67.86328125 716 73.86328125 810 63.86328125 842 c 0
 55.86328125 856 81.86328125 890 95.86328125 898 c 0
EndSplineSet
Validated: 33
EndChar
StartChar: E
Encoding: 69 69 192
Width: 682
VWidth: 1828
Flags: HMW
AnchorPoint: "cedilla" 372 42 basemark 0
AnchorPoint: "ogonek" 592 96 basemark 0
AnchorPoint: "acute" 316 911.344 basemark 0
LayerCount: 2
Fore
SplineSet
177 250 m 0
 177 186.05805483 178.624143391 137.169218547 199.709356018 103.432878344 c 0
 215.73561514 76.7224464742 235.669461409 79 288 79 c 0
 330.374576596 79 360.390346287 82.859567383 373.491281563 87.2265458084 c 0
 438.954978592 107.68395113 535.508830602 123 600 123 c 0
 616.761626976 123 629 124.586388354 629 110 c 0
 629 100.384555726 620.028503 83.1675897906 604.70993575 69.7638434473 c 0
 589.176302836 56.1719147648 576.421160629 48.7887579198 549.061325628 42.9132474374 c 0
 533.372800545 40.3156368516 513.089761506 38.90769817 498.782519057 34.8530599494 c 0
 469.40350124 28.4810125115 445.974957655 22.5756681004 426.251475439 18.7582594388 c 0
 381 10 266.097722286 -3 220 -3 c 3
 166.539734382 -3 112.804778864 48.8148259575 100.9296875 112.848632812 c 0
 92 161 99 296.347382533 99 442 c 0
 99 518.591515386 91.5791015625 717.837890625 82.8310546875 792.196289062 c 1
 69.8550021305 792.196289062 51.5086169119 791.424723617 42.4560546875 804.09765625 c 0
 33.3310546875 816.873046875 31 828.618164062 31 838 c 0
 31 848.309570312 44.359375 859.5703125 58.1005859375 865.459960938 c 0
 69.79296875 871.305664062 74.77734375 876.803710938 82.2568359375 881 c 1
 82.5341796875 881 l 1
 110.6640625 887.028320312 129.435546875 889 224 889 c 0
 360.036132812 889 455.663085938 890.735351562 491.31640625 901.174804688 c 0
 500.166015625 903.416992188 507.53515625 909 518 909 c 0
 531.540039062 909 551.392578125 906.997070312 574.977539062 901.100585938 c 0
 585 899.430664062 589 896.364257812 589 882 c 0
 589 852.254129873 578.969726562 841.358398438 538.883789062 827.967773438 c 0
 485.966796875 812.31640625 357.735933245 805.592228003 298.384765625 802.196289062 c 0
 260 800 232.04296875 798.260742188 171 796 c 1
 173.198242188 767.432617188 177 741.274414062 177 710 c 2
 177 604 l 2
 177 568.456336897 179 528.635811748 179 495.474609375 c 1
 236.334926679 489.741238486 275.397358355 485.726063865 321.071155589 485.726063865 c 0
 368.133915313 485.726063865 422.216264486 489.989158555 510.541992188 501.028320312 c 0
 528.390625 502.653320312 534.954101562 503.985351562 544 505 c 1
 553.501953125 505 569 486.458007812 569 468 c 0
 569 455.51171875 558.126953125 442.782226562 531.216796875 436.947265625 c 0
 483.543720012 432.169125289 410.00155278 406.5 329.5 406.5 c 3
 277.701955227 406.5 222.060279936 408.28230666 179 411.6640625 c 1
 179 367.793976965 177 305.772791917 177 250 c 0
EndSplineSet
Validated: 33
EndChar
StartChar: F
Encoding: 70 70 193
Width: 668
VWidth: 1828
Flags: HMW
AnchorPoint: "cedilla" 158 46 basemark 0
AnchorPoint: "ogonek" 164 44 basemark 0
AnchorPoint: "acute" 336 940 basemark 0
LayerCount: 2
Fore
SplineSet
83 923 m 4
 93 933 101 935 111 935 c 4
 123 935 138 928 148 902 c 0
 154 890 156 864 156 864 c 1
 242 870 280 870 382 876 c 0
 436 878 468 880 482 880 c 0
 500 882 520 882 542 882 c 0
 568 882 584 878 594 868 c 0
 608 848 616 834 616 824 c 0
 616 814 596 788 576 788 c 0
 550 788 534 796 504 796 c 0
 484 796 416 796 318 788 c 0
 298.807617188 786.43359375 223 783 166 779 c 1
 172 755 172 652 178 596 c 0
 186 526 180 452 182 376 c 0
 182 342 182 264 182 220 c 3
 182 172 198 138 198 64 c 3
 198 40 202 32 192 14 c 0
 182 -4 166 -12 154 -12 c 0
 144 -12 136 -4 128 16 c 0
 112 70 110 92 100 172 c 0
 90 220 98 369 96 569 c 4
 95.157901973 653.209802701 85 735 77 817 c 4
 73 851 75 875 69 889 c 4
 69 891 67 895 67 897 c 4
 67 905 73 913 83 923 c 4
212 462 m 24
 212 476 222 492 236 492 c 27
 362 492 530 486 560 482 c 0
 578 480 586 468 586 454 c 3
 586 448 584 442 582 436 c 0
 580 430 562 426 530 416 c 0
 498 406 476 400 446 400 c 0
 414 400 372 398 338 398 c 3
 290 398 256 402 236 414 c 0
 220 424 212 440 212 462 c 24
EndSplineSet
Validated: 33
EndChar
StartChar: G
Encoding: 71 71 194
Width: 680
VWidth: 1828
Flags: HMW
AnchorPoint: "cedilla" 250 64 basemark 0
AnchorPoint: "ogonek" 564 -78 basemark 0
AnchorPoint: "acute" 344 940 basemark 0
LayerCount: 2
Fore
SplineSet
570 398 m 4
 574 416 588 440 606 440 c 4
 634 440 646 418 646 376 c 4
 646 362 644 344 638 322 c 4
 632 300 616 180 612 156 c 4
 602 104 598 -44 596 -68 c 4
 586 -146 548 -186 484 -206 c 4
 472 -212 456 -214 444 -214 c 7
 412 -214 376 -196 340 -162 c 4
 330 -152 324 -132 324 -112 c 7
 324 -86 330 -76 348 -76 c 7
 362 -76 378 -84 392 -98 c 4
 418 -124 438 -136 450 -136 c 7
 474 -136 502 -110 508 -100 c 4
 510 -96 514 -24 520 62 c 4
 520 74 524 140 528 172 c 5
 512 154 506 150 476 122 c 4
 456 104 420 78 362 50 c 4
 328 34 296 16 250 16 c 4
 154 16 68 106 54 194 c 4
 50 216 48 244 48 278 c 4
 48 444 68 492 94 558 c 4
 112 610 174 726 234 784 c 4
 282 832 302 846 322 866 c 4
 340 884 366 894 398 894 c 4
 460 894 504 870 532 816 c 4
 542 800 546 772 546 730 c 4
 546 676 492 624 438 624 c 4
 426 624 420 626 420 632 c 4
 420 638 426 650 438 662 c 4
 458 682 470 704 470 730 c 4
 470 764 446 806 414 806 c 4
 360 806 264 710 244 672 c 4
 222 630 190 586 174 536 c 4
 160 484 128 430 128 280 c 7
 128 226 156 160 186 136 c 4
 202 124 224 116 256 116 c 4
 348 116 398 164 454 214 c 4
 484 240 516 278 530 300 c 4
 550 330 562 360 570 398 c 4
EndSplineSet
Validated: 1
EndChar
StartChar: H
Encoding: 72 72 195
Width: 740
VWidth: 1828
Flags: HMW
AnchorPoint: "cedilla" 382 54 basemark 0
AnchorPoint: "ogonek" 670 2 basemark 0
AnchorPoint: "acute" 350 948 basemark 0
LayerCount: 2
Fore
SplineSet
560 854 m 0
 558 870 556 880 556 890 c 3
 556 900 558 908 564 912 c 0
 572 920 576 922 590 922 c 3
 606 922 616 916 624 906 c 0
 632 896 636 876 638 854 c 0
 648 772 652 666 648 536 c 0
 646 496 650 464 652 452 c 1
 668 450 696 444 696 420 c 3
 696 396 688 388 658 374 c 1
 660 366 658 356 658 330 c 0
 658 304 660 278 660 250 c 0
 660 222 660 208 660 200 c 0
 660 144 668 40 682 28 c 0
 696 16 704 -2 704 -12 c 3
 704 -22 698 -30 688 -36 c 16
 680 -40 674 -42 668 -42 c 0
 660 -42 656 -38 648 -34 c 8
 618 -14 604 12 594 34 c 0
 576 80 574 204 576 266 c 0
 578 316 577 339 575 357 c 1
 509 347 444 340 376 340 c 3
 258 340 210 346 162 350 c 1
 162 302 162 176 166 120 c 0
 168 98 174 88 182 80 c 0
 192 70 194 68 194 32 c 3
 194 0 190 -22 170 -22 c 3
 154.141892459 -22 131.420522365 -11.4205223655 124 -4 c 0
 100 28 86 96 82 154 c 0
 78 200 80 276 78 330 c 0
 76 356 76 442 76 596 c 3
 76 616 76 648 76 668 c 3
 76 722 76 746 76 818 c 0
 76 846 76 868 116 868 c 3
 128 868 136 868 140 864 c 0
 144 860 146 854 150 844 c 0
 158 824 162 792 158 742 c 0
 156 686 160 554 158 440 c 1
 160 436 224 427 284 425 c 0
 320.201171875 423.79296875 354 424 382 424 c 0
 462 424 493 432 569 440 c 1
 567 478 564 508 564 540 c 3
 564 580 564 700 564 732 c 3
 564 804 566 798 560 854 c 0
EndSplineSet
Validated: 33
EndChar
StartChar: I
Encoding: 73 73 196
Width: 572
VWidth: 1828
Flags: HMW
AnchorPoint: "cedilla" 308 40 basemark 0
AnchorPoint: "ogonek" 480 48 basemark 0
AnchorPoint: "acute" 294 944 basemark 0
LayerCount: 2
Fore
SplineSet
251 408 m 0
 251 476.209960938 255 596.782613902 255 666 c 0
 255 736.704713063 252.500976562 768.615234375 251.541992188 784.452148438 c 1
 210.032226562 775.615234375 164.564499569 773 152 773 c 0
 146.468630935 773 122.447924034 773.001921402 100.590758847 774.023284261 c 0
 83.3107115999 774.830762687 67.0171472457 776.982905072 64.6384148266 778.250424054 c 0
 60.1144959472 781.301562431 51 789.36066219 51 820 c 0
 51 827.856063696 55.3410229849 833.536972331 62.9101668995 835.082054674 c 0
 115.753440007 843.879329895 210.888368017 855.612001041 248.038673055 865.931530218 c 1
 248.808380015 868.625504582 l 2
 252.174362505 880.406443294 261.839208765 889 280 889 c 0
 291.210862388 889 310.145878319 884.784440431 318.465159375 876.465159375 c 2
 320.010593862 874.919724888 l 1
 346.320104203 875.931629132 373.543714091 876.5 395.5 876.5 c 0
 416.881717895 876.5 433.863138302 875.978055747 441.3193157 875.046033572 c 0
 470.473872057 871.070412251 479.079502757 861.80651073 479.079502757 849.342070843 c 0
 479.079502757 842.773468314 476.547611777 834.276537111 471.524948334 824.231210225 c 0
 465.915569035 813.012451627 458.803310374 806.107376756 450.145955445 802.644434784 c 0
 444.665413729 800.452218098 430.747278466 795.763350313 409.361716936 795.763350313 c 3
 387.457535123 795.763350313 353.427734375 797.76171875 333.30859375 794.732421875 c 1
 336.25287083 768.697248244 337 736.351517962 337 678 c 0
 337 558.12028922 335 449.223632812 335 324 c 0
 335 288.325195312 341 211.193448479 341 176 c 0
 341 169.651470765 340.372913786 163.940264521 339.333091365 160.23156455 c 0
 338.256664226 156.392307756 337.956308816 156.568811186 337.490733082 156.33602332 c 0
 333.354145639 153.578298357 328.612335644 149.276223164 322.83141057 144.085063629 c 0
 308.255819042 130.996462764 289.110261143 115 278 115 c 0
 277.536358297 115 277.379925314 114.9544744 277.294303655 114.9544744 c 0
 277.154963949 114.9544744 277.203160488 115.0750441 276.420028736 115.708610997 c 0
 275.698947157 116.291976441 274.517110474 117.239320973 272.878333689 118.136274303 c 0
 257.456205202 132.28435917 255 158.102080323 255 198 c 0
 255 254.512057606 251 328.86328125 251 408 c 0
500 101 m 0
 516.796680996 101 531 88.0048676619 531 62 c 0
 531 55.2998689411 519.134810765 36.1485227649 504.564135259 21.1630053268 c 0
 492.840778284 9.10587246908 480.293769231 0.941695919197 475.084369387 0.941695919197 c 0
 474.889433034 0.941695919197 474.68504968 0.954951752718 474.528548919 0.972340726157 c 0
 451.267399929 3.42088272517 416.185270897 3.63994660676 380.964517724 3.88019687983 c 0
 304.425040381 4.40229333365 209.737076449 9.48336188319 154.746670673 16.9445189007 c 0
 104.593243017 23.749389558 83 31.881746122 83 68 c 0
 83 102.768974701 97.7567764825 125 126 125 c 0
 139.089072202 125 149.689216909 121.241101841 156.465159375 114.465159375 c 0
 160.781021542 110.149297208 169.11923717 107.452759242 182.937821076 104.128739461 c 0
 200.306180094 99.9508317003 226.668558161 95.488375494 263.454554086 91.029466897 c 0
 287.004917126 88.4696448275 307.983977787 87.4679917076 326.963169986 87.4679917076 c 0
 394.565316737 87.4679917076 437.684105479 101 500 101 c 0
EndSplineSet
Validated: 33
EndChar
StartChar: J
Encoding: 74 74 197
Width: 678
VWidth: 1828
Flags: HMW
AnchorPoint: "cedilla" 334 42 basemark 0
AnchorPoint: "ogonek" 520 106 basemark 0
AnchorPoint: "acute" 382 920 basemark 0
LayerCount: 2
Fore
SplineSet
176 42 m 4
 128 74 136 66 96 106 c 4
 66 138 52 174 52 212 c 4
 52 240 60 258 74 268 c 4
 84 274 90 276 94 276 c 4
 100 276 102 270 108 256 c 4
 136 188 164 158 180 144 c 4
 208 118 248 84 334 84 c 7
 392 84 440 98 478 134 c 4
 508 162 522 186 526 206 c 4
 532 244 532 348 532 514 c 6
 532 514 530 630 536 704 c 28
 538 742 542 780 544 798 c 5
 486 780 450 782 378 772 c 4
 368 770 324 766 298 764 c 4
 254 760 220 754 196 752 c 4
 186 750 178 750 166 750 c 4
 144 750 128 766 128 788 c 4
 128 812 152 832 162 838 c 4
 172 844 198 846 234 848 c 4
 274 850 328 848 398 862 c 4
 472 876 514 884 526 888 c 4
 538 894 580 906 594 906 c 7
 626 906 652 892 652 874 c 7
 652 842 634 826 628 768 c 4
 624 734 620 704 618 682 c 4
 618 674 614 606 614 478 c 4
 614 248 614 198 596 154 c 4
 578 108 536 66 482 40 c 4
 434 16 392 6 334 6 c 7
 244 6 216 14 176 42 c 4
EndSplineSet
Validated: 33
EndChar
StartChar: K
Encoding: 75 75 198
Width: 682
VWidth: 1828
Flags: HMW
AnchorPoint: "cedilla" 346 42 basemark 0
AnchorPoint: "ogonek" 602 44 basemark 0
AnchorPoint: "acute" 314 922 basemark 0
LayerCount: 2
Fore
SplineSet
81 870 m 0
 85 902 108 912 132 912 c 0
 142 912 146 896 146 864 c 0
 146 834 146 808 146 786 c 0
 143.003268632 678.117670751 140 648.485872843 142 582 c 0
 143.86421459 520.028032918 148 496 152 454 c 1
 176 478 190 498 208 518 c 0
 260 572 274 588 284 602 c 0
 312 638 342 672 380 710 c 0
 386 716 420 754 434 772 c 0
 474 822 486 844 500 864 c 0
 506.687662687 873.553803839 514 880 534 880 c 0
 548.472666999 880 580 876 580 856 c 3
 580 826.931116293 519.322751873 749.984127809 506 730 c 0
 490 708 454 660 372 578 c 0
 252 458 248 438 216 398 c 1
 250 362 272 344 316 306 c 0
 370 258 394 238 450 192 c 0
 480 166 538 126 574 112 c 0
 632 88 664 72 664 52 c 3
 664 22 646 10 608 10 c 3
 554 10 512 32 468 60 c 0
 440 78 402 104 364 134 c 0
 340 152 304 182 258 228 c 0
 220 266 200 286 160 320 c 1
 160 274 160.87750061 259.85749573 166 224 c 0
 174 168 198 88 198 56 c 3
 198 30 192 20 162 20 c 3
 142 20 122 32 112 54 c 0
 80 126 74.4641644421 248.020464495 70 344 c 0
 62.3951565854 507.504133413 64 488.830679139 64 662 c 3
 64 711.83333975 75.8378152429 828.695762945 81 870 c 0
EndSplineSet
Validated: 33
EndChar
StartChar: L
Encoding: 76 76 199
Width: 612
VWidth: 1828
Flags: MW
AnchorPoint: "cedilla" 316 34 basemark 0
AnchorPoint: "ogonek" 542 76 basemark 0
AnchorPoint: "acute" 278 942 basemark 0
LayerCount: 2
Fore
SplineSet
94 876 m 0
 104 888 112 894 118 894 c 0
 150 894 162 880 162 852 c 3
 162 822 160 814 160 670 c 3
 160 588 158 506 158 430 c 3
 158 400 164 342 174 168 c 0
 176 132 176 108 176 84 c 1
 228 88 272 94 322 104 c 0
 354 112 430 122 466 122 c 0
 544 122 584 114 584 94 c 0
 584 66 562 48 548 48 c 3
 542 48 538 50 534 50 c 3
 490 50 424 36 364 22 c 0
 290 6 200 -20 142 -20 c 3
 122 -20 98 6 88 48 c 0
 78 90 80 186 80 284 c 3
 80 464 80 462 80 660 c 0
 80 716 80 720 78 752 c 24
 76 784 76 800 76 828 c 3
 76 848 84 866 94 876 c 0
EndSplineSet
Validated: 33
EndChar
StartChar: M
Encoding: 77 77 200
Width: 882
VWidth: 1828
Flags: MW
AnchorPoint: "cedilla" 448 20 basemark 0
AnchorPoint: "ogonek" 796 -12 basemark 0
AnchorPoint: "acute" 446 904 basemark 0
LayerCount: 2
Fore
SplineSet
78 510 m 0
 78 520 76 604 76 612 c 0
 72 718 56 762 56 816 c 3
 56 874 68 906 100 906 c 0
 112 906 122 904 128 896 c 0
 134 888 144 872 160 842 c 0
 174 808 196 756 204 732 c 0
 226 660 268 594 296 536 c 0
 322 482 348 438 378 404 c 0
 398 380 414 370 426 370 c 0
 428 370 436 372 438 372 c 0
 452 374 468 382 482 394 c 0
 520 426 572 466 614 528 c 0
 654 588 696 700 700 760 c 0
 702 812 698 864 732 864 c 0
 796 864 788 804 788 728 c 0
 788 700 788 678 788 646 c 24
 788 592 786 558 788 504 c 24
 792 398 798 354 804 232 c 0
 808 148 812 96 814 78 c 0
 816 52 848 -4 848 -18 c 0
 848 -34 814 -52 796 -52 c 3
 750 -52 734 8 732 126 c 0
 732 158 728 208 724 254 c 0
 720 300 716 346 716 452 c 0
 716 516 716 528 716 556 c 1
 708 542 690 502 672 476 c 0
 658 454 636 434 596 388 c 0
 566 354 508 314 462 288 c 0
 450 280 436 276 420 276 c 0
 392 276 370 286 352 304 c 0
 322 338 320 328 292 366 c 0
 262 406 250 444 218 498 c 0
 208 514 180 578 170 604 c 0
 164 618 160 630 154 644 c 1
 154 624 154 604 154 560 c 0
 154 426 156 278 166 154 c 0
 170 112 170 84 182 74 c 0
 194 66 200 58 200 46 c 0
 200 22 168 -10 144 -10 c 3
 120 -10 116 12 108 34 c 0
 100 54 84 114 80 224 c 0
 76 334 78 428 78 510 c 0
EndSplineSet
Validated: 33
EndChar
StartChar: O
Encoding: 79 79 202
Width: 756
VWidth: 1828
Flags: HMW
AnchorPoint: "cedilla" 358 20 basemark 0
AnchorPoint: "ogonek" 500 56 basemark 0
AnchorPoint: "acute" 372 938 basemark 0
LayerCount: 2
Fore
SplineSet
218 780 m 1
 214 782 200 790 196 790 c 0
 186 790 176 738 176 724 c 1
 176 724 208 770 218 780 c 1
564 214 m 0
 596 268 626 340 626 420 c 0
 626 524 624 562 616 598 c 0
 596 694 578 822 460 822 c 0
 422 822 392 814 370 804 c 0
 342 790 310 760 270 716 c 0
 230 672 202 630 186 596 c 0
 176 578 166 572 156 572 c 1
 150 558 148 530 148 520 c 0
 148 514 140 470 140 450 c 0
 140 354 136 334 164 252 c 0
 174 220 188 194 198 176 c 0
 246 104 290 76 366 76 c 3
 396 76 440 96 456 106 c 0
 514 148 542 178 564 214 c 0
182 892 m 0
 206 892 266 856 276 842 c 1
 328 880 376 904 452 904 c 0
 506 904 546 892 578 858 c 0
 624 808 624 790 656 724 c 0
 686 664 702 570 702 444 c 0
 702 366 694 310 682 280 c 0
 658 224 632 182 608 150 c 0
 564 94 548 76 496 42 c 0
 446 8 380 -12 350 -12 c 3
 258 -12 204 32 170 66 c 0
 152 84 134 112 118 144 c 0
 88 198 90 206 80 258 c 0
 74 290 56 322 56 398 c 0
 56 536 74 626 84 676 c 0
 100 746 92 804 128 856 c 0
 144 880 162 892 182 892 c 0
EndSplineSet
Validated: 2081
EndChar
StartChar: P
Encoding: 80 80 203
Width: 606
VWidth: 1828
Flags: HMW
AnchorPoint: "cedilla" 176 42 basemark 0
AnchorPoint: "ogonek" 182 46 basemark 0
AnchorPoint: "acute" 292 934 basemark 0
LayerCount: 2
Fore
SplineSet
176 790 m 1
 176 728.990544953 174 621.39453125 174 591 c 0
 174 456 180 416.341463415 182 374 c 1
 231 382 276.55078125 390.775390625 331 418 c 0
 357 431 396.476124497 450.981258859 419 469 c 0
 443.490234375 488.591796875 492 531.810731571 492 562 c 3
 492 578.11253423 473.359781012 617.520291985 464 630 c 0
 432.977852128 671.36286383 401.391495165 692.428060739 348 730 c 0
 295.225585938 767.137695312 252 790 176 790 c 1
314.065429688 318.7890625 m 0
 284 307 220 295 186 290 c 1
 186 280 187.334809895 257.977851579 188 248 c 0
 190 218 188.557821714 182.122455771 194 156 c 0
 204 108 224 100 224 70 c 3
 224 36 214 24 204 12 c 0
 194 0 182 -2 170 -2 c 3
 152 -2 135.530663188 17.8773472498 130 40 c 0
 126 56 125.372445783 87.8357277122 122 102 c 0
 112 144 112 170 106 210 c 0
 100 250 95.8305594039 319.99699517 94 428 c 0
 92 546 90 622 90 650 c 0
 90 700 92.9135710475 732.049281522 94 744 c 0
 96 766 98 776 98 786 c 1
 90 782 66 768 64 762 c 0
 62 756 62 738 62 706 c 3
 62 686 56 672 46 672 c 3
 36 672 22 712 22 754 c 3
 22 784 26.9293518485 805.429958842 34 818 c 0
 52 850 76 866 104 874 c 1
 106 884 104 894 106 898 c 0
 110 906 116 912 136 912 c 0
 152 912 168 910 172 906 c 0
 174 904 176 882 176 878 c 1
 252.678453153 871.610128904 324.254120451 837.976427575 384 800 c 0
 458.558620727 752.60811153 484.418639367 735.117393083 524 684 c 0
 555.361839974 643.497716195 574 610 574 578 c 3
 574 517.597988224 545.999877431 489.000096304 524 461 c 0
 508.517578125 441.294921875 486.39210234 420.565787386 466 406 c 0
 424 376 350.936480672 333.246701357 314.065429688 318.7890625 c 0
EndSplineSet
Validated: 1
EndChar
StartChar: Q
Encoding: 81 81 204
Width: 762
VWidth: 1828
Flags: HMW
AnchorPoint: "cedilla" 372 45 basemark 0
AnchorPoint: "ogonek" 692 -11 basemark 0
AnchorPoint: "acute" 390 957 basemark 0
LayerCount: 2
Fore
SplineSet
230.919921875 172.639648438 m 0
 246.599609375 155 262.280273438 141.280273438 277.959960938 131.48046875 c 0
 309.3203125 111.879882812 325 92.2802734375 374 92.2802734375 c 3
 401.440429688 92.2802734375 446 133 472 169 c 1
 468 179 452 195 442 209 c 0
 430 229 428 231 414 253 c 0
 408 261 362 315 362 325 c 0
 362 337 397 373 429 373 c 0
 453 373 483 313 499 291 c 0
 519 265 525 255 535 245 c 1
 573 299 585.6796875 352.959960938 597.440429688 447.040039062 c 0
 617.040039062 590.120117188 615.080078125 666.559570312 615.080078125 682.240234375 c 3
 615.080078125 701.83984375 613.120117188 727.3203125 593.51953125 752.799804688 c 0
 571.959960938 778.280273438 530.799804688 799.83984375 491.599609375 805.719726562 c 0
 473.959960938 807.6796875 444.559570312 809.639648438 405.360351562 805.719726562 c 0
 289.719726562 793.959960938 228.959960938 780.240234375 179.959960938 701.83984375 c 0
 156.440429688 662.639648438 142.719726562 619.51953125 134.879882812 568.559570312 c 0
 130.959960938 545.040039062 130.959960938 519.559570312 132.919921875 492.120117188 c 0
 136.83984375 427.440429688 146.639648438 339.240234375 172.120117188 286.3203125 c 0
 193.6796875 241.240234375 199.559570312 209.879882812 230.919921875 172.639648438 c 0
360 891 m 0
 396 899 446 907 512 897 c 0
 582 887 610 877 650 833 c 0
 686 795 704 755 704 687 c 3
 704 599 702 569 692 501 c 0
 668 333 643 260 611 206 c 0
 601 192 600 182 590 168 c 1
 606 140 613 131 635 105 c 0
 645 91 669 73 701 51 c 0
 733 27 749 7 749 -7 c 0
 749 -17 738 -33 732 -37 c 0
 722 -45 710 -49 694 -49 c 0
 688 -49 684 -47 678 -47 c 0
 652 -43 648 -23 630 -11 c 0
 616 -1 608 11 594 23 c 0
 572 43 554 65 530 99 c 1
 498 65 426 3 364 3 c 0
 312 3 252 37 212 63 c 0
 172 89 156 127 130 167 c 0
 118 185 110 203 90 259 c 0
 58 351 50 437 50 483 c 3
 50 497 50 529 56 573 c 0
 68 669 76 679 98 735 c 0
 108 759 126 781 160 807 c 0
 220 853 270 875 360 891 c 0
EndSplineSet
Validated: 33
EndChar
StartChar: R
Encoding: 82 82 205
Width: 708
VWidth: 1828
Flags: HMW
AnchorPoint: "cedilla" 370 35 basemark 0
AnchorPoint: "ogonek" 626 37 basemark 0
AnchorPoint: "acute" 298 949 basemark 0
LayerCount: 2
Fore
SplineSet
298 767 m 4
 280 769 248 777 214 777 c 7
 196 777 176 779 162 781 c 5
 162 771 148 595 154 405 c 5
 154 405 192 403 218 403 c 7
 276 403 384 427 454 487 c 4
 492 519 514 573 514 597 c 7
 514 621 502 641 486 661 c 4
 448 707 410 727 378 741 c 4
 348 753 322 763 298 767 c 4
170 183 m 4
 176 147 178 121 192 91 c 4
 200 77 202 65 202 59 c 7
 202 49 192 35 176 19 c 4
 160 1 154 -1 144 -1 c 7
 136 -1 122 11 112 27 c 4
 94 55 88 83 84 147 c 4
 82 187 82 217 74 293 c 4
 68 355 70 409 70 459 c 4
 70 645 72 671 70 817 c 5
 58 827 44 847 44 861 c 7
 44 885 74 921 102 921 c 7
 130 921 164 885 166 871 c 5
 198 869 270 865 306 857 c 4
 342 849 376 835 394 829 c 4
 412 823 456 809 494 779 c 4
 548 739 564 707 568 701 c 4
 580 677 602 623 602 601 c 7
 602 531 542 469 498 429 c 4
 460 395 402 369 370 357 c 5
 408 341 452 299 472 277 c 4
 504 241 562 161 588 133 c 4
 624 95 646 75 656 71 c 4
 666 67 670 57 670 45 c 7
 670 35 666 23 660 13 c 4
 652 1 644 -5 628 -5 c 7
 608 -5 588 7 566 27 c 4
 550 41 526 65 510 83 c 4
 498 95 468 131 448 157 c 4
 426 187 388 221 362 249 c 4
 320 293 270 311 160 321 c 5
 162 267 168 197 170 183 c 4
EndSplineSet
Validated: 33
EndChar
StartChar: S
Encoding: 83 83 206
Width: 552
VWidth: 1828
Flags: HMW
AnchorPoint: "cedilla" 296 48 basemark 0
AnchorPoint: "ogonek" 326 56 basemark 0
AnchorPoint: "acute" 298 942 basemark 0
LayerCount: 2
Fore
SplineSet
208 342 m 4
 186 350 96 388 76 420 c 4
 48 466 36 484 36 550 c 7
 36 636 94 726 118 760 c 4
 128 772 138 790 158 810 c 4
 178 830 196 842 212 852 c 4
 250 874 276 896 312 896 c 7
 368 896 398 886 416 874 c 4
 422 870 430 864 442 858 c 4
 468 844 480 826 480 806 c 4
 480 786 464 768 440 768 c 4
 434 768 430 768 424 770 c 4
 378 794 362 798 318 798 c 7
 298 798 268 794 228 760 c 4
 214 748 196 730 182 710 c 4
 148 662 126 628 126 554 c 4
 126 514 130 482 146 466 c 4
 168 442 218 424 252 414 c 4
 348 382 434 324 504 258 c 4
 534 230 538 204 538 192 c 7
 538 168 522 138 490 106 c 4
 464 80 428 62 374 40 c 4
 296 8 222 -6 192 -6 c 7
 132 -6 56 26 56 66 c 4
 56 78 60 90 70 100 c 4
 80 110 90 114 106 114 c 4
 112 114 128 114 138 108 c 4
 158 98 166 84 212 84 c 7
 250 84 312 98 338 108 c 4
 388 130 408 146 434 162 c 4
 440 166 442 168 442 176 c 7
 442 186 436 194 426 204 c 4
 308 320 268 324 208 342 c 4
EndSplineSet
Validated: 1
EndChar
StartChar: U
Encoding: 85 85 208
Width: 650
VWidth: 1828
Flags: HMW
AnchorPoint: "cedilla" 332.25 32 basemark 0
AnchorPoint: "ogonek" 416.25 36.2002 basemark 0
AnchorPoint: "acute" 309.15 968.6 basemark 0
LayerCount: 2
Fore
SplineSet
51.650390625 792.200195312 m 0
 51.650390625 848.188476562 56.1484375 881.512695312 61.4921875 892.596679688 c 0
 68.91796875 903.55078125 81.79296875 911.099609375 101.25 911.099609375 c 0
 110.684570312 911.099609375 120.21484375 907.290039062 123.334960938 902.608398438 c 0
 132.091796875 892.100585938 134.950195312 864.079101562 134.950195312 819.5 c 0
 134.950195312 744.369140625 132.849609375 650.034179688 132.849609375 575.900390625 c 0
 132.849609375 540.000976562 134.958007812 491.568359375 141.272460938 428.42578125 c 0
 152.438476562 316.762695312 157.8515625 282.633789062 179 228 c 0
 191 197 204 170 232 141 c 0
 272.360351562 99.1982421875 303.940429688 74 330 74 c 3
 378.010742188 74 426 115 471.7578125 189.255859375 c 0
 502.913085938 239.814453125 512.430664062 268.3046875 518.0234375 329.680664062 c 0
 524.944335938 405.633789062 526.450195312 409.8828125 526.450195312 533.900390625 c 3
 526.450195312 768.110351562 510.096679688 812.399414062 483.385742188 841.505859375 c 0
 479.516601562 847.170898438 473.950195312 851.182617188 473.950195312 859.400390625 c 0
 473.950195312 869.782226562 485.286132812 881.513671875 495.692382812 894.001953125 c 0
 505.215820312 905.430664062 518.485351562 911.099609375 531.75 911.099609375 c 3
 544.306640625 911.099609375 581.297851562 876.170898438 591.885742188 797.895507812 c 0
 602.374023438 699.296875 604.450195312 661.958984375 604.450195312 538.099609375 c 3
 604.450195312 443.67578125 605 402 595.955078125 324.923828125 c 0
 587.341796875 251.530273438 580.673828125 218.60546875 538 142 c 0
 489.30859375 54.5966796875 403.143554688 -7.099609375 323.849609375 -7.099609375 c 3
 264.26953125 -7.099609375 228.553710938 28.1884765625 187 68 c 0
 150.783203125 102.698242188 125 144 101.713867188 199.706054688 c 0
 78.451171875 255.35546875 66 343 58.044921875 435.426757812 c 0
 51.6884765625 509.28125 49.5498046875 533.84784956 49.5498046875 624.200195312 c 0
 49.5498046875 674.948242188 51.650390625 742.037109375 51.650390625 792.200195312 c 0
EndSplineSet
Validated: 33
EndChar
StartChar: V
Encoding: 86 86 209
Width: 692
VWidth: 1828
Flags: HMW
AnchorPoint: "cedilla" 402 20 basemark 0
AnchorPoint: "ogonek" 412 20 basemark 0
AnchorPoint: "acute" 354 934 basemark 0
LayerCount: 2
Fore
SplineSet
258 398 m 4
 290 322 282 340 320 264 c 4
 326 254 332 240 342 220 c 4
 356 188 356 188 362 178 c 4
 366 170 386 130 394 120 c 5
 404 138 404 152 414 176 c 4
 420 188 418 208 428 234 c 4
 452 298 468 352 478 396 c 4
 480 406 482 424 492 448 c 4
 508 492 518 536 524 554 c 4
 528 570 540 616 550 696 c 4
 554 728 558 766 560 788 c 4
 564 836 560 846 566 876 c 4
 572 904 604 922 620 922 c 4
 632 922 640 910 648 896 c 4
 658 880 660 868 660 856 c 4
 660 844 656 840 650 830 c 4
 644 820 638 800 632 768 c 4
 620 642 596 530 564 430 c 4
 550 384 546 336 520 264 c 4
 514 246 510 224 502 192 c 4
 490 140 472 84 454 30 c 4
 444 0 434 -16 422 -22 c 4
 414 -26 406 -28 396 -28 c 4
 384 -28 374 -24 364 -16 c 4
 350 -6 344 16 328 50 c 4
 306 96 300 126 276 162 c 4
 268 172 252 202 218 274 c 4
 204 304 196 328 174 384 c 4
 154 438 128 510 108 608 c 4
 90 702 86 736 52 800 c 4
 42 816 38 832 38 846 c 4
 38 856 44 866 54 876 c 4
 64 886 74 894 84 894 c 4
 106 894 124 870 134 854 c 4
 144 836 156 804 166 750 c 4
 198 618 214 546 218 530 c 4
 234 456 230 464 258 398 c 4
EndSplineSet
Validated: 1
EndChar
StartChar: W
Encoding: 87 87 210
Width: 878
VWidth: 1828
Flags: HMW
AnchorPoint: "cedilla" 464 32 basemark 0
AnchorPoint: "ogonek" 700 34 basemark 0
AnchorPoint: "acute" 426 924 basemark 0
LayerCount: 2
Fore
SplineSet
576 126 m 4
 552 168 542 220 532 242 c 4
 518 274 484 324 474 378 c 4
 464 428 440 474 426 540 c 5
 412 502 404 470 398 436 c 4
 390 394 382 360 372 328 c 4
 366 308 362 286 356 260 c 4
 350 234 344 212 338 194 c 4
 332 174 326 148 320 116 c 4
 310 62 300 44 268 12 c 20
 262 6 258 6 250 6 c 4
 240 6 234 8 230 16 c 12
 192 76 178 106 160 184 c 4
 150 232 126 354 116 424 c 4
 106 484 102 522 98 536 c 4
 84 630 78 714 62 776 c 4
 52 812 34 830 34 862 c 4
 34 888 58 914 76 914 c 4
 88 914 102 906 114 892 c 4
 126 878 130 858 132 842 c 4
 136 810 156 750 162 688 c 4
 172 584 180 538 212 370 c 4
 226 296 232 252 234 246 c 4
 240 222 246 198 252 188 c 5
 258 202 260 220 264 242 c 4
 268 262 270 282 278 300 c 4
 286 318 290 332 296 354 c 28
 306 390 310 412 320 448 c 28
 328 474 330 488 338 514 c 28
 346 540 348 552 358 578 c 28
 368 610 374 636 388 658 c 4
 402 680 418 690 434 690 c 4
 440 690 444 692 446 690 c 4
 460 684 484 628 516 528 c 4
 532 474 546 440 552 428 c 4
 566 394 582 336 594 300 c 4
 604 274 628 232 636 214 c 4
 650 176 670 142 680 136 c 5
 688 190 680 218 690 318 c 4
 696 372 710 478 718 564 c 4
 726 644 722 688 724 764 c 4
 728 868 724 874 768 896 c 4
 782 904 798 906 808 906 c 4
 814 906 816 906 818 904 c 4
 830 884 838 868 838 862 c 4
 838 856 836 844 826 828 c 4
 816 808 812 788 804 732 c 4
 798 694 786 634 782 528 c 4
 780 472 768 418 762 284 c 4
 760 242 758 204 758 172 c 4
 758 156 760 138 762 124 c 4
 764 118 764 112 764 102 c 4
 764 90 760 74 750 58 c 4
 742 46 724 -14 714 -14 c 4
 706 -14 694 -6 674 8 c 4
 632 40 600 82 576 126 c 4
EndSplineSet
Validated: 33
EndChar
StartChar: X
Encoding: 88 88 211
Width: 738
VWidth: 1828
Flags: HMW
AnchorPoint: "cedilla" 432 20 basemark 0
AnchorPoint: "ogonek" 662 72 basemark 0
AnchorPoint: "acute" 384 938 basemark 0
LayerCount: 2
Fore
SplineSet
606 854 m 0
 626 886 642 908 666 908 c 0
 682 908 692 892 692 880 c 0
 692 870 696 850 686 832 c 0
 676 814 668 812 662 808 c 0
 658 806 646 782 624 738 c 0
 570 630 540 578 488 476 c 0
 478 458 462 428 458 420 c 1
 468 410 466 412 502 366 c 0
 504 364 506 364 510 358 c 0
 516 350 524 336 536 318 c 0
 576 258 586 240 606 218 c 0
 670 148 664 168 690 140 c 0
 700 130 704 114 704 92 c 3
 704 74 702 58 692 46 c 0
 682 34 672 28 658 28 c 3
 636 28 614 52 580 106 c 0
 540 166 526 186 488 240 c 0
 468 268 440 310 412 342 c 1
 348 250 272 134 216 30 c 0
 208 18 208 10 208 6 c 3
 208 2 214 -4 224 -10 c 0
 236 -20 234 -22 234 -32 c 0
 234 -40 226 -50 214 -62 c 0
 204 -72 196 -78 188 -78 c 0
 184 -78 174 -74 160 -68 c 0
 138 -58 128 -52 128 -48 c 0
 128 -42 126 -32 124 -22 c 0
 122 -12 120 -4 120 2 c 0
 120 12 122 20 128 30 c 0
 146 62 144 62 166 106 c 0
 210 198 230 232 296 328 c 0
 304 338 306 344 310 350 c 0
 326 376 338 396 346 416 c 1
 336 430 324 446 312 468 c 0
 266 542 234 568 188 642 c 0
 142 718 110 752 70 796 c 0
 52 816 26 830 26 852 c 0
 26 860 30 866 38 874 c 24
 48 888 60 906 72 906 c 0
 84 906 104 896 128 870 c 0
 216 774 332 562 398 488 c 1
 412 512 416 522 428 544 c 0
 468 618 516 710 554 776 c 0
 564 790 584 818 606 854 c 0
EndSplineSet
Validated: 33
EndChar
StartChar: Z
Encoding: 90 90 213
Width: 786
VWidth: 1828
Flags: HMW
AnchorPoint: "cedilla" 423.406 33.6689 basemark 0
AnchorPoint: "ogonek" 717.899 59.2764 basemark 0
AnchorPoint: "acute" 389.264 979.031 basemark 0
LayerCount: 2
Fore
SplineSet
694.91015625 873.98046875 m 7
 694.91015625 858.708984375 692.969726562 845.849609375 686.100585938 834.477539062 c 4
 667.989257812 804.494140625 658.83984375 788.659179688 638.998046875 750.971679688 c 4
 568.58984375 638.1328125 503.538085938 554.940429688 423.75390625 444.89453125 c 4
 365.630859375 365.243164062 345.624023438 333.124023438 287.192382812 252.076171875 c 4
 261.74609375 216.78125 201.015625 123.009765625 185.2890625 95.732421875 c 5
 201.1796875 88.2802734375 229.046875 82.1689453125 254.821289062 82.1689453125 c 4
 353.897460938 82.1689453125 397.133789062 86.9697265625 434.797851562 91.166015625 c 4
 505.828125 99.080078125 578.705078125 109.911132812 641.075195312 109.911132812 c 4
 657.361328125 109.911132812 681.361328125 103.50390625 698.061523438 101.416015625 c 4
 747.530273438 94.9638671875 764.264648438 82.5166015625 764.264648438 65.6787109375 c 4
 764.264648438 55.2333984375 757.231445312 45.7275390625 744.672851562 35.2626953125 c 4
 732.810546875 25.376953125 716.770507812 19.236328125 696.151367188 17.1630859375 c 4
 536.247070312 6.50390625 376.370117188 0.1064453125 207.9765625 0.1064453125 c 4
 156.922851562 2.2353515625 124.911132812 4.3974609375 112.71484375 6.4306640625 c 4
 91.04296875 10.37109375 61.208984375 37.140625 61.208984375 59.2763671875 c 4
 61.208984375 78.1376953125 79.3515625 111.729492188 115.48046875 154.234375 c 4
 179.619140625 226.923828125 216.06640625 280.490234375 235.377929688 310.525390625 c 4
 273.158203125 364.50390625 306.3828125 416.80859375 348.455078125 479.075195312 c 4
 434.364257812 606.221679688 543.1640625 727.625 582.389648438 826.450195312 c 5
 543.291992188 824.278320312 500.60546875 818.655273438 462.82421875 812.333007812 c 4
 395.889648438 801.131835938 327.296875 796.088867188 263.356445312 796.088867188 c 4
 152.439453125 796.088867188 83.0419921875 807.373046875 55.1923828125 831.244140625 c 4
 43.1982421875 841.239257812 37.7353515625 852.8984375 37.7353515625 861.661132812 c 4
 37.7353515625 870.116210938 52.564453125 892.302734375 60.17578125 895.520507812 c 4
 65.9931640625 897.436523438 76.1171875 899.491210938 92.63671875 899.491210938 c 4
 120.606445312 899.491210938 127.83984375 892.354492188 144.966796875 888.928710938 c 4
 175.331054688 882.422851562 201.489257812 880.28515625 293.233398438 880.28515625 c 4
 387.079101562 880.28515625 425.76171875 884.501953125 445.67578125 888.908203125 c 4
 482.747070312 895.127929688 518.370117188 904.049804688 557.849609375 905.893554688 c 4
 632.895507812 909.397460938 672.952148438 900.110351562 682.8515625 896.215820312 c 4
 690.059570312 893.379882812 694.91015625 882.0625 694.91015625 873.98046875 c 7
EndSplineSet
Validated: 33
EndChar
StartChar: bracketleft
Encoding: 91 91 110
Width: 456
VWidth: 1828
Flags: HMW
LayerCount: 2
Fore
SplineSet
167 402 m 0
 173 340 179 32 179 -84 c 27
 179 -138 177 -192 175 -230 c 1
 205 -228 252 -222 296 -222 c 27
 322 -222 382 -222 396 -226 c 0
 404 -228 408 -230 410 -238 c 0
 414 -248 416 -256 416 -262 c 0
 416 -272 412 -283 402 -287 c 4
 392 -291 374 -299 344 -303 c 4
 292 -309 238 -311 192 -315 c 4
 158.599609375 -317.904296875 140 -324 130 -324 c 0
 122 -324 104 -312 94 -302 c 0
 84 -292 78 -282 78 -272 c 0
 78 -270 78 -268 80 -266 c 0
 94 -232 100 -164 100 -66 c 3
 100 48 96 308 90 384 c 0
 86 440 76 690 76 754 c 0
 76 786 72 820 80 856 c 0
 88 892 94 916 104 926 c 0
 112 934 124 934 144 930 c 0
 166 924 210 924 280 924 c 0
 338 924 378 922 394 916 c 0
 410 910 418 900 418 882 c 0
 418 866 410 860 394 854 c 0
 378 848 340 846 284 846 c 0
 210 846 165 848 163 842 c 0
 157 832 163 798 163 766 c 0
 163 668 157 506 167 402 c 0
EndSplineSet
Validated: 33
EndChar
StartChar: backslash
Encoding: 92 92 111
Width: 616
VWidth: 1828
Flags: MW
LayerCount: 2
Fore
SplineSet
410 324 m 4
 442 274 468 220 518 172 c 0
 574 118 604 84 604 68 c 3
 604 52 586 36 576 36 c 3
 548 36 546 38 536 48 c 0
 526 58 524 70 496 92 c 0
 422 152 388 220 360 266 c 0
 344 294 268 396 248 424 c 0
 222 458 186 528 152 602 c 0
 146 614 132 654 100 716 c 0
 68 778 44 820 32 834 c 0
 26 840 24 844 24 852 c 0
 24 858 26 862 30 870 c 0
 40 890 54 902 68 902 c 0
 74 902 88 892 106 874 c 0
 124 856 136 836 144 824 c 0
 156 798 174 764 192 722 c 0
 242 600 248 586 310 478 c 0
 344 424 378 374 410 324 c 4
EndSplineSet
Validated: 1
EndChar
StartChar: asciicircum
Encoding: 94 94 113
Width: 470
VWidth: 1828
Flags: MW
LayerCount: 2
Fore
SplineSet
198 842 m 4
 214 866 224 880 224 886 c 4
 224 896 230 904 242 914 c 4
 258 924 268 928 278 928 c 4
 298 928 300 910 308 892 c 4
 312 880 324 854 336 820 c 4
 348 786 356 762 360 746 c 4
 364 730 376 694 384 674 c 4
 390 660 396 636 404 624 c 4
 416 602 428 586 438 574 c 4
 454 550 462 540 462 516 c 7
 462 496 454 484 428 484 c 7
 414 484 404 484 398 488 c 4
 392 492 386 502 376 514 c 4
 360 540 348 552 346 556 c 4
 336 580 328 600 310 648 c 4
 284 712 280 730 258 778 c 5
 252 772 248 762 238 750 c 4
 206 704 182 670 164 638 c 4
 148 610 134 568 124 520 c 4
 122 510 120 494 116 488 c 4
 112 482 86 476 70 476 c 4
 36 476 18 490 18 524 c 7
 18 548 48 604 68 636 c 4
 102 690 90 688 130 746 c 4
 170 806 156 784 198 842 c 4
EndSplineSet
Validated: 1
EndChar
StartChar: underscore
Encoding: 95 95 114
Width: 624
VWidth: 1828
Flags: HMW
LayerCount: 2
Fore
SplineSet
347 79 m 7
 369 79 447 75 471 75 c 4
 509 75 529 85 549 85 c 7
 563 85 577 83 587 73 c 4
 593 67 595 69 595 57 c 4
 595 23 589 22 573 12 c 4
 553 0 537 -2 527 -2 c 7
 497 -2 427 -1 331 -1 c 7
 271.026367188 -1 166.528320312 -8 66 -8 c 4
 50 -8 34 -6 28 -2 c 4
 18 6 12 29 12 43 c 4
 12 75 26 81 54 81 c 4
 62 81 66 81 72 79 c 4
 92 75 116 73 142 73 c 4
 210.079101562 73 287.692382812 79 347 79 c 7
EndSplineSet
Validated: 1
EndChar
StartChar: b
Encoding: 98 98 215
Width: 600
VWidth: 1828
Flags: MW
AnchorPoint: "cedilla" 316 32 basemark 0
AnchorPoint: "ogonek" 402 74 basemark 0
AnchorPoint: "acute" 282 934 basemark 0
LayerCount: 2
Fore
SplineSet
478 314 m 3
 478 398 472 416 440 438 c 0
 434 442 424 442 412 442 c 3
 366 442 326 418 298 392 c 0
 278 374 268 360 258 350 c 0
 222 312 196 268 186 222 c 0
 180 190 178 162 178 130 c 3
 178 114 184 84 188 72 c 1
 196 68 212 66 240 66 c 3
 272 66 296 82 326 96 c 0
 348 106 372 120 396 142 c 0
 436 178 478 250 478 314 c 3
48 892 m 0
 58 902 72 908 82 908 c 0
 94 908 106 900 116 888 c 0
 126 876 130 862 130 842 c 0
 130 832 136 778 136 684 c 0
 136 628 134 404 142 340 c 1
 162 368 164 372 214 424 c 0
 268 480 296 508 352 526 c 0
 376 534 398 538 414 538 c 0
 446 538 478 524 508 492 c 0
 530 470 544 450 552 432 c 0
 560 414 560 380 560 336 c 3
 560 286 558 254 552 236 c 0
 524 172 494 120 460 86 c 0
 436 60 404 38 370 18 c 0
 304 -20 282 -22 200 -22 c 3
 144 -22 114 -18 108 -10 c 0
 102 -2 94 54 82 158 c 0
 66 284 50 286 50 692 c 0
 50 788 48 846 40 862 c 0
 34 872 38 882 48 892 c 0
EndSplineSet
Validated: 33
EndChar
StartChar: d
Encoding: 100 100 235
Width: 586
VWidth: 1828
Flags: MW
AnchorPoint: "cedilla" 308 2 basemark 0
AnchorPoint: "ogonek" 510 0 basemark 0
AnchorPoint: "acute" 354 942 basemark 0
LayerCount: 2
Fore
SplineSet
252 432 m 3
 178 432 128 328 128 222 c 3
 128 144 136 102 192 102 c 3
 246 102 324 248 380 354 c 1
 360 374 310 432 252 432 c 3
42 182 m 3
 42 346 98 520 264 520 c 3
 316 520 356 496 388 460 c 1
 378 602 370 680 370 794 c 3
 370 842 390 898 424 898 c 3
 474 898 478 834 478 784 c 3
 478 762 482 708 482 618 c 3
 482 436 494 350 518 178 c 0
 524 136 530 60 542 28 c 0
 546 20 552 16 552 6 c 3
 552 -32 520 -36 506 -36 c 3
 436 -36 448 92 418 246 c 1
 322 84 280 2 176 2 c 3
 102 2 42 92 42 182 c 3
EndSplineSet
Validated: 1
EndChar
StartChar: e
Encoding: 101 101 217
Width: 509
VWidth: 1828
Flags: HMW
AnchorPoint: "cedilla" 282 8 basemark 0
AnchorPoint: "ogonek" 430 70 basemark 0
AnchorPoint: "acute" 252 594 basemark 0
LayerCount: 2
Fore
SplineSet
134 312 m 1
 148 315 164 320 206 330 c 0
 242 340 310 356 366 388 c 1
 335.309570312 422.52734375 293.5625 468 244 468 c 0
 228 468 212 462 200 452 c 0
 170 432 134 358 134 312 c 1
154 533 m 0
 172.038085938 548.359375 202 560 230 560 c 0
 288 560 350 524 394 484 c 0
 432 448 458 422 458 380 c 0
 458 356 424 330 394 312 c 0
 380 302 326 276 302 266 c 0
 248 248 188 228 136 212 c 1
 140 160 158 114 182 90 c 0
 198 74 228 62 288 62 c 3
 316 62 354 86 370 100 c 0
 380 110 416 126 436 126 c 0
 452 126 470 112 470 98 c 0
 470 76 418 44 404 32 c 0
 362 -4 336 -18 284 -18 c 3
 198 -18 150.916015625 -11.0478515625 120 22 c 0
 62 84 41 146 41 250 c 3
 41 403.01171875 78.3408203125 468.577148438 154 533 c 0
EndSplineSet
Validated: 1
EndChar
StartChar: f
Encoding: 102 102 218
Width: 548
VWidth: 1828
UnlinkRmOvrlpSave: 1
Flags: MW
AnchorPoint: "cedilla" 288 14 basemark 0
AnchorPoint: "ogonek" 294 10 basemark 0
AnchorPoint: "acute" 324 980 basemark 0
LayerCount: 2
Fore
SplineSet
314 260 m 0
 322 156 322 134 322 60 c 3
 322 26 322 -20 310 -30 c 0
 302 -38 302 -40 298 -40 c 3
 278 -40 232 4 232 20 c 3
 232 26 232 34 234 42 c 0
 236 50 240 70 240 102 c 0
 240 144 236 192 234 246 c 0
 232 300 226 326 224 338 c 0
 218 374 216 394 212 430 c 16
 202 506 200 550 200 688 c 0
 200 760 202 814 226 862 c 24
 262 936 296 946 328 946 c 3
 364 946 454 900 472 868 c 0
 486 844 516 790 516 746 c 3
 516 704 504 672 472 672 c 0
 460 672 452 678 448 694 c 0
 432 778 386 842 330 842 c 0
 310 842 296 814 286 758 c 0
 280 716 278 676 278 640 c 0
 278 602 286 490 290 452 c 0
 298 380 308 346 314 260 c 0
106 386 m 0
 94 384 76 382 64 382 c 3
 38 382 22 398 22 422 c 3
 22 438 34 466 44 474 c 0
 52 480 78 480 96 480 c 3
 190 480 214 480 272 490 c 0
 368 506 422 522 474 522 c 0
 494 522 512 492 512 476 c 0
 512 456 474 438 454 438 c 3
 442 438 416 428 396 424 c 0
 362 418 278 408 256 404 c 0
 194 394 152 392 106 386 c 0
EndSplineSet
EndChar
StartChar: g
Encoding: 103 103 219
Width: 521
VWidth: 1828
UnlinkRmOvrlpSave: 1
Flags: HMW
AnchorPoint: "cedilla" 290.796 -288 basemark 0
AnchorPoint: "ogonek" 392.796 -272 basemark 0
AnchorPoint: "acute" 258.796 596 basemark 0
LayerCount: 2
Fore
SplineSet
477 343.404296875 m 0
 477 321.17578125 452.603515625 327.366210938 429.680664062 327.366210938 c 0
 406.756835938 327.366210938 387.751953125 373.59765625 367.545898438 406.840820312 c 0
 347.338867188 440.083984375 276.046875 474.629882812 261.0546875 474.629882812 c 0
 246.071289062 474.629882812 219.970703125 456.701171875 178.315429688 399.709960938 c 0
 140.4921875 347.9609375 133.298828125 323.9453125 133.298828125 303.201171875 c 0
 133.298828125 291.46875 137.208984375 284.298828125 150.897460938 284.298828125 c 0
 224.572265625 284.298828125 270.0078125 326.408203125 358.419921875 423.788085938 c 0
 408.919921875 479.41015625 431.297851562 393.060546875 365.309570312 320.5390625 c 0
 290.434570312 238.250976562 241.391601562 193.584960938 149.978515625 193.584960938 c 0
 70.7900390625 193.584960938 45.6533203125 243.442382812 45.6533203125 297.604492188 c 0
 45.6533203125 336.50390625 57.064453125 378.686523438 105.93359375 443.133789062 c 0
 184.23046875 546.387695312 216.9921875 562.86328125 261.44921875 562.86328125 c 0
 305.90625 562.86328125 350.326171875 530.163085938 396.172851562 495.431640625 c 0
 442.01953125 460.69921875 477 408.700195312 477 343.404296875 c 0
323.767578125 194.346679688 m 0
 323.767578125 183.875 347.623046875 163.94140625 371.379882812 135.881835938 c 0
 426.705078125 70.537109375 460.795898438 -2.7373046875 460.795898438 -97.583984375 c 0
 460.795898438 -193.672851562 398.743164062 -266.98046875 322.5859375 -266.98046875 c 0
 258.126953125 -266.98046875 211.788085938 -246.119140625 156.943359375 -201.029296875 c 0
 80.9892578125 -138.583007812 63.470703125 -111.583984375 63.470703125 -52.642578125 c 0
 63.470703125 -14.8359375 182.000976562 70.419921875 241.189453125 70.419921875 c 0
 268.450195312 70.419921875 285.823242188 53.642578125 285.823242188 33.2587890625 c 0
 285.823242188 17.294921875 275.388671875 1.662109375 256.724609375 -7.6708984375 c 0
 238.05859375 -17.0029296875 166.920898438 -52.572265625 158.584960938 -67.666015625 c 1
 164.142578125 -86.380859375 175.7890625 -101.271484375 208.877929688 -126.782226562 c 0
 250.913085938 -159.19140625 297.712890625 -173.506835938 318.122070312 -173.506835938 c 0
 346.065429688 -173.506835938 375.696289062 -155.458984375 375.696289062 -95.6982421875 c 0
 375.696289062 -60.154296875 363.30859375 0 311.098632812 69.8603515625 c 0
 260.192382812 137.9765625 228.874023438 157.256835938 228.874023438 187.227539062 c 0
 228.874023438 245.608398438 280.650390625 314.958984375 340.864257812 375.171875 c 0
 359.999023438 394.306640625 372.791015625 403.169921875 391.456054688 403.169921875 c 0
 413.068359375 403.169921875 426.821289062 385.487304688 426.821289062 368.787109375 c 0
 426.821289062 344.227539062 413.11328125 324.1015625 388.017578125 299.530273438 c 0
 336.977539062 249.556640625 323.767578125 216.4140625 323.767578125 194.346679688 c 0
EndSplineSet
EndChar
StartChar: h
Encoding: 104 104 220
Width: 552
VWidth: 1828
Flags: MW
AnchorPoint: "cedilla" 300 18 basemark 0
AnchorPoint: "ogonek" 494 40 basemark 0
AnchorPoint: "acute" 204 930 basemark 0
LayerCount: 2
Fore
SplineSet
534 52 m 3
 534 32 506 -2 486 -2 c 0
 430 -2 408 40 408 122 c 0
 408 232 404 190 404 330 c 3
 404 384 406 416 396 416 c 0
 384 416 356 402 324 368 c 0
 288 330 240 266 212 214 c 0
 178 150 172 130 162 48 c 0
 158 18 148 -44 124 -44 c 3
 118 -44 104 -42 86 -32 c 0
 68 -22 64 106 64 170 c 3
 64 416 70 590 64 698 c 0
 60 766 54 808 44 826 c 0
 40 836 38 842 38 852 c 0
 38 874 54 892 78 892 c 0
 126 892 124 846 134 792 c 0
 152 680 158 626 158 486 c 0
 158 374 156 340 158 290 c 1
 162 290 172 308 192 340 c 0
 222 396 296 468 350 498 c 0
 378 512 402 520 426 520 c 0
 448 520 464 508 470 494 c 0
 474 484 486 410 488 378 c 0
 490 340 488 268 488 222 c 3
 488 164 488 100 498 92 c 0
 502 88 534 76 534 52 c 3
EndSplineSet
Validated: 33
EndChar
StartChar: i
Encoding: 105 105 221
Width: 252
VWidth: 1828
Flags: HMW
AnchorPoint: "cedilla" 132 56 basemark 0
AnchorPoint: "ogonek" 140 52 basemark 0
AnchorPoint: "acute" 110 846 basemark 0
LayerCount: 2
Back
SplineSet
37.6640625 783.849609375 m 4
 37.6640625 798.604492188 56.109375 815.204101562 72.708984375 815.204101562 c 4
 105.90625 815.204101562 122.505859375 789.383789062 133.571289062 758.029296875 c 4
 139.104492188 741.4296875 164.924804688 704.541992188 179.680664062 700.853515625 c 4
 190.74609375 697.1640625 201.813476562 662.122070312 201.813476562 649.211914062 c 4
 201.813476562 628.923828125 170.458984375 616.013671875 150.169921875 616.013671875 c 4
 94.841796875 616.013671875 37.6640625 726.674804688 37.6640625 783.849609375 c 4
87.4638671875 20.2880859375 m 0
 87.4638671875 46.109375 81.9296875 86.6845703125 81.9296875 116.193359375 c 0
 76.396484375 280.342773438 70.8642578125 379.936523438 63.486328125 416.82421875 c 0
 61.6416015625 426.045898438 59.796875 438.955078125 59.796875 451.866210938 c 0
 59.796875 483.219726562 80.0859375 501.663085938 105.90625 501.663085938 c 0
 135.416992188 501.663085938 148.326171875 461.087890625 152.016601562 414.978515625 c 0
 161.237304688 322.76171875 164.924804688 243.454101562 166.76953125 177.057617188 c 0
 166.76953125 138.326171875 168.615234375 114.349609375 174.147460938 106.971679688 c 0
 177.836914062 103.284179688 188.90234375 46.109375 188.90234375 31.353515625 c 0
 188.90234375 12.9111328125 139.104492188 7.3779296875 120.661132812 7.3779296875 c 0
 98.529296875 7.3779296875 87.4638671875 11.0654296875 87.4638671875 20.2880859375 c 0
EndSplineSet
Fore
Refer: 271 775 N 1 0 0 1 356 -262 2
Refer: 272 305 N 1 0 0 1 0 0 3
Validated: 32769
EndChar
StartChar: j
Encoding: 106 106 222
Width: 238
VWidth: 1828
Flags: HMW
AnchorPoint: "cedilla" 102 -218 basemark 0
AnchorPoint: "ogonek" 128 -214 basemark 0
AnchorPoint: "acute" 106 844 basemark 0
LayerCount: 2
Fore
SplineSet
128 656 m 7
 106 656 68 714 44 742 c 4
 28 762 20 782 20 794 c 4
 20 816 50 836 82 836 c 7
 110 836 164 748 176 740 c 4
 186 734 192 722 192 700 c 7
 192 660 164 656 128 656 c 7
72 464 m 0
 72 496 72 542 94 542 c 3
 106 542 130 534 140 524 c 0
 148 516 154 484 156 416 c 0
 156 302 158 176 172 74 c 0
 180 20 194 -30 194 -80 c 0
 194 -160 176 -220 142 -254 c 0
 132 -264 112 -268 94 -268 c 3
 40 -268 -18 -238 -50 -228 c 0
 -82 -218 -96 -198 -96 -174 c 0
 -96 -152 -74 -142 -54 -142 c 0
 -26 -142 34 -178 66 -178 c 0
 104 -178 108 -142 108 -96 c 0
 108 -42 100 -20 90 74 c 0
 80 192 72 370 72 464 c 0
EndSplineSet
Validated: 1
EndChar
StartChar: k
Encoding: 107 107 223
Width: 546
VWidth: 1828
Flags: MW
AnchorPoint: "cedilla" 292 10 basemark 0
AnchorPoint: "ogonek" 492 36 basemark 0
AnchorPoint: "acute" 242 916.344 basemark 0
LayerCount: 2
Fore
SplineSet
78 884 m 3
 114 884 118 862 118 804 c 3
 118 758 120 724 126 692 c 0
 136 636 140 454 146 388 c 0
 152 334 150 316 152 298 c 1
 172 310 224 346 234 356 c 0
 254 376 292 404 304 422 c 0
 314 434 406 500 420 500 c 0
 438 500 444 492 444 470 c 0
 444 438 436 446 404 410 c 0
 384 386 328 328 290 292 c 0
 264 268 224 238 208 224 c 1
 226 206 268 162 314 130 c 0
 338 118 392 84 416 78 c 0
 426 74 442 74 464 74 c 0
 488 74 490 74 504 74 c 0
 518 74 532 62 532 48 c 0
 532 34 518 16 506 10 c 0
 490 4 454 -10 434 -10 c 0
 430 -10 420 -10 400 -8 c 0
 332 4 266 34 204 86 c 0
 184 102 166 112 160 116 c 1
 160 106 160 92 162 80 c 0
 164 62 176 44 176 34 c 0
 176 4 138 -10 116 -10 c 0
 90 -10 76 2 74 32 c 0
 72 68 72 82 72 100 c 0
 72 110 68 162 66 260 c 0
 64 410 50 472 50 632 c 0
 50 642 32 784 32 826 c 3
 32 850 46 884 78 884 c 3
EndSplineSet
Validated: 1
EndChar
StartChar: l
Encoding: 108 108 224
Width: 298
VWidth: 1828
Flags: HMW
AnchorPoint: "cedilla" 172 28 basemark 0
AnchorPoint: "ogonek" 258 52 basemark 0
AnchorPoint: "acute" 106 974 basemark 0
LayerCount: 2
Fore
SplineSet
242 86 m 3
 262 86 290 82 290 62 c 0
 290 52 282 36 258 18 c 0
 244 8 222 -6 204 -12 c 0
 194 -16 188 -16 186 -16 c 0
 176 -16 162 -14 146 -4 c 0
 122 8 112 22 106 28 c 0
 90 44 78 76 72 116 c 0
 68 148 66 298 68 438 c 0
 70 622 70 728 70 890 c 0
 70 916 80 926 110 926 c 0
 126 926 146 916 152 898 c 0
 156 888 152 734 154 612 c 0
 156 488 146 386 148 346 c 0
 152 200 146 118 178 80 c 0
 184 72 194 70 204 70 c 0
 210 70 226 86 242 86 c 3
EndSplineSet
Validated: 33
EndChar
StartChar: m
Encoding: 109 109 225
Width: 860
VWidth: 1828
UnlinkRmOvrlpSave: 1
Flags: HMW
AnchorPoint: "cedilla" 429 113 basemark 0
AnchorPoint: "ogonek" 799 33 basemark 0
AnchorPoint: "acute" 434 568 basemark 0
LayerCount: 2
Fore
SplineSet
148.86328125 36.162109375 m 1
 111.638671875 -7.576171875 l 1
 88.177734375 -8.2705078125 68.595703125 10.185546875 67.900390625 33.646484375 c 0
 61.44921875 251.513671875 50.5859375 375.221679688 35.4658203125 468.01953125 c 0
 33.52734375 479.912109375 31.0771484375 488.993164062 31.0771484375 503.01953125 c 0
 31.0771484375 518.85546875 43.09765625 537.686523438 69.5234375 537.686523438 c 0
 93.2490234375 537.686523438 114.227539062 521.997070312 117.443359375 498.748046875 c 0
 128.939453125 415.629882812 152.358398438 237.194335938 148.86328125 36.162109375 c 1
111.638671875 -7.576171875 m 1
 133.353515625 151.19921875 l 1
 155.258789062 195.661132812 179.682617188 248.268554688 204.712890625 299.001953125 c 0
 238.295898438 367.069335938 296.543945312 475.575195312 326.315429688 504.671875 c 0
 341.076171875 519.09765625 360.930664062 530.880859375 386.727539062 530.880859375 c 1
 378.15234375 428.376953125 l 1
 371.01953125 422.083984375 360.752929688 410.08984375 349.869140625 394.326171875 c 0
 328.1015625 362.798828125 303.290039062 316.552734375 278.87890625 267.2734375 c 0
 254.46875 217.994140625 230.217773438 165.5390625 207.6015625 119.634765625 c 0
 184.986328125 73.73046875 165.48046875 35.4130859375 143.41015625 8.158203125 c 0
 135.010742188 -2.21484375 124.022460938 -7.578125 111.638671875 -7.576171875 c 1
435.935546875 156.126953125 m 2
 423.8046875 72.53125 l 1
 398.360351562 72.53125 374.642578125 90.3232421875 363.716796875 109.25 c 0
 352.791015625 128.176757812 349.54296875 147.237304688 347.634765625 167.36328125 c 0
 343.818359375 207.616210938 347.879882812 253.837890625 352.2109375 299.4296875 c 0
 356.541992188 345.021484375 361.369140625 389.860351562 361.318359375 419.375 c 1
 386.727539062 530.880859375 l 1
 400.625 530.880859375 416.5 524.391601562 426.258789062 515.08203125 c 0
 436.018554688 505.7734375 440.708984375 495.629882812 443.799804688 486.482421875 c 0
 449.982421875 468.189453125 446.28515625 438.592773438 446.318359375 419.521484375 c 0
 446.384765625 381.379882812 441.068359375 336.006835938 436.830078125 291.390625 c 0
 432.591796875 246.774414062 429.658203125 202.7890625 432.255859375 175.384765625 c 0
 433.147460938 165.979492188 434.71875 160.010742188 435.935546875 156.126953125 c 2
737.166015625 561.650390625 m 1
 736.26953125 472.650390625 l 1
 727.447265625 465.345703125 l 2
 719.206054688 456.653320312 705.936523438 443.739257812 692.76953125 426.16015625 c 0
 666.436523438 391.001953125 633.983398438 349.40625 605.181640625 298.748046875 c 0
 576.380859375 248.08984375 549.252929688 193.497070312 522.794921875 153.576171875 c 0
 509.56640625 133.615234375 497.103515625 116.42578125 483.525390625 102.236328125 c 0
 469.947265625 88.046875 455.368164062 71.197265625 423.8046875 72.53125 c 1
 422.111328125 161.001953125 l 1
 429.346679688 168.5625 440.139648438 182.724609375 451.94140625 200.533203125 c 0
 475.545898438 236.149414062 510.0625 294.481445312 539.69140625 345.4609375 c 0
 569.321289062 396.440429688 597.966796875 448.124023438 628.736328125 489.115234375 c 0
 655.391601562 524.624023438 691.73828125 561.650390625 737.166015625 561.650390625 c 1
737.166015625 561.611328125 m 1
 756.2890625 560.802734375 773.37109375 547.53125 780.494140625 536.951171875 c 0
 787.6171875 526.37109375 790.3984375 516.990234375 792.751953125 507.388671875 c 0
 797.458984375 488.185546875 799.055664062 467.23828125 800 442.82421875 c 0
 801.888671875 393.995117188 799.89453125 332.64453125 799.080078125 272.404296875 c 0
 798.266601562 212.1640625 798.833984375 152.791992188 804.291015625 113.64453125 c 0
 806.397460938 98.53515625 813.17578125 77.427734375 819.826171875 75.7275390625 c 0
 835.504882812 71.71875 848.006835938 66.9501953125 848.006835938 44.7998046875 c 0
 848.006835938 21.328125 828.923828125 -3.2744140625 805.061523438 -3.21875 c 0
 774.79296875 -3.1484375 755.52734375 6.8642578125 739.15234375 35.078125 c 0
 727.408203125 55.314453125 723.540039062 77.2744140625 720.10546875 101.908203125 c 0
 713.237304688 151.17578125 713.260742188 212.298828125 714.087890625 273.552734375 c 0
 714.916015625 334.806640625 714.749023438 395.951171875 713.0625 439.5390625 c 0
 712.23828125 460.862304688 710.264648438 478.170898438 708.32421875 486.482421875 c 1
 737.166015625 561.611328125 l 1
EndSplineSet
EndChar
StartChar: n
Encoding: 110 110 226
Width: 578
VWidth: 1828
Flags: MW
AnchorPoint: "cedilla" 316 32 basemark 0
AnchorPoint: "ogonek" 478 34 basemark 0
AnchorPoint: "acute" 280 598 basemark 0
LayerCount: 2
Fore
SplineSet
182 32 m 0
 174 6 158 -14 126 -14 c 3
 110 -14 100 20 92 74 c 0
 84 128 68 280 68 370 c 0
 68 444 70 472 60 480 c 0
 54 484 48 488 48 496 c 0
 50 526 86 568 114 566 c 0
 122 566 126 560 134 554 c 0
 150 536 148 514 150 440 c 0
 150 422 158 266 160 244 c 1
 184 318 218 384 258 456 c 0
 292 518 312 544 404 544 c 3
 484 544 510 506 510 302 c 3
 510 232 508 110 510 98 c 0
 514 74 530 58 530 36 c 3
 530 0 508 -10 470 -8 c 0
 436 -6 426 16 422 42 c 0
 420 60 416 110 418 124 c 0
 422 180 422 300 422 324 c 3
 422 418 420 452 380 452 c 3
 360 452 338 418 320 382 c 0
 280 302 224 184 182 32 c 0
EndSplineSet
Validated: 33
EndChar
StartChar: o
Encoding: 111 111 246
Width: 528
VWidth: 1828
Flags: MW
AnchorPoint: "cedilla" 274 20 basemark 0
AnchorPoint: "ogonek" 348 44 basemark 0
AnchorPoint: "acute" 266 574 basemark 0
LayerCount: 2
Fore
SplineSet
394 417 m 0
 362 453 354 463 302 463 c 3
 220 463 180 439 148 367 c 0
 138 347 134 307 134 271 c 3
 134 193 152 147 188 105 c 0
 208 81 222 71 238 71 c 3
 260 71 286 91 322 123 c 0
 362 157 388 189 400 217 c 0
 410 235 412 281 412 319 c 3
 412 365 404 405 394 417 c 0
286 544 m 3
 446 544 490 484 490 324 c 3
 490 276.440802557 489.052985115 221.449115622 471 182 c 0
 457.156752727 151.749941144 419.205835534 98.0236587393 372 56.791015625 c 0
 327.137242193 17.6049687973 292.037722425 -10 239 -10 c 3
 177.9921875 -10 120.685564472 32.9974275026 87 97 c 0
 69 129 46 212 46 322 c 3
 46 376 62 416 90 448 c 0
 142 508 184 544 286 544 c 3
EndSplineSet
Validated: 1
EndChar
StartChar: p
Encoding: 112 112 227
Width: 584
VWidth: 1828
Flags: MWO
AnchorPoint: "cedilla" 316 32 basemark 0
AnchorPoint: "ogonek" 446 76 basemark 0
AnchorPoint: "acute" 304 578 basemark 0
LayerCount: 2
Fore
SplineSet
38 534 m 3
 38 556 46 574 70 574 c 3
 106 574 118 560 128 526 c 0
 140 480 146 438 146 366 c 1
 166 484 212 540 268 540 c 3
 340 540 402 510 448 464 c 0
 522 390 562 306 562 252 c 3
 562 202 546 158 506 106 c 0
 460 48 400 -6 320 -6 c 0
 298 -6 274 12 254 32 c 0
 246 40 238 46 238 68 c 0
 238 92 246 96 274 96 c 3
 298 96 304 76 334 76 c 3
 374 76 398 104 420 124 c 0
 444 146 484 216 484 252 c 3
 484 276 460 332 416 376 c 0
 358 434 304 444 274 444 c 3
 256 444 246 420 230 354 c 0
 220 312 170 134 170 46 c 0
 170 -90 172 -194 172 -230 c 3
 172 -284 150 -310 132 -310 c 3
 98 -310 84 -270 84 -226 c 0
 84 -130 82 -40 76 52 c 0
 72 110 62 298 62 372 c 0
 62 416 56 452 48 480 c 0
 42 504 38 522 38 534 c 3
EndSplineSet
Validated: 1
EndChar
StartChar: r
Encoding: 114 114 249
Width: 473
VWidth: 1828
UnlinkRmOvrlpSave: 1
Flags: HMW
AnchorPoint: "cedilla" 123.275 14 basemark 0
AnchorPoint: "ogonek" 121.275 33 basemark 0
AnchorPoint: "acute" 254.275 608 basemark 0
LayerCount: 2
Fore
SplineSet
281.1171875 556.2890625 m 0
 332.040039062 557.916015625 406.872070312 531.86328125 433.331054688 531.86328125 c 0
 457.095703125 531.86328125 473 522.064453125 473 498.591796875 c 0
 473 470.681640625 458.41015625 449.340820312 427.170898438 449.434570312 c 0
 383.500976562 449.565429688 324.719726562 469.717773438 287.837890625 470.943359375 c 1
 240.162109375 340.400390625 194.030273438 197.416015625 162.53125 46.017578125 c 0
 157.75 23.037109375 143.389648438 -7.9169921875 121.436523438 -6.34765625 c 0
 98.0234375 -4.673828125 85.3642578125 49.7080078125 89.4375 72.82421875 c 0
 111.868164062 200.138671875 157.922851562 355.467773438 204.228515625 481.885742188 c 0
 220.170898438 525.409179688 240.47265625 554.990234375 281.1171875 556.2890625 c 0
79.275390625 554.359375 m 0
 122.22265625 554.359375 141.395507812 534.794921875 134.3046875 503.4921875 c 0
 116.19140625 423.53125 126.196289062 246.928710938 155.127929688 84.572265625 c 0
 159.24609375 61.4638671875 145.224609375 -6.34765625 121.436523438 -6.34765625 c 0
 97.9638671875 -6.34765625 84.490234375 18.91796875 79.154296875 41.775390625 c 0
 39.369140625 212.208984375 32.4130859375 421.081054688 48.42578125 509.021484375 c 0
 51.5048828125 525.932617188 55.181640625 554.359375 79.275390625 554.359375 c 0
EndSplineSet
EndChar
StartChar: s
Encoding: 115 115 228
Width: 428
VWidth: 1828
Flags: HMW
AnchorPoint: "cedilla" 214 24 basemark 0
AnchorPoint: "ogonek" 336 42 basemark 0
AnchorPoint: "acute" 221 600 basemark 0
LayerCount: 2
Fore
SplineSet
258 554 m 3
 296.013155617 554 343.999152003 535.999190517 365 514 c 0
 373.052734375 505.564453125 379 494 379 470 c 3
 379 442 355 398 325 398 c 3
 303 398 285 418 285 428 c 3
 285 436 295 448 295 460 c 0
 295 470 283 476 253 476 c 3
 225 476 207 466 172 440 c 0
 139.491210938 415.850585938 133 404.165039062 133 392 c 3
 133 346 183.843397726 310.765494177 212 290 c 0
 292 231 346 162 368 125 c 0
 374.545051525 113.992413344 382 87 382 77 c 3
 382 45 362 20 316 6 c 0
 279.696778718 -5.04880647706 236 -10 198 -10 c 0
 174 -10 150 -8 122 0 c 0
 84 10 64 23.9791757011 64 48 c 3
 64 76 78 90 106 90 c 3
 138 90 146 74 218 74 c 3
 256 74 280 83 290 90 c 1
 262 152 208 187 139 246 c 0
 100.305406889 279.086681066 46 318 46 396 c 3
 46 426.842411814 60.845703125 464.23046875 128 509 c 0
 173 539 201.609549521 554 258 554 c 3
EndSplineSet
Validated: 1
EndChar
StartChar: t
Encoding: 116 116 229
Width: 550
VWidth: 1828
Flags: MW
AnchorPoint: "cedilla" 366 32 basemark 0
AnchorPoint: "ogonek" 480 82 basemark 0
AnchorPoint: "acute" 292 916 basemark 0
LayerCount: 2
Fore
SplineSet
96 540 m 4
 102 540 146 542 174 548 c 5
 174 566 176 562 176 594 c 4
 176 644 180 700 184 764 c 4
 188 838 184 866 210 866 c 4
 246 866 268 860 268 810 c 4
 268 768 262 730 256 642 c 4
 254 616 256 590 256 562 c 5
 258 562 354 576 380 584 c 4
 406 592 424 596 456 596 c 4
 476 596 502 586 502 568 c 4
 502 558 492 540 476 530 c 4
 450 514 414 510 382 502 c 4
 344 492 300 486 256 480 c 5
 256 470 256 396 256 386 c 7
 256 232 260 140 286 104 c 4
 308 72 346 72 370 72 c 4
 408 72 452 116 456 122 c 4
 460 128 460 134 470 134 c 4
 492 134 524 108 524 86 c 4
 524 74 498 46 488 38 c 4
 440 0 430 -14 346 -14 c 4
 218 -14 180 104 178 246 c 4
 178 288 172 382 172 460 c 5
 118 450 86 444 66 444 c 7
 46 444 24 458 24 490 c 7
 24 522 40 542 72 542 c 4
 82 542 90 540 96 540 c 4
EndSplineSet
Validated: 33
EndChar
StartChar: u
Encoding: 117 117 252
Width: 560
VWidth: 1828
Flags: HMW
AnchorPoint: "cedilla" 278 32 basemark 0
AnchorPoint: "ogonek" 498 32 basemark 0
AnchorPoint: "acute" 276 592 basemark 0
LayerCount: 2
Fore
SplineSet
316 212 m 0
 342 272 358 314 372 354 c 0
 398 426 402 474 404 502 c 0
 406 530 406 544 408 546 c 0
 410 548 420 550 436 550 c 3
 452 550 464 542 472 534 c 0
 480 526 484 510 484 482 c 0
 484 454 480 418 476 374 c 0
 470 320 468 268 468 168 c 0
 468 124 474 86 490 86 c 3
 504 86 518 100 528 100 c 3
 542 100 546 84 546 62 c 3
 546 16 498 2 466 2 c 3
 450 2 436 6 426 16 c 0
 396 40 392 116 386 170 c 1
 332 36 276 -2 216 -2 c 3
 163.129704766 -2 125.732477957 21.5001286512 99.7457870051 60.9999966581 c 0
 58.5011942031 123.691932877 46 226.687575381 46 340 c 3
 46 394 50 482 62 528 c 0
 66 540 72 540 84 540 c 3
 100 540 134 532 134 522 c 0
 136 476 128 406 128 360 c 0
 128 274 133 226 140 192 c 0
 147.146597716 157.287953949 158 129 174 105 c 0
 184 91 200 86 214 86 c 3
 230 86 250 96 266 114 c 0
 282 132 296 164 316 212 c 0
EndSplineSet
Validated: 33
EndChar
StartChar: v
Encoding: 118 118 230
Width: 484
VWidth: 1828
Flags: MW
AnchorPoint: "cedilla" 260 34 basemark 0
AnchorPoint: "ogonek" 272 32 basemark 0
AnchorPoint: "acute" 256 620 basemark 0
LayerCount: 2
Fore
SplineSet
434 574 m 0
 462 574 466 558 466 530 c 0
 466 498 454 472 442 446 c 0
 424 408 400 356 378 286 c 0
 358 218 346 154 336 86 c 0
 328 46 302 -18 262 -18 c 3
 234 -18 198 18 166 68 c 4
 126 130 94 200 74 272 c 0
 58 326 46 368 46 480 c 0
 46 544 48 558 84 558 c 0
 104 558 118 548 124 532 c 0
 132 512 132 470 142 374 c 0
 150 272 198 170 252 108 c 1
 270 176 288 264 308 338 c 4
 330 420 356 462 380 532 c 0
 392 560 410 574 434 574 c 0
EndSplineSet
Validated: 1
EndChar
StartChar: w
Encoding: 119 119 231
Width: 682
VWidth: 1828
Flags: HMW
AnchorPoint: "cedilla" 332 26 basemark 0
AnchorPoint: "ogonek" 490 52 basemark 0
AnchorPoint: "acute" 334 568 basemark 0
LayerCount: 2
Fore
SplineSet
90.712890625 27.97265625 m 0
 63.537109375 60.2900390625 47.2421875 167.810546875 47.2421875 297.93359375 c 0
 47.2421875 497.522460938 56.8779296875 532.532226562 69.46484375 545.119140625 c 0
 74.3173828125 549.971679688 87.6044921875 553.921875 94.3203125 553.921875 c 0
 128.307617188 553.921875 141.09375 527.77734375 141.09375 519.2890625 c 0
 141.09375 497.844726562 128.537109375 440.120117188 128.537109375 301.381835938 c 0
 128.537109375 153.073242188 148.666992188 93.76953125 162.79296875 93.76953125 c 0
 179.374023438 93.76953125 209.959960938 115.811523438 243.450195312 188.467773438 c 0
 262.447265625 229.68359375 278.317382812 286.239257812 286.688476562 342.555664062 c 0
 293.962890625 391.491210938 305.416015625 434.467773438 308.91796875 440.533203125 c 0
 314.708984375 450.563476562 323.147460938 457.887695312 335.217773438 457.887695312 c 0
 369.5703125 457.887695312 383.86328125 438.036132812 383.86328125 411.981445312 c 0
 383.86328125 399.948242188 367.590820312 326.474609375 367.590820312 283.391601562 c 0
 367.590820312 168.904296875 390.131835938 90.89453125 434.122070312 90.89453125 c 0
 453.395507812 90.89453125 478.798828125 112.0859375 500.466796875 151.767578125 c 0
 550.857421875 244.05078125 565.576171875 301.72265625 565.576171875 364.696289062 c 0
 565.576171875 414.817382812 552.17578125 457.971679688 515.268554688 447.928710938 c 0
 494.907226562 442.388671875 470.20703125 466.895507812 470.20703125 485.735351562 c 0
 470.20703125 524.887695312 497.754882812 549.520507812 542.314453125 549.520507812 c 0
 565.287109375 549.520507812 598.931640625 527.706054688 621.38671875 488.811523438 c 0
 636.654296875 462.3671875 648 426.041992188 648 368.095703125 c 0
 648 273.493164062 620.508789062 194.85546875 566.461914062 101.243164062 c 0
 519.924804688 20.6376953125 475.259765625 -1.978515625 434.596679688 -1.978515625 c 0
 368.619140625 -1.978515625 327.94921875 58.576171875 302.20703125 124.5703125 c 1
 293.774414062 106.154296875 274.3515625 67.0732421875 244.379882812 37.1025390625 c 0
 210.875 3.5966796875 184.2734375 -8.0615234375 160.517578125 -8.0615234375 c 0
 138.088867188 -8.0615234375 115.198242188 -1.1435546875 90.712890625 27.97265625 c 0
EndSplineSet
Validated: 33
EndChar
StartChar: x
Encoding: 120 120 232
Width: 554
VWidth: 1828
Flags: HMW
AnchorPoint: "cedilla" 288 32 basemark 0
AnchorPoint: "ogonek" 448 50 basemark 0
AnchorPoint: "acute" 276 564 basemark 0
LayerCount: 2
Fore
SplineSet
468 422 m 0
 416 368 381 311 337 255 c 1
 365 225 407 169 435 145 c 0
 457 125 477 113 485 103 c 0
 493 93 498 80 498 64 c 3
 498 54 488 36 476 24 c 0
 464 12 456 8 448 8 c 3
 420 8 382 57 356 89 c 0
 330 121 316 157 284 187 c 1
 246 135 212 78 192 32 c 0
 186 20 182 12 176 8 c 0
 170 4 160 2 148 2 c 0
 124 4 110 10 102 22 c 0
 98 30 96 36 96 44 c 0
 96 58 130 116 148 148 c 0
 168 182 204 222 224 250 c 1
 212 264 198 280 150 340 c 0
 102 400 70 432 60 434 c 0
 52 434 48 438 44 446 c 0
 36.9853515625 460.029296875 24 482.964020047 24 498 c 0
 26 508 32 514 40 522 c 0
 48 530 55.8019609728 530 66 530 c 3
 82.1245154966 530 100 520 114 508 c 0
 128 496 154 464 194 414 c 0
 240 356 266 338 276 324 c 1
 308 360 335 397 376 446 c 0
 413.020507812 490.244140625 425.575066174 513.443810659 436 523 c 0
 448 534 458 538 466 538 c 3
 488.705888613 538 530 515.199409233 530 498 c 3
 530 490 526 484 518 478 c 0
 486 446 486 442 468 422 c 0
EndSplineSet
Validated: 1
EndChar
StartChar: braceleft
Encoding: 123 123 116
Width: 458
VWidth: 1828
Flags: MW
LayerCount: 2
Fore
SplineSet
192 332 m 1
 258 291 297 285.197265625 297 172 c 4
 297 130 289.149414062 105.461914062 287 94 c 4
 284 78 268 11 268 -57 c 7
 268 -115 277.734375 -129.653320312 285 -146 c 4
 293 -164 307 -174 323 -174 c 7
 347 -174 348.982421875 -154 377 -154 c 7
 391 -154 403 -156 413 -162 c 4
 425 -172 432.786132812 -176.00390625 433 -182 c 4
 434 -210 367.202148438 -258 325 -258 c 7
 282.952148438 -258 248 -235 232 -219 c 4
 204.981445312 -191.981445312 190 -142 190 -80 c 4
 190 -48 192 -8 200 34 c 4
 212 116 217 164 217 176 c 4
 217 188 215 198 209 204 c 4
 199 214 196.83203125 222.083984375 147 247 c 0
 111 265 74.9999651492 277.999924491 62 284 c 0
 30.0146484375 298.762695312 20 314.970613634 20 332 c 3
 20 347.13274595 37.3443308152 360.17965086 60 372 c 0
 83 384 120.070064079 395.696815379 138 400 c 0
 163 406 181 420 188 432 c 1
 186 454 159.220099234 483.559801531 146 510 c 0
 136.324332775 529.35133445 122 576.984375 122 607 c 3
 122 654.775390625 145.796608105 710.694912157 164 738 c 0
 187.705292019 773.557938028 204.999883376 793.000093299 221 813 c 0
 253.677734375 853.846679688 291.928662305 886 332 886 c 3
 348 886 369.088057678 879.03283762 386 864 c 0
 409.226134885 843.354546769 432 820.527805748 432 796 c 0
 432 770.75704848 428.963825004 760 406 760 c 0
 388 760 370 768 352 780 c 0
 342 790 330 788 318 778 c 0
 300 766 284 756 276 746 c 0
 268 736 258 720 242 696 c 0
 216 656 204 626 204 604 c 3
 204 590 210 568 222 544 c 0
 256 480 276 455 276 435 c 3
 276 390.624326144 232.86425574 352.43212787 192 332 c 1
EndSplineSet
Validated: 33
EndChar
StartChar: bar
Encoding: 124 124 117
Width: 221
VWidth: 1828
Flags: MW
LayerCount: 2
Fore
SplineSet
112 870 m 0
 120 870 128 860 138 844 c 0
 148 828 156 808 162 788 c 0
 166 772 168 758 168 748 c 0
 168 738 164 720 158 696 c 0
 148 658 142 630 140 610 c 0
 138 596 136 536 136 430 c 0
 136 322 138 258 140 236 c 0
 154.110269537 85.490458277 160 20 168 -58 c 0
 172.693327813 -103.759946176 176 -146 188 -180 c 0
 198 -212 204 -228 204 -236 c 0
 204 -246 198 -256 186 -268 c 0
 174 -280 162 -288 152 -288 c 0
 136 -288 114.712009515 -277.114319697 106 -246 c 0
 99 -221 83 -127 76 -50 c 0
 71.3837890625 0.78125 66 90 62 210 c 0
 56.7335441817 310.062660547 54 365.48353988 54 466 c 0
 54 608.854396271 61 696 62 778 c 0
 62.5127373872 820.044465752 66 844 68 852 c 0
 70.7297585511 862.919034205 98.0738877132 870 112 870 c 0
EndSplineSet
Validated: 1
EndChar
StartChar: braceright
Encoding: 125 125 118
Width: 476
VWidth: 1828
Flags: MW
LayerCount: 2
Fore
SplineSet
60 858 m 0
 80.3364675121 867.296670863 98 872 110 872 c 3
 180.514876568 872 236.46305298 838.886447784 278 808 c 0
 317 779 334 689.822975424 334 648 c 3
 334 574.854492188 320.752368744 543.614679714 306 490 c 0
 300.067806036 468.440568774 294 444 294 416 c 0
 294 392 296 376 304 366 c 0
 324 342 350 330 380 330 c 0
 394.25581994 330 402.563580034 332 416 332 c 0
 450 332 468 324 468 310 c 0
 468 289.908956635 445.373111448 254.529833586 426 240 c 0
 396.55738276 217.91803707 329 123.231445312 329 80 c 3
 329 18 362 -24.3053613648 362 -107 c 3
 362 -162.347171045 335.368164062 -197.631835938 314 -219 c 0
 279.622070312 -253.377929688 203.511782778 -292 138 -292 c 0
 122 -292 102 -290 86 -282 c 0
 66 -274 56 -262 56 -246 c 0
 56 -236 58 -224 64 -214 c 0
 74 -198 83.8019609728 -192 94 -192 c 3
 109.13274595 -192 106.814354237 -202 150 -202 c 3
 194.70647658 -202 282 -153.227829908 282 -118 c 3
 282 -57.3037524094 246 21.2519220712 246 80 c 3
 246 147.611131932 300.64253739 217.363229405 331 256 c 1
 316 261 290 260 268 282 c 0
 234 316 216 346 216 378 c 0
 216 398 219.745117188 433.826171875 225 458 c 0
 244.646484375 548.375 257 590.99107214 257 647 c 3
 257 721.045898438 234.215817265 745.892091367 182 772 c 0
 166 780 137 791 123 791 c 3
 107 791 95 789 85 779 c 0
 75 769 69 767 63 767 c 3
 57 767 52 766 38 776 c 0
 24 786 22 796 22 812 c 3
 22 835.021728866 25 842 60 858 c 0
EndSplineSet
Validated: 1
EndChar
StartChar: asciitilde
Encoding: 126 126 119
Width: 490
VWidth: 1828
Flags: MW
LayerCount: 2
Fore
SplineSet
158 406 m 0
 162 408 166 410 176 410 c 0
 192 410 211.889648438 404.110351562 230 386 c 0
 254 362 279.9453125 316.311523438 314 278 c 0
 330 260 344 250 354 250 c 3
 370.052734375 250 390.922851562 296.922851562 400 306 c 0
 412 320 428 324 440 316 c 0
 452 308 460 296 460 276 c 3
 460 261.857421875 441.635742188 234.043945312 416 202 c 0
 392 172 371.854492188 164 342 164 c 3
 325.875 164 304 178 292 190 c 0
 240.048828125 237.43359375 201 316 186 316 c 3
 180 316 168 308 148 288 c 0
 108.6015625 248.6015625 104 238 86 230 c 0
 66.9189453125 221.51953125 52 226 44 236 c 0
 34 246 32 262 32 278 c 3
 32 299.212890625 96.7041015625 371.673828125 158 406 c 0
EndSplineSet
Validated: 33
EndChar
StartChar: exclamdown
Encoding: 161 161 120
Width: 222
VWidth: 1828
Flags: MW
LayerCount: 2
Fore
SplineSet
72 474 m 0
 90 482 108 482 124 472 c 0
 142 462 150 446 150 426 c 0
 150 414 146 404 138 394 c 0
 130 384 118 378 106 378 c 0
 82 378 66 392 54 416 c 0
 48 426 46 430 46 440 c 0
 46 454 56 466 72 474 c 0
104 202 m 0
 124 202 138 198 144 188 c 0
 150 178 152 128 162 28 c 4
 172 -78 188 -250 188 -274 c 3
 188 -306 168 -336 136 -336 c 0
 118 -336 106 -328 96 -312 c 0
 90 -302 80 -282 80 -244 c 0
 80 -186 78 -80 72 24 c 24
 70 76 68 100 68 154 c 3
 68 190 82 202 104 202 c 0
EndSplineSet
Validated: 33
EndChar
StartChar: cent
Encoding: 162 162 121
Width: 528
VWidth: 1828
Flags: MW
LayerCount: 2
Fore
SplineSet
300 110 m 1
 302 158 302 240 302 322 c 27
 302 396 304 514 304 514 c 1
 286 522 264 522 240 522 c 0
 206 522 178 508 162 470 c 0
 150 430 136 396 136 336 c 3
 136 282 144 244 160 212 c 0
 172 188 190 168 208 152 c 0
 230 132 276 114 300 110 c 1
332 792 m 0
 338 798 346 800 362 800 c 0
 376 800 388 800 398 794 c 0
 404 790 404 784 404 774 c 0
 404 770 404 758 402 736 c 0
 400 718 394 628 394 576 c 1
 404 572 416 556 426 546 c 0
 444 524 452 520 452 500 c 0
 452 480 448 468 422 468 c 0
 410 468 398 474 390 482 c 1
 390 468 388 448 388 428 c 0
 384 290 384 202 384 168 c 0
 384 140 384 128 384 118 c 1
 398 124 408 132 418 142 c 0
 430 152 446 158 470 158 c 0
 500 158 510 146 510 136 c 0
 510 128 494 110 464 78 c 0
 442 54 416 38 386 24 c 1
 386 18 386 -16 386 -40 c 24
 386 -76 388 -134 388 -134 c 3
 388 -162 380 -174 364 -174 c 0
 354 -174 350 -170 340 -160 c 0
 330 -150 324 -132 316 -102 c 0
 308 -72 306 -58 304 -30 c 0
 302 -12 302 0 302 16 c 1
 280 22 260 30 214 44 c 0
 188 54 164 70 136 98 c 0
 108 126 86 158 70 192 c 0
 54 224 46 272 46 328 c 3
 46 414 66 486 88 524 c 0
 108 558 144 586 176 592 c 0
 206 598 232 602 254 602 c 0
 272 602 294 600 306 596 c 1
 306 660 306 672 316 736 c 0
 322 768 326 786 332 792 c 0
EndSplineSet
Validated: 1
EndChar
StartChar: sterling
Encoding: 163 163 122
Width: 696
VWidth: 1828
Flags: MW
LayerCount: 2
Fore
SplineSet
210 138 m 1
 196 142 150 124 150 98 c 27
 150 86 156 76 170 76 c 3
 186 76 210 118 210 138 c 1
398 896 m 3
 430 896 446 892 478 880 c 0
 528 860 566 820 566 778 c 3
 566 752 562 738 554 738 c 3
 544 738 532 752 508 778 c 0
 476 812 442 828 410 828 c 0
 380 828 352 814 322 784 c 0
 284 746 258 656 258 594 c 0
 258 548 280 488 298 460 c 1
 308 460 422 462 460 462 c 3
 524 462 538 450 538 406 c 3
 538 396 532 390 522 388 c 0
 512 386 488 384 456 384 c 2
 318 382 l 1
 326 308 316 266 296 192 c 1
 296 192 338 178 362 160 c 24
 392 140 418 102 426 96 c 0
 458 64 480 54 534 54 c 3
 572 54 600 58 614 68 c 0
 638 86 652 94 668 94 c 0
 672 94 676 92 678 90 c 0
 680 88 682 80 682 70 c 0
 682 42 678 22 668 10 c 0
 650 -16 588 -26 550 -26 c 3
 476 -26 390 14 354 54 c 0
 328 84 314 96 274 118 c 1
 270 98 246 42 222 24 c 0
 212 16 196 12 172 12 c 3
 140 12 122 18 112 28 c 0
 102 38 84 58 84 90 c 3
 84 132 112 164 128 178 c 0
 154 200 186 208 228 206 c 1
 240 248 248 328 238 386 c 1
 166 384 188 386 136 386 c 3
 90 386 60 388 48 394 c 0
 36 400 30 412 30 428 c 0
 30 442 32 450 38 450 c 0
 54 454 84 456 144 458 c 0
 164 458 180 458 216 458 c 1
 210 470 200 494 194 522 c 0
 190 544 190 568 190 600 c 0
 190 666 204 710 216 738 c 0
 238 790 252 816 268 832 c 0
 306 870 334 896 398 896 c 3
EndSplineSet
Validated: 33
EndChar
StartChar: yen
Encoding: 165 165 123
Width: 778
VWidth: 1828
Flags: MW
LayerCount: 2
Fore
SplineSet
288 318 m 3
 312 318 358 326 370 330 c 0
 414 340 440 346 470 352 c 1
 470 356 470 382 468 384 c 1
 434 376 424 378 354 362 c 0
 286 346 238 330 228 324 c 1
 238 322 262 318 288 318 c 3
534 120 m 0
 524 66 496 24 450 10 c 0
 426 2 402 0 372 0 c 0
 358 0 348 0 340 2 c 0
 300 8 270 18 256 30 c 0
 242 42 230 80 230 118 c 3
 230 138 238 166 250 166 c 3
 270 166 284 156 312 98 c 0
 322 78 346 72 370 72 c 3
 404 72 416 84 430 96 c 0
 440 106 452 116 462 142 c 0
 472 168 472 196 472 224 c 0
 472 248 472 256 472 270 c 1
 430 264 430 258 354 246 c 0
 320 240 288 238 256 238 c 0
 200 238 166 250 160 276 c 0
 156 290 160 300 162 304 c 1
 124 294 104 304 104 324 c 3
 104 336 112 352 132 364 c 0
 152 376 172 386 188 392 c 0
 228 402 284 420 358 444 c 0
 388 454 410 458 430 458 c 0
 440 458 458 464 468 466 c 1
 464 502 466 536 468 562 c 0
 472 604 470 624 478 656 c 17
 450 620 428 594 356 522 c 0
 316 482 288 462 276 456 c 0
 244 442 222 434 208 434 c 0
 188 434 168 450 150 484 c 0
 118 544 116 590 92 680 c 0
 78 734 52 828 34 842 c 0
 26 848 24 854 24 862 c 0
 24 870 26 874 34 882 c 0
 44 892 56 896 72 896 c 0
 110 896 112 864 128 810 c 0
 152 736 162 704 168 682 c 0
 174 662 176 642 186 622 c 0
 196 602 210 510 228 510 c 3
 238 510 276 534 326 588 c 0
 364 630 414 688 428 712 c 0
 444 738 466 778 482 842 c 0
 488 866 490 886 490 902 c 0
 490 934 496 952 516 952 c 0
 554 952 574 910 574 870 c 0
 574 838 570 830 560 728 c 0
 552 648 546 594 544 574 c 0
 542 544 542 500 542 480 c 1
 586 486 620 486 646 486 c 3
 694 486 724 482 734 472 c 0
 744 462 748 456 748 448 c 0
 748 438 740 426 728 410 c 0
 712 390 694 380 678 380 c 0
 670 380 666 384 666 390 c 0
 666 400 632 410 614 410 c 0
 580 410 568 408 542 398 c 1
 542 388 544 364 544 360 c 1
 610 368 658 366 706 356 c 0
 728 352 740 342 740 310 c 3
 740 284 736 268 722 268 c 3
 682 268 670 282 618 282 c 3
 594 282 572 282 548 280 c 1
 542 224 544 172 534 120 c 0
EndSplineSet
Validated: 33
EndChar
StartChar: section
Encoding: 167 167 124
Width: 558
VWidth: 1828
Flags: MW
LayerCount: 2
Fore
SplineSet
392 452 m 0
 364 470 324 486 276 508 c 1
 246 488 202 430 180 398 c 0
 164 374 154 352 148 328 c 0
 144 316 142 300 142 286 c 0
 142 256 148 234 158 222 c 0
 168 210 184 194 208 184 c 0
 232 174 300 160 316 160 c 1
 352 184 376 204 396 220 c 0
 426 244 450 290 450 340 c 0
 450 364 448 384 438 400 c 0
 434 408 424 430 392 452 c 0
262 864 m 0
 278 874 298 876 318 876 c 0
 338 876 390 860 402 850 c 0
 414 840 422 828 422 812 c 0
 422 802 422 796 418 794 c 0
 414 792 398 790 388 790 c 3
 372 790 374 800 328 800 c 3
 284 800 234 730 234 678 c 0
 234 658 240 638 250 622 c 0
 266 598 302 586 354 564 c 0
 362 560 384 548 404 530 c 0
 424 512 444 496 460 480 c 0
 476 464 488 448 498 436 c 0
 520 404 522 386 522 348 c 0
 522 298 510 254 500 236 c 0
 482 204 442 158 402 134 c 1
 418 130 442 118 454 104 c 0
 470 82 488 62 498 42 c 0
 510 14 512 4 512 -26 c 3
 512 -54 496 -92 486 -108 c 0
 476 -126 454 -144 422 -154 c 0
 390 -164 362 -170 330 -170 c 3
 292 -170 250 -160 250 -130 c 0
 250 -106 252 -88 280 -88 c 3
 300 -88 294 -94 364 -94 c 3
 400 -94 420 -62 420 -16 c 3
 420 20 412 38 380 54 c 0
 358 64 338 70 324 72 c 0
 248 78 232 86 208 96 c 0
 118 128 68 170 58 222 c 0
 50 258 46 286 46 306 c 3
 46 352 86 414 106 448 c 0
 128 484 156 520 192 552 c 1
 186 558 178 568 168 580 c 0
 152 598 144 626 144 662 c 0
 144 738 166 746 192 792 c 0
 212 824 234 850 262 864 c 0
EndSplineSet
Validated: 1
EndChar
StartChar: ordfeminine
Encoding: 170 170 126
Width: 564
VWidth: 1828
Flags: MW
LayerCount: 2
Fore
SplineSet
350 552 m 0
 340 568 302 576 282 576 c 3
 252 576 200 556 190 532 c 0
 182 512 180 504 180 494 c 3
 180 478 184 470 204 470 c 3
 236 470 256 478 270 486 c 0
 292 496 316 512 338 512 c 0
 344 512 356 510 362 508 c 1
 362 522 360 538 350 552 c 0
250 868 m 0
 260 870 268 872 278 872 c 0
 314 872 344 864 366 848 c 0
 436 798 478 756 478 666 c 3
 478 634 478 606 476 588 c 0
 474 562 466 544 464 532 c 0
 460 512 446 492 434 466 c 0
 422 442 400 434 384 438 c 1
 374 430 354 422 304 406 c 0
 252 390 214 380 186 380 c 0
 172 380 158 382 148 386 c 0
 138 388 126 398 112 418 c 0
 92 446 88 464 88 494 c 3
 88 528 106 572 138 604 c 0
 158 624 176 636 192 644 c 0
 220 654 248 660 280 660 c 0
 310 660 330 658 358 646 c 0
 374 638 394 622 400 614 c 1
 400 638 402 642 402 656 c 0
 402 676 400 686 394 700 c 0
 384 724 372 744 350 758 c 0
 328 772 306 780 284 780 c 0
 268 780 250 774 238 764 c 0
 228 754 216 748 204 748 c 0
 186 748 152 766 152 788 c 0
 152 802 162 814 168 816 c 0
 174 818 184 826 204 842 c 0
 222 858 238 866 250 868 c 0
412 144 m 7
 468 144 502 144 512 138 c 4
 522 132 530 124 530 114 c 4
 530 104 522 90 512 78 c 4
 504 68 498 62 488 60 c 4
 478 58 454 56 416 56 c 7
 372 56 258 48 212 40 c 4
 132 28 100 10 90 10 c 4
 82 10 74 18 64 34 c 4
 54 50 46 64 46 74 c 4
 46 86 50 94 60 98 c 4
 70 102 92 108 134 116 c 4
 202 128 318 144 412 144 c 7
EndSplineSet
Validated: 2081
EndChar
StartChar: guillemotleft
Encoding: 171 171 3
Width: 546
VWidth: 1828
Flags: MW
LayerCount: 2
Fore
SplineSet
70 350 m 0
 106 394 124 414 166 450 c 0
 190 472 206 494 236 494 c 3
 256 494 266 480 266 452 c 3
 266 426 208 394 168 358 c 0
 132 324 100 282 92 268 c 1
 102 254 146 206 160 196 c 0
 186 180 220 150 246 144 c 0
 258 140 276 126 276 98 c 3
 276 76 240 60 230 60 c 3
 220 60 202 72 168 90 c 0
 134 108 110 124 100 136 c 0
 68 168 62 164 48 190 c 0
 34 216 28 242 28 266 c 3
 28 298 36 308 70 350 c 0
408 418 m 0
 418 430 432 438 446 438 c 3
 460 438 470 430 476 414 c 0
 482 404 482 396 482 392 c 3
 482 388 476 384 468 378 c 0
 462 372 448 360 420 336 c 0
 412 330 402 322 388 310 c 0
 374 298 364 290 362 288 c 0
 348 274 340 266 336 262 c 1
 340 258 348 248 362 234 c 0
 386 210 398 204 404 200 c 0
 432 184 456 168 486 168 c 0
 518 168 532 158 532 138 c 3
 532 106 504 96 472 96 c 0
 418 96 352 138 326 158 c 0
 282 192 260 218 252 240 c 0
 248 248 246 254 246 262 c 3
 246 298 284 322 338 360 c 0
 374 388 398 408 408 418 c 0
EndSplineSet
Validated: 1
EndChar
StartChar: logicalnot
Encoding: 172 172 1070
Width: 619
VWidth: 2000
Flags: W
HStem: 266 78<41.7479 356.394> 276 80<217.472 463.279>
VStem: 464 89<63.3189 272.359>
LayerCount: 2
Fore
SplineSet
112 344 m 0xa0
 200 346 266 353 354 356 c 0
 405 358 461 368 507 368 c 0
 527 368 539 341 546 322 c 0
 555 297 553 211 553 144 c 0
 553 115 557 66 550 56 c 0
 541 44 531 35 518 35 c 0
 497 35 490 57 481 72 c 0
 451.243164062 118.288085938 466.8515625 213.965820312 464 271 c 1
 449 275 410.009765625 276 391 276 c 3x60
 333.220703125 276 267.537109375 272.837890625 215 270 c 0
 187.873391082 268.534705277 126.017956511 266 98 266 c 7
 63.9852972966 266 37 274.983398438 37 305 c 0
 37 334.614257812 66.0009765625 342.954101562 112 344 c 0xa0
EndSplineSet
Validated: 33
EndChar
StartChar: degree
Encoding: 176 176 128
Width: 336
VWidth: 1828
Flags: MW
LayerCount: 2
Fore
SplineSet
192 810 m 7
 190 810 178 800 166 790 c 4
 162 786 156 780 154 774 c 5
 156 764 156 758 156 750 c 4
 156 740 160 734 170 734 c 4
 176 734 186 742 198 756 c 4
 210 770 218 780 218 786 c 4
 218 802 200 810 192 810 c 7
46 772 m 7
 46 792 58 820 68 832 c 4
 96 866 124 884 156 894 c 4
 184 900 202 904 214 904 c 4
 234 904 250 898 262 886 c 4
 288 864 300 834 300 802 c 7
 300 778 290 772 274 734 c 4
 264 708 244 682 220 658 c 4
 198 636 182 626 170 626 c 7
 144 626 122 638 106 650 c 4
 92 660 72 688 68 736 c 5
 62 738 46 756 46 772 c 7
EndSplineSet
Validated: 1
EndChar
StartChar: plusminus
Encoding: 177 177 129
Width: 606
VWidth: 1828
UnlinkRmOvrlpSave: 1
Flags: MW
LayerCount: 2
Fore
SplineSet
244 398 m 0
 248 592 246 664 246 688 c 0
 246 696 244 718 242 754 c 0
 240 774 246 788 256 798 c 0
 276 812 294 812 306 802 c 0
 316 796 320 782 328 760 c 0
 336 738 330 674 330 650 c 0
 328 598 324 544 328 480 c 0
 330 462 334 442 336 428 c 0
 338 414 340 402 342 396 c 0
 344 390 346 388 346 382 c 0
 346 372 346 358 340 348 c 0
 334 338 328 330 322 330 c 0
 306 330 288 338 272 352 c 0
 256 366 244 382 244 398 c 0
170 536 m 28
 122 538 56 542 56 578 c 4
 56 588 58 598 60 606 c 4
 66 626 82 636 106 636 c 4
 118 636 128 632 138 630 c 4
 152 626 172 624 194 624 c 4
 204 624 376 644 404 650 c 4
 434 656 468 660 506 660 c 7
 544 660 554 656 554 638 c 7
 554 628 550 620 548 600 c 4
 542 570 538 566 506 566 c 4
 496 566 484 564 474 564 c 4
 424 564 292 528 170 536 c 28
296 182 m 0
 326 188 370 188 430 188 c 0
 476 188 506 186 516 184 c 0
 526 182 538 178 548 168 c 0
 562 156 570 144 570 132 c 0
 570 122 564 112 552 102 c 0
 540 92 526 90 512 90 c 0
 506 90 500 90 498 92 c 0
 464 98 438 100 418 100 c 0
 388 100 346 98 292 88 c 0
 166 72 132 68 100 68 c 0
 88 68 78 68 74 70 c 0
 56 74 46 90 46 118 c 0
 46 130 48 142 52 152 c 0
 60 168 72 178 88 178 c 0
 102 178 118 176 134 170 c 0
 144 168 158 166 170 166 c 0
 208 166 220 170 296 182 c 0
EndSplineSet
EndChar
StartChar: uni00B2
Encoding: 178 178 130
Width: 432
VWidth: 1828
Flags: MW
LayerCount: 2
Fore
SplineSet
214 992 m 7
 246 992 290 956 304 936 c 4
 318 916 332 880 332 832 c 7
 332 766 320 758 302 718 c 4
 264 634 238 602 206 566 c 5
 206 566 252 578 346 578 c 7
 386 578 396 562 396 538 c 7
 396 516 386 506 352 506 c 7
 300 506 208 490 144 464 c 4
 132 458 106 454 88 454 c 7
 58 454 46 468 46 492 c 7
 46 506 70 528 102 566 c 4
 122 588 154 628 174 652 c 4
 204 686 218 714 228 732 c 4
 244 766 256 802 256 830 c 7
 256 850 232 910 210 910 c 4
 198 910 180 904 162 894 c 4
 142 882 130 874 126 874 c 4
 120 874 98 856 90 870 c 4
 86 878 84 882 84 892 c 4
 84 910 92 932 106 948 c 4
 128 974 174 992 214 992 c 7
EndSplineSet
Validated: 1
EndChar
StartChar: uni00B3
Encoding: 179 179 131
Width: 486
VWidth: 1828
Flags: HMW
LayerCount: 2
Fore
SplineSet
194 996 m 0
 204 1000 214 1002 224 1002 c 3
 238 1002 262 1000 294 992 c 0
 318 984 336 970 346 950 c 0
 356 932 364 914 364 898 c 3
 364 874 348 836 310 786 c 0
 298 770 278 748 262 732 c 1
 286 732 302 726 320 720 c 0
 336 714 356 704 378 688 c 0
 400 672 412 654 420 638 c 0
 430 618 432 600 432 588 c 0
 432 556 418 522 386 484 c 0
 354 446 306 428 244 428 c 0
 210 428 178 438 154 454 c 0
 146 460 144 472 144 494 c 0
 144 514 146 526 154 530 c 0
 156 532 162 532 170 532 c 0
 198 532 210 530 216 520 c 0
 220 514 228 512 240 512 c 0
 256 512 276 514 298 524 c 0
 320 534 334 544 340 554 c 0
 342 562 344 566 344 572 c 0
 344 582 340 590 334 600 c 0
 322 620 302 634 272 644 c 0
 250 652 228 652 204 652 c 0
 178 652 168 644 150 644 c 0
 126 644 108 678 108 694 c 0
 108 704 114 710 122 720 c 0
 132 734 158 748 172 758 c 0
 190 770 222 800 244 822 c 0
 266 846 278 868 278 882 c 3
 278 896 262 908 242 908 c 3
 220 908 226 916 176 890 c 0
 126 864 100 854 90 854 c 3
 62 854 46 888 46 896 c 3
 46 908 56 922 74 934 c 0
 112 962 126 968 194 996 c 0
EndSplineSet
Validated: 33
EndChar
StartChar: mu
Encoding: 181 181 415
Width: 536
VWidth: 1828
Flags: MW
LayerCount: 2
Fore
SplineSet
340 472 m 3
 340 530 334 542 388 542 c 0
 412 542 412 534 420 514 c 0
 428 494 432 454 432 394 c 0
 432 330 436 250 438 230 c 0
 444 156 444 80 464 52 c 0
 474 40 514 22 514 12 c 0
 514 -2 512 -32 506 -38 c 0
 502 -42 488 -44 468 -44 c 0
 438 -44 432 -34 422 -22 c 0
 392 10 368 46 364 106 c 1
 346 88 348 74 310 42 c 0
 256 -2 228 -24 182 -24 c 3
 164 -24 140 -16 136 -14 c 1
 136 -14 136 -68 138 -100 c 24
 138 -132 142 -160 142 -180 c 0
 142 -244 150 -260 122 -296 c 24
 106 -316 94 -302 74 -288 c 24
 56 -274 54 -256 54 -228 c 0
 54 -138 46 -24 46 86 c 0
 46 106 48 168 50 200 c 24
 52 268 54 278 56 344 c 0
 58 418 58 464 66 478 c 0
 74 492 66 500 96 500 c 0
 126 500 122 492 130 472 c 0
 138 452 146 404 144 328 c 0
 138 134 142 88 190 88 c 3
 234 88 254 96 290 140 c 0
 320 172 350 218 350 332 c 3
 350 386 340 450 340 472 c 3
EndSplineSet
Validated: 33
EndChar
StartChar: paragraph
Encoding: 182 182 132
Width: 778
VWidth: 1828
Flags: MW
LayerCount: 2
Fore
SplineSet
624 916 m 4
 626 926 630 934 634 936 c 4
 638 938 646 936 660 936 c 7
 676 936 690 928 690 906 c 4
 692 746 l 6
 692 682 696 598 700 544 c 4
 704 488 702 452 704 404 c 4
 710 266 710 252 712 228 c 4
 722 120 732 114 732 68 c 7
 732 36 722 -10 698 -10 c 7
 672 -10 638 34 638 66 c 7
 638 112 636 162 634 194 c 4
 624 326 620 380 620 518 c 7
 620 628 618 636 618 772 c 4
 618 856 618 860 624 916 c 4
368 804 m 0
 358 804 340 804 316 798 c 0
 198 768 140 714 140 640 c 0
 140 606 158 572 190 538 c 0
 210 518 250 500 310 484 c 0
 372 470 410 462 426 462 c 0
 440 462 448 464 456 468 c 1
 458 500 462 524 462 612 c 0
 462 702 456 760 458 798 c 1
 426 800 400 804 368 804 c 0
472 186 m 0
 466 214 464 240 464 272 c 0
 462 338 460 356 458 374 c 1
 442 370 428 370 414 370 c 3
 394 370 362 372 318 382 c 0
 250 396 180 420 146 446 c 0
 132 456 46 548 46 634 c 3
 46 678 60 732 88 764 c 0
 120 796 140 820 192 844 c 0
 216 854 248 876 276 886 c 0
 308 896 350 902 400 902 c 0
 446 902 450 900 464 894 c 1
 474 908 486 920 496 920 c 0
 512 920 526 896 536 848 c 0
 540 830 542 816 542 806 c 0
 542 804 542 792 540 764 c 0
 538 736 538 704 536 666 c 0
 534 628 534 594 534 566 c 0
 534 512 534 490 534 478 c 1
 546 472 558 454 558 444 c 3
 558 422 540 400 534 398 c 1
 534 388 534 364 536 348 c 0
 546 274 548 228 558 154 c 24
 560 140 566 130 568 116 c 24
 574 80 576 64 576 22 c 3
 576 -10 562 -28 550 -28 c 3
 530 -28 484 0 484 22 c 3
 484 62 484 124 472 186 c 0
EndSplineSet
Validated: 2081
EndChar
StartChar: periodcentered
Encoding: 183 183 4
Width: 192
VWidth: 1828
Flags: MW
LayerCount: 2
Fore
SplineSet
58 280 m 0
 58 306 72 318 102 318 c 0
 114 318 126 316 138 310 c 0
 154 302 162 288 162 270 c 0
 162 254 156 240 144 224 c 0
 134 208 122 200 112 200 c 0
 102 200 90 204 70 214 c 0
 50 224 42 232 42 242 c 0
 42 256 58 250 58 280 c 0
EndSplineSet
Validated: 1
EndChar
StartChar: uni00B9
Encoding: 185 185 133
Width: 422
VWidth: 1828
Flags: MW
LayerCount: 2
Fore
SplineSet
148 946 m 0
 166 970 186 980 208 980 c 3
 230 980 242 970 246 950 c 0
 250 930 252 860 252 742 c 0
 252 646 256 574 258 534 c 1
 272 536 298 536 312 536 c 3
 332 536 350 526 366 510 c 0
 382 494 390 484 390 476 c 3
 390 470 384 460 374 450 c 0
 364 440 352 438 336 438 c 3
 266 438 230 432 154 432 c 0
 122 432 98 440 82 454 c 0
 72 464 64 474 64 480 c 3
 64 486 66 488 72 498 c 0
 80 512 96 518 120 520 c 0
 146 522 164 524 170 524 c 1
 168 538 168 604 168 722 c 0
 168 764 168 794 168 804 c 1
 162 800 156 790 146 778 c 0
 136 766 132 758 130 752 c 0
 126 742 126 732 116 722 c 0
 106 712 98 708 90 708 c 0
 80 708 70 714 60 724 c 0
 50 734 42 746 42 756 c 0
 42 784 66 806 94 858 c 0
 116 898 134 928 148 946 c 0
EndSplineSet
Validated: 1
EndChar
StartChar: guillemotright
Encoding: 187 187 5
Width: 506
VWidth: 1828
Flags: MW
LayerCount: 2
Fore
SplineSet
248 426 m 0
 240 438 236 450 236 456 c 0
 236 466 260 482 270 482 c 0
 288 482 296 476 308 464 c 0
 320 452 330 438 340 420 c 0
 350 402 360 392 368 384 c 0
 380 366 392 346 414 326 c 0
 442 300 460 282 470 272 c 0
 480 262 486 254 486 246 c 0
 484 226 468 224 456 212 c 0
 432 188 416 172 384 138 c 0
 366 116 352 102 346 92 c 0
 336 74 322 64 298 64 c 3
 284 64 270 72 270 90 c 3
 270 124 308 148 338 184 c 0
 356 208 376 234 394 252 c 1
 382 260 368 264 330 310 c 0
 296 350 264 398 248 426 c 0
110 314 m 0
 60 382 46 392 46 420 c 3
 46 446 52 468 78 468 c 0
 90 468 98 456 110 442 c 0
 134 414 132 414 148 384 c 0
 168 350 168 350 202 310 c 0
 226 282 250 262 250 246 c 3
 250 228 224 208 212 198 c 0
 202 190 174 168 152 152 c 0
 130 136 114 126 106 118 c 0
 102 114 94 108 82 102 c 0
 70 96 62 96 56 96 c 3
 50 96 42 114 42 122 c 3
 42 158 52 166 108 204 c 0
 128 216 158 242 158 250 c 1
 150 260 134 282 110 314 c 0
EndSplineSet
Validated: 1
EndChar
StartChar: questiondown
Encoding: 191 191 135
Width: 504
VWidth: 1828
Flags: MW
LayerCount: 2
Fore
SplineSet
206 622 m 0
 206 654 224 672 260 672 c 0
 298 672 320 658 320 620 c 0
 320 594 298 556 278 556 c 0
 262 556 206 584 206 622 c 0
202 378 m 3
 202 402 214 450 238 450 c 3
 262 450 284 414 284 382 c 3
 284 280 262 232 246 198 c 0
 238 184 228 166 212 146 c 0
 158 86 136 40 136 -14 c 3
 136 -66 170 -86 220 -86 c 0
 250 -86 274 -80 300 -70 c 0
 354 -50 384 -4 432 -4 c 7
 454 -4 466 -12 466 -22 c 0
 466 -48 438 -78 382 -114 c 0
 370 -124 332 -140 292 -160 c 0
 272 -170 240 -172 200 -172 c 0
 130 -172 106 -154 76 -122 c 0
 58 -102 48 -80 48 -26 c 3
 48 64 72 96 114 148 c 0
 126 164 142 184 156 208 c 0
 166 224 172 234 176 238 c 0
 196 260 202 282 202 378 c 3
EndSplineSet
Validated: 1
EndChar
StartChar: Aring
Encoding: 197 197 136
Width: 566
VWidth: 1828
Flags: HMW
AnchorPoint: "ogonek" 498 58 basechar 0
AnchorPoint: "cedilla" 298 2 basechar 0
AnchorPoint: "acute" 262 1150 basechar 0
LayerCount: 2
Fore
SplineSet
296 680 m 4
 290 692 286 708 274 708 c 4
 268 708 260 702 256 696 c 4
 232 658 216 610 196 556 c 4
 194 546 194 534 190 518 c 4
 180 464 170 384 156 340 c 5
 168 342 200 344 226 344 c 4
 242 344 252 344 262 346 c 4
 304 352 312 352 344 354 c 28
 358 354 384 354 384 354 c 5
 384 354 376 378 372 394 c 28
 368 410 368 440 364 450 c 4
 360 460 360 494 354 508 c 4
 348 522 346 538 340 556 c 4
 324 610 308 652 296 680 c 4
282 972 m 4
 274 980 268 984 260 984 c 4
 244 984 222 974 206 950 c 4
 190 926 188 900 188 884 c 4
 188 878 188 878 190 876 c 4
 196 866 210 856 230 846 c 4
 250 836 266 832 278 832 c 4
 290 832 306 838 318 848 c 4
 330 858 336 874 336 886 c 4
 336 908 316 938 282 972 c 4
44 0 m 4
 18 0 14 14 14 46 c 4
 14 60 14 70 20 76 c 4
 26 82 40 142 60 254 c 4
 64 270 82 344 82 368 c 4
 82 380 106 498 116 542 c 4
 130 616 154 654 176 712 c 4
 182 726 198 746 214 760 c 5
 204 766 180 768 166 782 c 4
 146 804 118 828 112 840 c 4
 102 862 98 904 98 940 c 7
 98 956 110 986 120 1004 c 4
 142 1038 178 1070 246 1070 c 4
 326 1070 368 1018 398 954 c 4
 412 922 420 896 420 882 c 4
 420 860 402 826 382 794 c 4
 370 774 360 772 354 768 c 5
 360 758 378 714 380 712 c 4
 390 704 398 672 408 646 c 28
 412 636 420 604 422 594 c 28
 434 546 444 524 446 500 c 4
 450 456 472 332 486 258 c 4
 492 226 506 184 514 168 c 4
 522 152 546 94 546 68 c 4
 546 48 502 4 482 4 c 4
 470 4 462 42 456 58 c 4
 450 76 444 112 426 162 c 4
 410 208 392 264 386 298 c 5
 376 288 362 282 350 276 c 4
 332 268 274 262 212 262 c 4
 186 262 150 262 144 260 c 5
 138 208 100 120 100 60 c 4
 100 12 80 0 44 0 c 4
EndSplineSet
Validated: 2049
EndChar
StartChar: AE
Encoding: 198 198 137
Width: 1214
VWidth: 1828
Flags: MW
AnchorPoint: "ogonek" 1066 106 basechar 0
AnchorPoint: "cedilla" 644 50 basechar 0
AnchorPoint: "acute" 610 942 basechar 0
LayerCount: 2
Fore
SplineSet
518 800 m 0
 510 800 470 804 464 804 c 0
 458 804 454 802 448 800 c 0
 430 786 360 672 350 646 c 0
 338 596 272 528 272 464 c 1
 282 462 330 460 396 460 c 0
 442 460 466 462 474 466 c 0
 484 470 510 470 532 472 c 0
 548 474 560 472 574 472 c 1
 572 506 574 556 572 600 c 0
 570 640 568 686 566 700 c 0
 562 722 530 800 518 800 c 0
130 34 m 0
 92 34 84 62 84 104 c 0
 84 142 98 178 110 216 c 0
 128 270 136 322 158 404 c 0
 176 472 194 482 208 536 c 0
 212 570 224 588 240 624 c 0
 248 642 260 660 270 682 c 0
 302 742 314 772 364 826 c 0
 386 848 396 882 432 892 c 0
 442 896 460 900 482 900 c 0
 510 900 526 896 532 890 c 0
 542 880 614 868 656 868 c 0
 678 868 760 864 770 864 c 0
 802 866 838 868 934 868 c 0
 1070 868 1106 860 1106 842 c 3
 1106 818 1094 804 1070 800 c 0
 1046 796 1024 794 934 792 c 0
 814 792 720 786 682 784 c 2
 632 780 l 1
 644 714 l 1
 644 680 656 638 656 598 c 0
 658 552 654 494 656 484 c 1
 670 484 714 492 724 492 c 0
 776 492 802 492 854 492 c 0
 928 492 968 496 972 486 c 0
 974 476 978 470 978 468 c 0
 978 446 962 432 930 426 c 0
 898 420 860 416 810 414 c 0
 760 412 738 408 696 402 c 24
 686 400 652 396 652 396 c 1
 652 396 652 364 654 344 c 24
 664 276 668 224 678 160 c 0
 682 116 728 108 780 108 c 3
 898 108 992 136 1002 140 c 0
 1008 142 1038 148 1066 148 c 3
 1104 148 1114 146 1114 118 c 3
 1114 72 1080 62 1028 56 c 0
 1000 54 956 52 890 38 c 0
 828 24 778 18 740 18 c 0
 698 18 668 26 646 44 c 0
 616 70 604 98 598 144 c 0
 594 176 586 212 578 312 c 0
 576 340 578 368 576 386 c 1
 560 386 530 386 498 382 c 0
 458 378 416 376 398 376 c 3
 346 376 320 376 298 380 c 0
 280 384 264 384 250 386 c 1
 248 380 240 362 238 352 c 0
 218 272 200 224 192 210 c 0
 188 202 178 166 168 92 c 0
 162 56 156 34 130 34 c 0
EndSplineSet
Validated: 33
EndChar
StartChar: Ccedilla
Encoding: 199 199 138
Width: 720
VWidth: 2000
Flags: HMW
AnchorPoint: "acute" 388.4 964.7 basechar 0
AnchorPoint: "ogonek" 633 147 basechar 0
AnchorPoint: "cedilla" 386.5 -285.5 basechar 0
LayerCount: 2
Fore
SplineSet
55.900390625 314.900390625 m 4
 50.2001953125 339.599609375 40.7001953125 341.5 40.7001953125 383.299804688 c 7
 40.7001953125 427 50.2001953125 491.599609375 67.2998046875 573.299804688 c 4
 84.400390625 655 101.5 708.200195312 116.700195312 732.900390625 c 4
 168 810.799804688 221.200195312 875.400390625 278.200195312 902 c 4
 295.299804688 909.599609375 316.200195312 911.5 340.900390625 911.5 c 7
 418.799804688 911.5 536.599609375 881.099609375 565.099609375 835.5 c 4
 578.400390625 818.400390625 584.099609375 799.400390625 584.099609375 780.400390625 c 7
 584.099609375 757.599609375 572.700195312 727.200195312 540.400390625 727.200195312 c 7
 525.200195312 727.200195312 511.900390625 742.400390625 511.900390625 755.700195312 c 7
 511.900390625 795.599609375 405.5 818.400390625 356.099609375 818.400390625 c 7
 323.799804688 818.400390625 304.799804688 810.799804688 293.400390625 803.200195312 c 4
 251.599609375 772.799804688 219.299804688 731 202.200195312 698.700195312 c 4
 168 636 130 470.700195312 130 419.400390625 c 7
 130 351 152.799804688 292.099609375 187 227.5 c 4
 228.799804688 151.5 245.900390625 149.599609375 268.700195312 126.799804688 c 4
 282 113.5 354.200195312 79.2998046875 388.400390625 79.2998046875 c 4
 420.700195312 79.2998046875 445.400390625 98.2998046875 483.400390625 111.599609375 c 28
 494.799804688 115.400390625 502.400390625 115.400390625 511.900390625 121.099609375 c 28
 530.900390625 130.599609375 544.200195312 140.099609375 559.400390625 151.5 c 4
 584.099609375 176.200195312 608.799804688 191.400390625 643 191.400390625 c 7
 667.700195312 191.400390625 675.299804688 187.599609375 675.299804688 172.400390625 c 7
 675.299804688 155.299804688 614.5 109.700195312 587.900390625 88.7998046875 c 4
 557.5 64.099609375 548 58.400390625 517.599609375 41.2998046875 c 4
 508.099609375 35.599609375 483.400390625 10.900390625 473.900390625 9 c 5
 479.599609375 -29 496.700195312 -42.2998046875 510 -63.2001953125 c 4
 540.400390625 -114.5 549.900390625 -116.400390625 549.900390625 -181 c 7
 549.900390625 -247.5 451.099609375 -323.5 350.400390625 -323.5 c 4
 293.400390625 -323.5 230.700195312 -293.099609375 230.700195312 -268.400390625 c 7
 230.700195312 -251.299804688 247.799804688 -228.5 263 -228.5 c 7
 268.700195312 -228.5 276.299804688 -232.299804688 287.700195312 -236.099609375 c 4
 299.099609375 -241.799804688 314.299804688 -243.700195312 335.200195312 -243.700195312 c 4
 384.599609375 -243.700195312 420.700195312 -230.400390625 443.5 -203.799804688 c 4
 456.799804688 -186.700195312 464.400390625 -173.400390625 464.400390625 -165.799804688 c 4
 464.400390625 -148.700195312 443.5 -108.799804688 424.5 -89.7998046875 c 4
 409.299804688 -74.599609375 399.799804688 -59.400390625 394.099609375 -42.2998046875 c 4
 392.200195312 -36.599609375 388.400390625 -23.2998046875 390.299804688 -6.2001953125 c 5
 386.5 -6.2001953125 371.299804688 -8.099609375 358 -8.099609375 c 4
 304.799804688 -8.099609375 234.5 33.7001953125 185.099609375 81.2001953125 c 4
 156.599609375 109.700195312 69.2001953125 259.799804688 55.900390625 314.900390625 c 4
EndSplineSet
Validated: 1
EndChar
StartChar: Eth
Encoding: 208 208 139
Width: 772
VWidth: 2000
Flags: HMW
AnchorPoint: "acute" 354.65 947.85 basechar 0
AnchorPoint: "ogonek" 482 146.05 basechar 0
AnchorPoint: "cedilla" 341.35 45.3496 basechar 0
LayerCount: 2
Fore
SplineSet
352.75 772.75 m 0
 324.412353185 784.548164238 299.549804688 789.849609375 278.650390625 795.549804688 c 0
 271.049804688 797.450195312 234.349609375 795.549804688 221.049804688 787.950195312 c 1
 219.150390625 782.25 217.25 757.849609375 217.25 748.349609375 c 0
 217.25 736.950195312 219.450195312 705.450195312 219.450195312 659.849609375 c 0
 219.450195312 585.75 222.950195312 539.349609375 226.75 516.549804688 c 1
 250 518 279.987304688 520 308 520 c 0
 341.181640625 520 365.939847279 522.25 396.450195312 522.25 c 0
 466.75 522.25 504.75 518.450195312 510.450195312 510.849609375 c 0
 516.150390625 503.25 518.049804688 495.650390625 518.049804688 488.049804688 c 3
 518.049804688 474.75 507.475746894 470.230905874 487.650390625 463.349609375 c 0
 478 460 463.050696166 455.416655996 457.25 453.849609375 c 0
 443 450 407.242435348 445.650855742 332.950195312 440.25 c 0
 302 438 270.75 437.25 238.450195312 435.349609375 c 1
 241 414 253 325 256.549804688 296.150390625 c 0
 262.369232819 248.855329869 265.18459886 224.195705951 266.049804688 218.25 c 0
 270.75 185.950195312 280.650390625 136.549804688 286.950195312 109.950195312 c 1
 300.25 109.950195312 318.549804688 109.950195312 331.849609375 111.849609375 c 0
 350.849609375 113.75 381.25 125.150390625 423.049804688 151.75 c 0
 472.450195312 180.25 512.625033107 214.197302623 542.75 254.349609375 c 0
 577 300 616.849609375 369.928444953 616.849609375 457.650390625 c 0
 616.849609375 546.950195312 599 590 557.950195312 632.150390625 c 0
 510.608936571 680.760915421 417 746 352.75 772.75 c 0
116.950195312 857.650390625 m 0
 134.201691006 874.596752414 151.349609375 883.25 158.950195312 885.150390625 c 0
 166.549804688 887.049804688 187.450195312 888.950195312 221.650390625 888.950195312 c 0
 255.849609375 888.950195312 295.171835905 887.678977962 333.75 873.75 c 0
 466 826 563.468050341 758.38800276 639.650390625 674.25 c 0
 677 633 704.25 551.210645894 704.25 497.549804688 c 3
 704.25 382.169775695 657.158813137 264.247818334 607.349609375 199.25 c 0
 588 174 535.818367867 122.999642411 489.549804688 92.849609375 c 0
 433 56 377 26 328.049804688 16.849609375 c 0
 316.690003362 14.7260914013 307.150390625 13.0498046875 299.549804688 13.0498046875 c 0
 274.849609375 13.0498046875 254.650390625 11.849609375 238.75 18.75 c 0
 219.498135489 27.1048504261 209.65625 57.3427734375 201.650390625 108.049804688 c 0
 198.650390625 127.049804688 192.950195312 159.349609375 186.450195312 204.950195312 c 0
 179.614457611 252.906140617 172.958135679 294.482241972 168.450195312 330.349609375 c 0
 163.293450581 371.379180041 158.826171875 405.311523438 155.950195312 426.950195312 c 1
 132 426 110.185546875 421.25 93.349609375 421.25 c 0
 49.650390625 421.25 29.75 426.450195312 29.75 458.75 c 0
 29.75 472.049804688 39.5477453052 481.915182259 56.349609375 493.75 c 0
 78 509 110 508 145.650390625 510.849609375 c 257
 141.849609375 545.049804688 138 592 136.150390625 626.75 c 4
 133.625721291 674.182858282 134.25 743.650390625 132.349609375 753.150390625 c 1
 126.650390625 755.049804688 117.150390625 762.650390625 111.450195312 768.349609375 c 0
 96.25 783.549804688 92.650390625 794.66414585 92.650390625 811.849609375 c 3
 92.650390625 829.315656804 100 841 116.950195312 857.650390625 c 0
EndSplineSet
Validated: 33
EndChar
StartChar: multiply
Encoding: 215 215 140
Width: 540
VWidth: 2000
Flags: HMW
LayerCount: 2
Fore
SplineSet
184 80 m 4
 170 64 132 12 112 12 c 7
 94 12 60 34 60 56 c 7
 60 74 70 92 92 114 c 4
 114 136 128 146 136 156 c 4
 138 160 170 208 172 210 c 4
 180 220 204 244 214 254 c 5
 214 254 182 286 168 302 c 28
 106 372 18 442 18 472 c 7
 18 496 62 526 78 526 c 7
 84 526 90 524 98 516 c 4
 106 508 124 486 154 450 c 4
 192 402 226 370 252 352 c 4
 264 346 270 338 276 334 c 5
 288 346 316 384 322 392 c 4
 324 396 380 464 386 468 c 4
 398 478 402 488 428 512 c 4
 442 526 460 534 482 534 c 7
 510 534 512 520 512 490 c 7
 512 478 508 464 498 452 c 4
 488 440 464 416 428 378 c 4
 370 318 342 286 342 284 c 4
 342 282 360 260 398 218 c 4
 438 176 462 148 470 136 c 4
 476 128 498 112 516 92 c 28
 520 88 528 82 528 72 c 7
 528 40 498 22 472 22 c 7
 448 22 372 108 338 142 c 4
 318 162 310 168 306 174 c 4
 304 178 290 188 284 194 c 5
 274 182 260 164 238 142 c 4
 216 120 190 88 184 80 c 4
EndSplineSet
Validated: 1
EndChar
StartChar: Oslash
Encoding: 216 216 141
Width: 944
VWidth: 2000
Flags: HMW
AnchorPoint: "cedilla" 482.4 34.1504 basechar 0
AnchorPoint: "ogonek" 611.6 93.0498 basechar 0
AnchorPoint: "acute" 478.6 934.75 basechar 0
LayerCount: 2
Fore
SplineSet
719.900390625 492.049804688 m 0
 714.200195312 566.150390625 702.799804688 611.75 691.400390625 628.849609375 c 0
 683.799804688 640.25 678.099609375 651.650390625 676.200195312 653.549804688 c 1
 672.400390625 649.75 664.799804688 644.049804688 659.099609375 636.450195312 c 0
 653.400390625 628.849609375 636.299804688 615.549804688 611.599609375 598.450195312 c 0
 598.299804688 588.950195312 562.200195312 554.75 501.400390625 497.75 c 0
 440.599609375 440.75 410.200195312 410.349609375 410.200195312 404.650390625 c 0
 366.5 353.349609375 303.799804688 298.25 265.799804688 241.25 c 1
 269.599609375 231.75 281 214.650390625 303.799804688 191.849609375 c 0
 343.700195312 151.950195312 374.099609375 125.349609375 395 112.049804688 c 0
 415.900390625 98.75 438.700195312 89.25 463.400390625 87.349609375 c 0
 486.200195312 87.349609375 495.700195312 85.4501953125 503.299804688 85.4501953125 c 3
 535.599609375 85.4501953125 586.900390625 121.549804688 600.200195312 136.75 c 0
 630.599609375 172.849609375 619.200195312 157.650390625 659.099609375 212.75 c 0
 683.799804688 246.950195312 697.099609375 277.349609375 700.900390625 303.950195312 c 0
 702.799804688 328.650390625 708.5 347.650390625 716.099609375 360.950195312 c 0
 721.799804688 370.450195312 723.700195312 389.450195312 723.700195312 414.150390625 c 3
 723.700195312 423.650390625 721.799804688 448.349609375 719.900390625 492.049804688 c 0
406.400390625 826.450195312 m 3
 336.099609375 826.450195312 311.400390625 803.650390625 301.900390625 788.450195312 c 0
 277.200195312 750.450195312 252.5 710.549804688 248.700195312 653.549804688 c 0
 246.799804688 626.950195312 239.200195312 598.450195312 229.700195312 569.950195312 c 0
 220.200195312 545.25 216.400390625 499.650390625 216.400390625 435.049804688 c 3
 216.400390625 372.349609375 224 347.650390625 229.700195312 332.450195312 c 1
 237.299804688 336.25 246.799804688 349.549804688 265.799804688 368.549804688 c 0
 374.099609375 476.849609375 440.599609375 547.150390625 469.099609375 581.349609375 c 0
 501.400390625 613.650390625 531.799804688 642.150390625 558.400390625 664.950195312 c 0
 600.200195312 701.049804688 624.900390625 721.950195312 628.700195312 727.650390625 c 1
 626.799804688 731.450195312 619.200195312 739.049804688 615.400390625 742.849609375 c 0
 585 777.049804688 529.900390625 792.25 471 815.049804688 c 0
 448.200195312 824.549804688 427.299804688 826.450195312 406.400390625 826.450195312 c 3
294.299804688 911.950195312 m 0
 309.5 919.549804688 328.5 923.349609375 351.299804688 923.349609375 c 0
 419.700195312 923.349609375 427.299804688 906.25 493.799804688 894.849609375 c 0
 560.299804688 881.549804688 615.400390625 854.950195312 666.700195312 807.450195312 c 0
 672.400390625 801.75 689.5 786.549804688 693.299804688 780.849609375 c 1
 708.5 792.25 723.700195312 801.75 738.900390625 813.150390625 c 0
 769.299804688 835.950195312 790.200195312 860.650390625 839.599609375 860.650390625 c 3
 864.299804688 860.650390625 904.200195312 858.75 908 856.849609375 c 0
 915.599609375 853.049804688 925.099609375 834.049804688 925.099609375 822.650390625 c 0
 925.099609375 809.349609375 919.400390625 799.849609375 908 790.349609375 c 0
 896.599609375 780.849609375 881.400390625 775.150390625 868.099609375 775.150390625 c 0
 854.799804688 775.150390625 835.799804688 767.549804688 809.200195312 756.150390625 c 0
 782.599609375 744.75 756 721.950195312 746.5 712.450195312 c 1
 752.200195312 704.849609375 759.799804688 687.75 765.5 674.450195312 c 0
 778.799804688 642.150390625 784.5 632.650390625 794 602.25 c 0
 799.700195312 588.950195312 801.599609375 547.150390625 801.599609375 473.049804688 c 3
 801.599609375 364.75 788.299804688 357.150390625 784.5 326.75 c 0
 782.599609375 305.849609375 773.099609375 269.75 748.400390625 216.549804688 c 0
 723.700195312 163.349609375 699 131.049804688 680 108.25 c 0
 655.299804688 79.75 609.700195312 36.0498046875 586.900390625 24.650390625 c 0
 554.599609375 9.4501953125 514.700195312 -0.0498046875 469.099609375 -0.0498046875 c 3
 433 -0.0498046875 398.799804688 18.9501953125 368.400390625 36.0498046875 c 0
 338 53.150390625 296.200195312 77.849609375 250.599609375 119.650390625 c 0
 227.799804688 142.450195312 212.599609375 151.950195312 203.099609375 161.450195312 c 1
 197.400390625 155.75 187.900390625 144.349609375 170.799804688 125.349609375 c 0
 153.700195312 106.349609375 144.200195312 94.9501953125 144.200195312 87.349609375 c 0
 144.200195312 83.5498046875 148 75.9501953125 153.700195312 75.9501953125 c 3
 159.400390625 75.9501953125 161.299804688 70.25 161.299804688 60.75 c 3
 161.299804688 45.5498046875 155.599609375 36.0498046875 146.099609375 22.75 c 0
 136.599609375 9.4501953125 121.400390625 -1.9501953125 102.400390625 -7.650390625 c 0
 89.099609375 -13.349609375 85.2998046875 -13.349609375 81.5 -13.349609375 c 3
 77.7001953125 -13.349609375 62.5 -5.75 51.099609375 3.75 c 0
 28.2998046875 24.650390625 16.900390625 41.75 16.900390625 51.25 c 0
 16.900390625 72.150390625 45.400390625 94.9501953125 56.7998046875 108.25 c 0
 87.2001953125 151.950195312 98.599609375 176.650390625 136.599609375 214.650390625 c 0
 149.900390625 229.849609375 151.799804688 239.349609375 159.400390625 245.049804688 c 1
 159.400390625 246.950195312 155.599609375 258.349609375 153.700195312 271.650390625 c 0
 148 284.950195312 138.5 372.349609375 138.5 417.950195312 c 3
 138.5 463.549804688 146.099609375 505.349609375 146.099609375 550.950195312 c 0
 148 606.049804688 149.900390625 625.049804688 153.700195312 638.349609375 c 0
 155.599609375 644.049804688 159.400390625 664.950195312 161.299804688 708.650390625 c 0
 161.299804688 748.549804688 176.5 788.450195312 229.700195312 858.75 c 0
 256.299804688 894.849609375 282.900390625 906.25 294.299804688 911.950195312 c 0
EndSplineSet
Validated: 2049
EndChar
StartChar: Thorn
Encoding: 222 222 142
Width: 606
VWidth: 2000
Flags: HMW
AnchorPoint: "acute" 248 952.15 basechar 0
AnchorPoint: "ogonek" 115 49.6504 basechar 0
AnchorPoint: "cedilla" 109.3 45.8496 basechar 0
LayerCount: 2
Fore
SplineSet
379.700195312 607.75 m 4
 362.028257864 613.905219645 337.900390625 619.150390625 303.700195312 619.150390625 c 0
 244.799804688 619.150390625 182.900390625 614.25 146.799804688 604.75 c 1
 144.900390625 585.75 144.900390625 547.75 144.900390625 500.25 c 0
 144.900390625 441.349609375 146.799804688 351.049804688 148.700195312 333.950195312 c 1
 167.700195312 328.25 200 326.349609375 258.900390625 326.349609375 c 0
 283.599609375 326.349609375 326.321253783 338.279430314 340 343 c 0
 373 354.38838291 429.044591124 398.005129812 441.299804688 419.450195312 c 0
 450.900390625 436.25 461.5 467.849609375 461.5 481.150390625 c 3
 461.5 541.051757812 444.415039062 564.334960938 429.299804688 579.450195312 c 4
 423.599609375 587.049804688 406.400390625 598.450195312 379.700195312 607.75 c 4
504 614.25 m 0
 530.047927195 579.522405443 540.299804688 561.604900069 540.299804688 477.349609375 c 3
 540.299804688 433.999023438 528.113905606 404.534659807 502.599609375 369.450195312 c 0
 470.201171875 324.899414062 402.9513311 279.519380886 355 264 c 0
 330.900390625 256.200195312 291.243164062 243.549804688 249.400390625 243.549804688 c 0
 211.483398438 243.549804688 184.220703125 245.776367188 146.799804688 247.549804688 c 9
 146.799804688 247.549804688 147.900390625 195.018554688 147.900390625 161.75 c 27
 147.900390625 109.96484375 143.5 49.650390625 139.700195312 30.650390625 c 0
 135.900390625 11.650390625 128.299804688 0.25 118.799804688 0.25 c 0
 116.900390625 0.25 113.099609375 2.150390625 105.5 4.0498046875 c 0
 78.900390625 15.4501953125 64.650390625 127.549804688 63.7001953125 207.349609375 c 0
 62.75 327.049804688 62.75 393.549804688 63.7001953125 513.25 c 24
 64.650390625 570.25 67.5 638.650390625 67.5 661.450195312 c 0
 67.5 686.150390625 65.599609375 688.049804688 65.599609375 794.450195312 c 0
 65.599609375 864.75 69.400390625 902.75 75.099609375 908.450195312 c 0
 80.7998046875 917.950195312 92.2001953125 921.75 109.299804688 921.75 c 0
 116.900390625 921.75 124.5 919.849609375 132.099609375 914.150390625 c 0
 138.011543875 910.208425733 163.900390625 871.55078125 163.900390625 856.75 c 0
 163.900390625 854.849609375 162 843.450195312 156.299804688 820.650390625 c 0
 150.599609375 805.450195312 148.700195312 782.650390625 148.700195312 754.150390625 c 0
 148.700195312 697.150390625 148.700195312 703.549804688 148.700195312 690.25 c 1
 162.950195312 692.150390625 246.549804688 702.049804688 298.799804688 702.049804688 c 3
 319.700195312 702.049804688 377 697.709759184 409.200195312 685.150390625 c 0
 450 669.236829256 485 642.75 504 614.25 c 0
EndSplineSet
Validated: 33
EndChar
StartChar: germandbls
Encoding: 223 223 143
Width: 634
VWidth: 2000
Flags: HMW
AnchorPoint: "acute" 350.6 916.85 basechar 0
AnchorPoint: "ogonek" 487.4 26 basechar 0
AnchorPoint: "cedilla" 327.8 23.8496 basechar 0
LayerCount: 2
Fore
SplineSet
137.799804688 476.049804688 m 0
 137.799804688 447.549804688 149.200195312 118.849609375 149.200195312 58.0498046875 c 0
 149.200195312 14.349609375 141.599609375 -8.4501953125 128.299804688 -8.4501953125 c 0
 96 -8.4501953125 82.7001953125 20.0498046875 75.099609375 65.650390625 c 0
 67.5 107.450195312 63.7001953125 259.450195312 61.7998046875 381.049804688 c 0
 58 540.650390625 56.099609375 510.25 59.900390625 597.650390625 c 0
 61.7998046875 654.650390625 82.7001953125 726.849609375 126.400390625 816.150390625 c 0
 151.099609375 867.450195312 181.5 884.549804688 217.599609375 903.549804688 c 0
 227.099609375 909.25 240.400390625 911.150390625 253.700195312 911.150390625 c 0
 331.599609375 911.150390625 403.799804688 846.549804688 436.099609375 787.650390625 c 0
 447.5 770.549804688 458.900390625 730.650390625 458.900390625 675.549804688 c 0
 458.900390625 641.349609375 447.5 590.049804688 443.700195312 576.75 c 0
 436.099609375 546.349609375 411.400390625 500.75 382.900390625 477.950195312 c 1
 396.200195312 474.150390625 417.099609375 458.950195312 453.200195312 434.25 c 0
 519.700195312 388.650390625 493.099609375 411.450195312 534.900390625 369.650390625 c 0
 565.299804688 343.049804688 588.099609375 259.450195312 588.099609375 189.150390625 c 0
 588.099609375 139.75 576.700195312 84.650390625 569.099609375 69.4501953125 c 0
 563.400390625 56.150390625 542.5 21.9501953125 534.900390625 12.4501953125 c 0
 525.400390625 1.0498046875 489.299804688 -33.150390625 438 -33.150390625 c 3
 369.599609375 -33.150390625 325.900390625 -2.75 287.900390625 33.349609375 c 0
 267 52.349609375 257.5 71.349609375 257.5 88.4501953125 c 0
 257.5 109.349609375 270.799804688 120.75 297.400390625 120.75 c 0
 303.099609375 120.75 318.299804688 111.25 346.799804688 90.349609375 c 0
 371.5 71.349609375 396.200195312 58.0498046875 417.099609375 50.4501953125 c 0
 426.599609375 46.650390625 434.200195312 44.75 439.900390625 44.75 c 0
 447.5 44.75 458.900390625 52.349609375 474.099609375 67.5498046875 c 0
 493.099609375 88.4501953125 510.200195312 147.349609375 510.200195312 172.049804688 c 0
 510.200195312 206.25 502.599609375 240.450195312 493.099609375 259.450195312 c 0
 464.599609375 316.450195312 445.599609375 339.25 398.099609375 377.25 c 0
 381 394.349609375 343 405.75 280.299804688 415.25 c 0
 255.599609375 419.049804688 240.400390625 415.25 232.799804688 419.049804688 c 0
 225.200195312 422.849609375 221.400390625 447.549804688 221.400390625 451.349609375 c 0
 221.400390625 466.549804688 246.099609375 491.25 261.299804688 495.049804688 c 0
 282.200195312 500.75 324 523.549804688 346.799804688 563.450195312 c 0
 365.799804688 597.650390625 373.400390625 620.450195312 375.299804688 637.549804688 c 0
 377.200195312 656.549804688 379.099609375 677.450195312 379.099609375 696.450195312 c 0
 379.099609375 711.650390625 358.200195312 759.150390625 333.5 785.75 c 0
 316.400390625 804.75 276.5 829.450195312 249.900390625 829.450195312 c 3
 211.900390625 829.450195312 172 728.75 164.400390625 692.650390625 c 0
 162.5 683.150390625 158.700195312 662.25 149.200195312 626.150390625 c 0
 141.599609375 599.549804688 137.799804688 550.150390625 137.799804688 476.049804688 c 0
EndSplineSet
Validated: 33
EndChar
StartChar: aring
Encoding: 229 229 144
Width: 526
VWidth: 2000
Flags: HMW
AnchorPoint: "cedilla" 270.7 17.7998 basechar 0
AnchorPoint: "ogonek" 423.7 41.2002 basechar 0
AnchorPoint: "acute" 259.9 795.4 basechar 0
LayerCount: 2
Fore
SplineSet
364.299804688 122.200195312 m 0
 348.099609375 140.200195312 290.5 172.599609375 249.099609375 172.599609375 c 0
 234.700195312 172.599609375 220.299804688 170.799804688 205.900390625 165.400390625 c 0
 198.700195312 163.599609375 186.099609375 161.799804688 178.900390625 158.200195312 c 0
 169.900390625 154.599609375 159.099609375 147.400390625 151.900390625 134.799804688 c 0
 146.5 125.799804688 144.700195312 106 148.299804688 89.7998046875 c 0
 153.700195312 66.400390625 162.700195312 55.599609375 182.5 55.599609375 c 0
 195.099609375 55.599609375 209.5 57.400390625 229.299804688 61 c 0
 285.099609375 71.7998046875 353.5 98.7998046875 371.5 106 c 1
 367.900390625 116.799804688 366.099609375 118.599609375 364.299804688 122.200195312 c 0
227.5 590.200195312 m 0
 236.5 590.200195312 247.299804688 588.400390625 254.5 593.799804688 c 0
 279.700195312 613.599609375 281.5 608.200195312 306.700195312 631.599609375 c 0
 322.900390625 646 333.700195312 664 333.700195312 678.400390625 c 0
 333.700195312 685.599609375 331.900390625 694.599609375 324.700195312 703.599609375 c 0
 310.299804688 721.599609375 277.900390625 746.799804688 245.5 746.799804688 c 3
 240.099609375 746.799804688 225.700195312 743.200195312 218.5 728.799804688 c 0
 202.299804688 701.799804688 187.900390625 683.799804688 187.900390625 660.400390625 c 0
 187.900390625 647.799804688 193.299804688 631.599609375 195.099609375 626.200195312 c 0
 196.900390625 608.200195312 211.299804688 590.200195312 227.5 590.200195312 c 0
229.299804688 822.400390625 m 0
 252.700195312 822.400390625 256.299804688 820.599609375 294.099609375 808 c 0
 331.900390625 795.400390625 358.900390625 782.799804688 371.5 770.200195312 c 0
 384.099609375 757.599609375 394.900390625 743.200195312 403.900390625 723.400390625 c 0
 412.900390625 703.599609375 418.299804688 687.400390625 418.299804688 674.799804688 c 0
 418.299804688 658.599609375 411.099609375 644.200195312 398.5 631.599609375 c 0
 385.900390625 619 375.099609375 602.799804688 366.099609375 592 c 0
 357.099609375 581.200195312 342.700195312 568.599609375 322.900390625 556 c 1
 337.299804688 548.799804688 349.900390625 541.599609375 364.299804688 525.400390625 c 0
 391.299804688 494.799804688 385.900390625 500.200195312 411.099609375 467.799804688 c 0
 421.900390625 451.599609375 439.900390625 381.400390625 441.700195312 280.599609375 c 0
 443.5 181.599609375 450.700195312 125.799804688 454.299804688 115 c 0
 457.900390625 102.400390625 461.5 84.400390625 461.5 75.400390625 c 3
 461.5 61 461.5 34 456.099609375 26.7998046875 c 0
 452.5 23.2001953125 439.900390625 14.2001953125 411.099609375 14.2001953125 c 0
 402.099609375 14.2001953125 400.299804688 19.599609375 394.900390625 26.7998046875 c 0
 393.099609375 28.599609375 391.299804688 32.2001953125 389.5 37.599609375 c 1
 389.5 37.599609375 378.700195312 25 362.5 17.7998046875 c 0
 326.5 1.599609375 312.099609375 -5.599609375 285.099609375 -12.7998046875 c 0
 229.299804688 -27.2001953125 191.5 -34.400390625 169.900390625 -34.400390625 c 0
 153.700195312 -34.400390625 135.700195312 -29 114.099609375 -20 c 0
 97.900390625 -11 85.2998046875 -3.7998046875 78.099609375 3.400390625 c 0
 70.900390625 10.599609375 67.2998046875 26.7998046875 61.900390625 43 c 0
 54.7001953125 61 52.900390625 91.599609375 56.5 111.400390625 c 0
 65.5 158.200195312 85.2998046875 201.400390625 130.299804688 230.200195312 c 0
 153.700195312 244.599609375 173.5 251.799804688 191.5 251.799804688 c 0
 207.700195312 251.799804688 232.900390625 253.599609375 245.5 251.799804688 c 0
 290.5 246.400390625 317.5 241 326.5 237.400390625 c 0
 335.5 233.799804688 353.5 226.599609375 364.299804688 221.200195312 c 1
 360.700195312 235.599609375 360.700195312 242.799804688 360.700195312 271.599609375 c 0
 360.700195312 277 357.099609375 284.200195312 357.099609375 293.200195312 c 0
 353.5 340 349.900390625 363.400390625 348.099609375 386.799804688 c 0
 346.299804688 406.599609375 330.099609375 435.400390625 315.700195312 457 c 0
 303.099609375 473.200195312 288.700195312 480.400390625 270.700195312 476.799804688 c 0
 222.099609375 469.599609375 178.900390625 448 144.700195312 410.200195312 c 0
 117.700195312 383.200195312 99.7001953125 370.599609375 87.099609375 370.599609375 c 0
 70.900390625 370.599609375 63.7001953125 386.799804688 63.7001953125 419.200195312 c 0
 63.7001953125 431.799804688 70.900390625 446.200195312 87.099609375 466 c 0
 103.299804688 485.799804688 119.5 493 130.299804688 502 c 0
 139.299804688 509.200195312 155.5 520 169.900390625 530.799804688 c 1
 162.700195312 532.599609375 151.900390625 545.200195312 146.5 550.599609375 c 0
 130.299804688 568.599609375 108.700195312 595.599609375 108.700195312 662.200195312 c 0
 108.700195312 700 115.900390625 723.400390625 117.700195312 732.400390625 c 0
 119.5 741.400390625 126.700195312 752.200195312 139.299804688 768.400390625 c 0
 162.700195312 795.400390625 200.5 822.400390625 229.299804688 822.400390625 c 0
EndSplineSet
Validated: 2081
EndChar
StartChar: ae
Encoding: 230 230 145
Width: 830
VWidth: 2000
Flags: HMW
AnchorPoint: "cedilla" 408.55 24.4004 basechar 0
AnchorPoint: "ogonek" 730 104 basechar 0
AnchorPoint: "acute" 415.75 577 basechar 0
LayerCount: 2
Fore
SplineSet
336.549804688 166.599609375 m 0
 336.549804688 174.700195312 338.349609375 191.799804688 338.349609375 200.799804688 c 1
 277.150390625 200.799804688 191.650390625 197.200195312 160.150390625 177.400390625 c 0
 134.049804688 161.200195312 124.150390625 158.5 124.150390625 121.599609375 c 0
 124.150390625 96.400390625 144.849609375 80.2001953125 160.150390625 73 c 0
 163.75 71.2001953125 199.75 64.900390625 239.349609375 71.2001953125 c 0
 275.349609375 76.599609375 311.349609375 92.7998046875 316.75 101.799804688 c 0
 327.549804688 121.599609375 336.549804688 143.200195312 336.549804688 166.599609375 c 0
649.75 436.599609375 m 0
 631.75 451 610.150390625 458.200195312 583.150390625 458.200195312 c 0
 537.25 458.200195312 525.549804688 446.5 489.549804688 416.799804688 c 0
 454.450195312 387.099609375 444.549804688 364.599609375 442.75 326.799804688 c 0
 441.849609375 313.299804688 440.950195312 292.599609375 440.950195312 292.599609375 c 1
 460.75 290.799804688 482.349609375 285.400390625 503.950195312 285.400390625 c 0
 527.349609375 285.400390625 550.75 288.099609375 574.150390625 292.599609375 c 0
 593.950195312 296.200195312 620.950195312 308.799804688 631.75 316 c 0
 647.950195312 327.700195312 683.950195312 350.200195312 683.950195312 375.400390625 c 0
 683.950195312 384.400390625 668.650390625 421.299804688 649.75 436.599609375 c 0
124.150390625 427.599609375 m 0
 90.849609375 427.599609375 86.349609375 434.799804688 86.349609375 467.200195312 c 0
 86.349609375 483.400390625 97.150390625 501.400390625 118.75 517.599609375 c 0
 151.150390625 542.799804688 190.75 555.400390625 235.75 555.400390625 c 0
 259.150390625 555.400390625 281.650390625 550.900390625 302.349609375 548.200195312 c 0
 332.950195312 543.700195312 395.049804688 491.5 403.150390625 461.799804688 c 1
 451.75 501.400390625 506.650390625 535.599609375 590.349609375 535.599609375 c 0
 677.650390625 535.599609375 734.349609375 490.599609375 761.349609375 424 c 0
 768.549804688 406.900390625 773.950195312 379 773.950195312 370 c 0
 773.950195312 343 756.849609375 316.900390625 739.75 298 c 0
 705.549804688 259.299804688 680.349609375 245.799804688 662.349609375 235 c 0
 647.950195312 226 606.549804688 208.900390625 565.150390625 206.200195312 c 0
 532.75 204.400390625 500.349609375 197.200195312 440.950195312 200.799804688 c 1
 440.950195312 200.799804688 441.849609375 182.799804688 442.75 175.599609375 c 0
 450.849609375 106.299804688 521.049804688 89.2001953125 593.950195312 89.2001953125 c 3
 626.349609375 89.2001953125 665.950195312 109.900390625 718.150390625 141.400390625 c 0
 728.950195312 147.700195312 737.950195312 152.200195312 746.950195312 152.200195312 c 3
 765.849609375 152.200195312 782.049804688 136.900390625 782.049804688 114.400390625 c 0
 782.049804688 95.5 779.349609375 88.2998046875 772.150390625 82 c 0
 710.950195312 29.7998046875 644.349609375 -4.400390625 563.349609375 -4.400390625 c 0
 529.150390625 -4.400390625 494.950195312 6.400390625 473.349609375 17.2001953125 c 0
 440.950195312 33.400390625 412.150390625 55 399.549804688 67.599609375 c 1
 390.549804688 53.2001953125 365.349609375 24.400390625 349.150390625 13.599609375 c 0
 325.75 -1.7001953125 296.950195312 -13.400390625 221.349609375 -13.400390625 c 3
 167.349609375 -13.400390625 80.0498046875 3.7001953125 62.9501953125 42.400390625 c 0
 44.9501953125 83.7998046875 44.9501953125 94.599609375 44.9501953125 134.200195312 c 0
 44.9501953125 184.599609375 70.150390625 221.5 100.75 244 c 0
 125.950195312 262.900390625 192.549804688 284.5 226.75 289 c 0
 253.75 292.599609375 284.349609375 296.200195312 323.950195312 296.200195312 c 0
 329.349609375 296.200195312 334.75 298 341.950195312 298 c 1
 341.950195312 325 341.950195312 344.799804688 338.349609375 386.200195312 c 0
 335.650390625 414.099609375 312.25 457.299804688 287.950195312 463.599609375 c 0
 280.75 465.400390625 266.349609375 467.200195312 244.75 467.200195312 c 0
 214.150390625 467.200195312 190.75 460 178.150390625 445.599609375 c 0
 163.75 429.400390625 149.349609375 427.599609375 124.150390625 427.599609375 c 0
EndSplineSet
Validated: 2081
EndChar
StartChar: ccedilla
Encoding: 231 231 146
Width: 560
VWidth: 2000
Flags: HMW
AnchorPoint: "acute" 280.5 593.2 basechar 0
AnchorPoint: "ogonek" 474 110 basechar 0
AnchorPoint: "cedilla" 298.5 -231.2 basechar 0
LayerCount: 2
Fore
SplineSet
253.5 -198.799804688 m 0
 293.099609375 -191.599609375 338.099609375 -146.599609375 338.099609375 -107 c 0
 338.099609375 -89 316.5 -29.599609375 307.5 -6.2001953125 c 1
 285.900390625 -8 260.700195312 -13.400390625 231.900390625 -13.400390625 c 3
 206.700195312 -13.400390625 177.900390625 -9.7998046875 154.5 4.599609375 c 0
 113.099609375 28 78.900390625 73 71.7001953125 94.599609375 c 0
 66.2998046875 112.599609375 57.2998046875 132.400390625 51.900390625 146.799804688 c 0
 46.5 161.200195312 42.900390625 190 42.900390625 235 c 3
 42.900390625 303.400390625 57.2998046875 348.400390625 68.099609375 370 c 0
 78.900390625 393.400390625 98.7001953125 424 109.5 436.599609375 c 0
 127.5 456.400390625 149.099609375 481.599609375 168.900390625 506.799804688 c 0
 185.099609375 526.599609375 203.099609375 537.400390625 217.5 546.400390625 c 0
 233.700195312 555.400390625 257.099609375 562.599609375 293.099609375 562.599609375 c 0
 347.099609375 562.599609375 374.099609375 548.200195312 395.700195312 517.599609375 c 0
 406.5 503.200195312 411.900390625 487 411.900390625 474.400390625 c 0
 411.900390625 443.799804688 395.700195312 411.400390625 368.700195312 411.400390625 c 0
 357.900390625 411.400390625 350.700195312 416.799804688 345.299804688 429.400390625 c 0
 338.099609375 449.200195312 316.5 476.200195312 294.900390625 476.200195312 c 0
 289.5 476.200195312 276.900390625 472.599609375 264.299804688 467.200195312 c 0
 242.700195312 456.400390625 210.299804688 433 190.5 402.400390625 c 0
 163.5 359.200195312 131.099609375 296.200195312 131.099609375 244 c 3
 131.099609375 202.599609375 136.5 170.200195312 149.099609375 145 c 0
 172.5 96.400390625 188.700195312 74.7998046875 246.299804688 74.7998046875 c 3
 282.299804688 74.7998046875 303.900390625 80.2001953125 338.099609375 89.2001953125 c 0
 372.299804688 98.2001953125 433.5 128.799804688 456.900390625 148.599609375 c 0
 467.700195312 159.400390625 482.099609375 161.200195312 501.900390625 154 c 0
 518.099609375 148.599609375 527.099609375 141.400390625 527.099609375 134.200195312 c 0
 527.099609375 109 491.099609375 71.2001953125 467.700195312 60.400390625 c 0
 438.900390625 47.7998046875 420.900390625 31.599609375 395.700195312 17.2001953125 c 1
 399.299804688 6.400390625 402.900390625 -2.599609375 408.299804688 -18.7998046875 c 0
 424.5 -71 428.099609375 -85.400390625 428.099609375 -112.400390625 c 3
 428.099609375 -141.200195312 411.900390625 -173.599609375 406.5 -182.599609375 c 0
 388.5 -211.400390625 352.5 -256.400390625 307.5 -270.799804688 c 0
 284.099609375 -278 237.299804688 -290.599609375 215.700195312 -290.599609375 c 0
 185.099609375 -290.599609375 168.900390625 -254.599609375 168.900390625 -229.400390625 c 0
 168.900390625 -224 176.099609375 -211.400390625 253.5 -198.799804688 c 0
EndSplineSet
Validated: 33
EndChar
StartChar: eth
Encoding: 240 240 147
Width: 612
VWidth: 2000
UnlinkRmOvrlpSave: 1
Flags: MW
AnchorPoint: "acute" 298 942 basechar 0
AnchorPoint: "ogonek" 387 114 basechar 0
AnchorPoint: "cedilla" 308 54 basechar 0
LayerCount: 2
Fore
SplineSet
244 650 m 0
 244 632 212 608 194 608 c 0
 180 608 168 614 152 626 c 0
 136 638 138 662 150 680 c 24
 182 726 222 746 258 774 c 0
 270 784 308 808 340 832 c 24
 398 876 432 904 462 930 c 0
 490 954 520 972 552 972 c 0
 578 972 600 954 600 932 c 0
 600 920 588 908 566 896 c 0
 498 862 466 824 402 776 c 24
 362 744 332 714 298 696 c 0
 262 678 244 660 244 650 c 0
190 276 m 0
 190 252 188 204 200 170 c 0
 216 126 248 98 278 98 c 3
 300 98 334 118 364 154 c 0
 398 196 426 244 436 276 c 0
 452 330 462 418 462 440 c 0
 462 514 456 576 440 622 c 0
 418 684 400 726 350 772 c 16
 320 800 270 812 220 812 c 0
 190 812 162 808 138 800 c 0
 116 792 96 756 76 756 c 0
 54 756 34 758 28 784 c 0
 24 804 20 832 42 848 c 0
 70 868 90 878 108 886 c 0
 124 892 188 908 236 908 c 0
 260 908 290 900 322 886 c 24
 364 868 388 856 422 824 c 24
 460 788 492 740 498 716 c 0
 510 666 542 616 550 556 c 0
 558 430 558 368 518 248 c 0
 504 208 482 160 464 134 c 0
 456 122 432 92 422 80 c 0
 398 50 406 58 360 30 c 0
 338 12 304 8 276 8 c 0
 248 8 204 20 192 32 c 0
 174 48 130 92 122 112 c 0
 110 150 96 188 96 252 c 0
 96 322 104 352 112 368 c 0
 146 440 152 444 214 494 c 0
 264 534 288 546 348 546 c 3
 376 546 414 526 422 514 c 0
 428 506 440 484 440 470 c 3
 440 454 426 442 406 442 c 3
 394 442 392 444 376 450 c 0
 368 454 350 456 344 456 c 0
 306 456 246 414 228 388 c 0
 210 362 190 316 190 276 c 0
EndSplineSet
EndChar
StartChar: divide
Encoding: 247 247 148
Width: 626
VWidth: 2000
Flags: MW
LayerCount: 2
Fore
SplineSet
256 584 m 0
 266 588 276 590 288 590 c 0
 328 590 350 570 354 528 c 0
 356 514 354 504 350 500 c 0
 346 496 340 490 328 484 c 0
 310 474 296 470 284 470 c 0
 270 470 260 478 254 492 c 0
 246 508 242 526 242 544 c 0
 242 566 246 578 256 584 c 0
492 348 m 4
 502 350 526 360 556 360 c 4
 598 360 618 356 618 346 c 4
 618 304 600 276 592 272 c 4
 580 266 562 254 540 254 c 4
 520 254 498 248 474 240 c 4
 456 234 438 230 404 224 c 4
 382 220 292 208 136 202 c 5
 130 202 l 6
 100 202 72 210 50 224 c 4
 28 238 18 256 18 278 c 4
 18 292 30 302 50 306 c 4
 70 310 122 312 208 314 c 4
 396 320 464 340 492 348 c 4
292 102 m 0
 302 106 312 108 324 108 c 0
 354 108 374 98 384 78 c 0
 390 64 390 52 380 42 c 0
 356 18 360 -10 316 -10 c 0
 300 -10 264 18 264 40 c 0
 264 52 268 66 274 80 c 0
 280 94 286 100 292 102 c 0
EndSplineSet
Validated: 2049
EndChar
StartChar: oslash
Encoding: 248 248 149
Width: 582
VWidth: 2000
UnlinkRmOvrlpSave: 1
Flags: HMW
AnchorPoint: "cedilla" 309.3 35.4502 basechar 0
AnchorPoint: "ogonek" 391 60.1504 basechar 0
AnchorPoint: "acute" 301.7 554.15 basechar 0
LayerCount: 2
Fore
SplineSet
533.700195312 639.650390625 m 0
 533.700195312 648.548828125 531.958984375 654.521484375 527.564453125 658.915039062 c 0
 518.47265625 668.006835938 512.133789062 670.75 506.400390625 670.75 c 0
 496.663085938 670.75 484.404296875 664.889648438 467.19921875 654.375 c 0
 450.87890625 644.399414062 429.958984375 630.028320312 415.56640625 608.38671875 c 0
 402.258789062 588.375 382.896484375 554.92578125 358.2734375 497.026367188 c 0
 328.522460938 426.653320312 313.704101562 404.287109375 282.340820312 350.1484375 c 0
 252.09765625 295.721679688 229.796875 232.4921875 205.225585938 170.329101562 c 0
 200.2265625 157.680664062 181.00390625 109.717773438 167.745117188 64.26953125 c 1
 159.032226562 38.1318359375 148.790039062 1.8115234375 148.790039062 -13.94921875 c 0
 148.790039062 -15.1787109375 148.8515625 -16.251953125 148.9609375 -17.125 c 0
 148.97265625 -17.2099609375 148.982421875 -17.2978515625 148.987304688 -17.3896484375 c 0
 150.877929688 -43.8525390625 152.84375 -61.0078125 154.55078125 -67.8349609375 c 0
 155.961914062 -73.4814453125 160.159179688 -78.1787109375 169.026367188 -83.5537109375 c 0
 178.043945312 -87.130859375 190.044921875 -88.4130859375 191.5 -88.75 c 0
 212.217773438 -88.75 211.51171875 -67.6484375 216.081054688 -50.65625 c 0
 217.997070312 -42.60546875 228.71875 -3.0439453125 237.731445312 27.3828125 c 0
 242.658203125 45.5751953125 249.06640625 68.44921875 254.587890625 88.1591796875 c 0
 260.357421875 108.751953125 265.307617188 126.088867188 266.349609375 130.450195312 c 1
 266.349609375 131.264648438 l 1
 288.173828125 200.330078125 315.095703125 253.268554688 342.701171875 300.278320312 c 0
 374.936523438 355.170898438 385.286132812 388.510742188 414.638671875 440.696289062 c 0
 429.48828125 468.538085938 433.342773438 487.751953125 450.890625 515.047851562 c 0
 471.848632812 549.341796875 489.204101562 574.45703125 514.548828125 597.84765625 c 0
 526.834960938 608.37890625 533.700195312 622.076171875 533.700195312 639.650390625 c 0
299.432617188 83 m 0
 296.974609375 83 275.142578125 83.7431640625 247.251953125 99.4345703125 c 0
 207.872070312 121.58984375 165.3984375 152.603515625 152.869140625 177.529296875 c 0
 131.600585938 216.234375 123.799804688 253.209960938 123.799804688 288.150390625 c 0
 123.799804688 323.495117188 129.185546875 365.396484375 142.415039062 383.03515625 c 1
 159.25 394.258789062 190.536132812 409.576171875 209.422851562 419.86328125 c 0
 238.407226562 435.987304688 273.630859375 447.049804688 308.911132812 447.049804688 c 0
 339.836914062 447.049804688 371.1796875 443.42578125 391.244140625 431.092773438 c 0
 418.979492188 413.758789062 432.645507812 379.747070312 438.405273438 365.747070312 c 0
 439.330078125 363.500976562 440.072265625 361.7265625 440.491210938 360.8515625 c 0
 462.176757812 325.216796875 463.900390625 282.37109375 463.900390625 233.049804688 c 0
 463.900390625 190.352539062 453.803710938 164.107421875 428.755859375 129.426757812 c 0
 402.1953125 92.650390625 340.215820312 83 299.432617188 83 c 0
278.891601562 -1.560546875 m 0
 284.666992188 -1.560546875 290.145507812 -1.349609375 296.3046875 -1.349609375 c 0
 326.3515625 -1.349609375 363.420898438 4.224609375 405.447265625 24.763671875 c 0
 437.198242188 39.94921875 465.05078125 69.955078125 486.227539062 94.2802734375 c 0
 511.5078125 123.318359375 533.700195312 163.694335938 533.700195312 229.25 c 0
 533.700195312 304.752929688 530.737304688 342.46875 498.078125 411.4140625 c 0
 477.346679688 454.762695312 460.971679688 476.587890625 425.16796875 508.623046875 c 0
 411.822265625 520.30078125 367.35546875 532.049804688 343.130859375 532.049804688 c 0
 313.866210938 532.049804688 294.326171875 527.153320312 271.69140625 524.489257812 c 0
 259.114257812 522.594726562 245.102539062 520.470703125 237.501953125 515.659179688 c 2
 231.630859375 511.943359375 l 1
 230.405273438 519.051757812 l 2
 227.350585938 536.77734375 212.065429688 543.450195312 200.848632812 543.450195312 c 0
 189.942382812 543.450195312 169.170898438 534.131835938 155.353515625 528.60546875 c 0
 120.311523438 513.850585938 96.904296875 492.388671875 76.37890625 445.740234375 c 0
 55.7666015625 398.892578125 44.5 346.430664062 44.5 284.349609375 c 0
 44.5 258.166992188 47.7392578125 229.890625 53.884765625 201.822265625 c 0
 64.1083984375 155.125 74.5224609375 137.020507812 91.041015625 114.393554688 c 0
 100.034179688 102.075195312 124.61328125 77.15625 150.701171875 58.521484375 c 0
 188.483398438 32.0732421875 209.939453125 21.0390625 249.467773438 3.9794921875 c 0
 260.8828125 -0.8369140625 268.736328125 -1.560546875 278.891601562 -1.560546875 c 0
EndSplineSet
EndChar
StartChar: thorn
Encoding: 254 254 150
Width: 560
VWidth: 2000
Flags: HMW
AnchorPoint: "acute" 298.635 942.287 basechar 0
AnchorPoint: "ogonek" 385 175 basechar 0
AnchorPoint: "cedilla" 327.515 102.963 basechar 0
LayerCount: 2
Fore
SplineSet
202.969726562 308.732421875 m 0
 197.555664062 292.487304688 199.359375 276.243164062 192.140625 261.802734375 c 0
 184.919921875 247.362304688 177.700195312 205.84765625 177.700195312 184.1875 c 3
 177.700195312 167.943359375 174.08984375 160.72265625 174.08984375 151.697265625 c 1
 193.944335938 146.282226562 213.799804688 146.282226562 231.849609375 146.282226562 c 0
 266.14453125 146.282226562 307.66015625 171.552734375 358.200195312 223.897460938 c 0
 392.494140625 261.802734375 406.934570312 283.462890625 410.544921875 292.487304688 c 0
 414.155273438 303.318359375 419.569335938 319.5625 419.569335938 339.41796875 c 0
 419.569335938 355.662109375 417.765625 371.907226562 412.349609375 389.95703125 c 0
 406.934570312 408.006835938 399.71484375 420.642578125 392.494140625 426.057617188 c 0
 372.640625 442.302734375 349.174804688 451.328125 318.490234375 451.328125 c 0
 289.609375 451.328125 262.53515625 417.032226562 248.094726562 389.95703125 c 0
 235.459960938 366.493164062 206.580078125 323.171875 202.969726562 308.732421875 c 0
150.625 861.0625 m 0
 150.625 852.037109375 147.015625 821.352539062 145.209960938 796.08203125 c 24
 145.209960938 778.032226562 145.209960938 767.203125 145.209960938 749.15234375 c 24
 143.405273438 630.022460938 148.819335938 503.671875 148.819335938 478.40234375 c 0
 148.819335938 460.352539062 145.209960938 408.006835938 145.209960938 366.493164062 c 1
 154.234375 384.54296875 157.844726562 408.006835938 165.065429688 422.447265625 c 0
 184.919921875 463.962890625 237.265625 512.697265625 258.924804688 525.33203125 c 0
 273.365234375 530.747070312 305.85546875 545.1875 332.930664062 545.1875 c 0
 414.155273438 545.1875 446.64453125 512.697265625 477.330078125 462.157226562 c 0
 497.184570312 429.66796875 506.209960938 388.15234375 506.209960938 350.247070312 c 0
 506.209960938 326.782226562 500.794921875 287.072265625 493.575195312 267.217773438 c 0
 484.549804688 243.752929688 471.915039062 223.897460938 468.305664062 214.872070312 c 0
 464.694335938 204.04296875 437.619140625 169.747070312 430.400390625 162.52734375 c 0
 412.349609375 140.868164062 367.224609375 104.767578125 350.98046875 92.1318359375 c 0
 322.099609375 68.66796875 266.14453125 52.421875 217.41015625 52.421875 c 0
 208.384765625 52.421875 183.115234375 54.2275390625 170.48046875 56.0322265625 c 1
 170.48046875 45.203125 172.28515625 32.568359375 172.28515625 16.322265625 c 0
 172.28515625 7.296875 172.28515625 1.8818359375 174.08984375 -3.5322265625 c 0
 177.700195312 -34.2177734375 179.505859375 -171.397460938 181.309570312 -200.27734375 c 0
 183.115234375 -209.302734375 183.115234375 -221.9375 183.115234375 -234.572265625 c 3
 183.115234375 -256.232421875 156.040039062 -304.967773438 141.599609375 -304.967773438 c 3
 107.305664062 -304.967773438 94.669921875 -256.232421875 89.255859375 -212.912109375 c 0
 87.4501953125 -202.08203125 87.4501953125 -171.397460938 80.23046875 -142.517578125 c 0
 74.8154296875 -122.662109375 71.205078125 -64.90234375 67.5947265625 -16.16796875 c 24
 65.7900390625 16.322265625 67.5947265625 37.982421875 65.7900390625 70.47265625 c 24
 62.1806640625 131.842773438 65.7900390625 137.256835938 65.7900390625 225.703125 c 0
 65.7900390625 373.712890625 63.984375 389.95703125 69.400390625 496.453125 c 24
 71.205078125 546.993164062 69.400390625 577.677734375 69.400390625 628.217773438 c 24
 69.400390625 666.122070312 67.5947265625 689.587890625 67.5947265625 727.493164062 c 24
 67.5947265625 752.762695312 65.7900390625 765.397460938 67.5947265625 790.66796875 c 24
 69.400390625 830.377929688 71.205078125 882.72265625 78.4248046875 891.747070312 c 0
 83.83984375 897.162109375 91.0595703125 898.967773438 101.890625 898.967773438 c 0
 134.380859375 898.967773438 150.625 891.747070312 150.625 861.0625 c 0
EndSplineSet
Validated: 33
EndChar
StartChar: Aogonek
Encoding: 260 260 466
Width: 838
VWidth: 2000
UnlinkRmOvrlpSave: 1
Flags: HMW
AnchorPoint: "ogonek" 709.4 -256 basechar 0
AnchorPoint: "cedilla" 428.2 -257.9 basechar 0
AnchorPoint: "acute" 435.8 952.4 basechar 0
LayerCount: 2
Fore
SplineSet
679 380.5 m 0
 688.5 350.099609375 698 319.700195312 707.5 289.299804688 c 0
 724.599609375 226.599609375 756.900390625 125.900390625 766.400390625 101.200195312 c 0
 769.25 93.599609375 777.799804688 87.900390625 779.700195312 80.2998046875 c 0
 812 6.2001953125 719.849609375 7.150390625 684.700195312 -28 c 0
 661.900390625 -50.7998046875 644.799804688 -83.099609375 644.799804688 -115.400390625 c 3
 644.799804688 -128.700195312 644.799804688 -142 650.5 -153.400390625 c 0
 663.799804688 -180 680.900390625 -200.900390625 707.5 -214.200195312 c 0
 718.900390625 -219.900390625 730.299804688 -219.900390625 745.5 -216.099609375 c 0
 753.099609375 -214.200195312 768.299804688 -200.900390625 781.599609375 -200.900390625 c 3
 793 -200.900390625 813.900390625 -211.349609375 813.900390625 -231.299804688 c 3
 813.900390625 -265.5 761.650390625 -294 720.799804688 -294 c 3
 701.799804688 -294 669.5 -294 652.400390625 -284.5 c 0
 631.5 -272.150390625 608.700195312 -257.900390625 595.400390625 -240.799804688 c 0
 571.650390625 -209.450195312 553.599609375 -171.450195312 553.599609375 -113.5 c 3
 553.599609375 -63.150390625 575.450195312 -16.599609375 603 11.900390625 c 0
 623.900390625 33.75 658.099609375 65.099609375 686.599609375 76.5 c 1
 651.450195312 181.950195312 621.049804688 283.599609375 589.700195312 391.900390625 c 0
 573.549804688 451.75 551.700195312 502.099609375 532.700195312 559.099609375 c 0
 514.650390625 614.200195312 503.25 647.450195312 487.099609375 705.400390625 c 0
 480.450195312 730.099609375 452.900390625 823.200195312 443.400390625 823.200195312 c 3
 430.099609375 823.200195312 375 737.700195312 361.700195312 714.900390625 c 0
 354.099609375 703.5 345.549804688 693.049804688 338.900390625 680.700195312 c 0
 264.799804688 537.25 229.650390625 385.25 183.099609375 200 c 0
 174.549804688 162.950195312 170.75 125.900390625 164.099609375 87.900390625 c 0
 160.299804688 67 156.5 46.099609375 152.700195312 25.2001953125 c 0
 149.849609375 -6.150390625 125.150390625 -32.75 93.7998046875 -39.400390625 c 0
 88.099609375 -39.400390625 82.400390625 -35.599609375 76.7001953125 -33.7001953125 c 0
 71 -31.7998046875 63.400390625 -31.7998046875 59.599609375 -28 c 0
 53.900390625 -22.2998046875 50.099609375 -10.900390625 50.099609375 -3.2998046875 c 0
 50.099609375 2.400390625 53.900390625 6.2001953125 55.7998046875 11.900390625 c 0
 57.7001953125 19.5 59.599609375 27.099609375 61.5 34.7001953125 c 0
 71 84.099609375 78.599609375 132.549804688 88.099609375 179.099609375 c 0
 101.400390625 257.950195312 125.150390625 340.599609375 147 414.700195312 c 0
 176.450195312 513.5 209.700195312 594.25 247.700195312 673.099609375 c 0
 273.349609375 726.299804688 299 777.599609375 331.299804688 825.099609375 c 0
 359.799804688 866.900390625 382.599609375 922 451 922 c 3
 514.650390625 922 521.299804688 854.549804688 544.099609375 802.299804688 c 0
 549.799804688 787.099609375 555.5 770 561.200195312 754.799804688 c 0
 568.799804688 730.099609375 576.400390625 705.400390625 584 680.700195312 c 0
 596.349609375 644.599609375 606.799804688 611.349609375 618.200195312 574.299804688 c 0
 638.150390625 505.900390625 657.150390625 446.049804688 679 380.5 c 0
424.400390625 342.5 m 0
 528.900390625 342.5 599.200195312 359.599609375 703.700195312 359.599609375 c 0
 720.799804688 359.599609375 739.799804688 367.200195312 753.099609375 357.700195312 c 0
 764.5 350.099609375 772.099609375 317.799804688 768.299804688 304.5 c 0
 764.5 291.200195312 747.400390625 288.349609375 734.099609375 283.599609375 c 0
 706.549804688 274.099609375 595.400390625 264.599609375 534.599609375 264.599609375 c 0
 449.099609375 264.599609375 361.700195312 260.799804688 276.200195312 260.799804688 c 0
 259.099609375 260.799804688 238.200195312 251.299804688 226.799804688 262.700195312 c 0
 215.400390625 274.099609375 215.400390625 295 223 308.299804688 c 0
 232.5 323.5 245.799804688 340.599609375 285.700195312 344.400390625 c 0
 304.700195312 346.299804688 323.700195312 340.599609375 344.599609375 340.599609375 c 0
 371.200195312 340.599609375 397.799804688 342.5 424.400390625 342.5 c 0
EndSplineSet
EndChar
StartChar: aogonek
Encoding: 261 261 470
Width: 528
VWidth: 2000
UnlinkRmOvrlpSave: 1
Flags: HMW
AnchorPoint: "cedilla" 298 -282 basechar 0
AnchorPoint: "ogonek" 470 -276 basechar 0
AnchorPoint: "acute" 287 599 basechar 0
LayerCount: 2
Fore
SplineSet
396 154 m 0
 390.356259092 199.149927262 375.270037728 308.925766088 363 385 c 0
 355 427 338 461 287 461 c 3
 262.916810842 461 241 457 221 447 c 0
 189 431 181 375 145 375 c 3
 131 375 105 387 105 415 c 3
 105 439 125 461 137 477 c 0
 157 502 183 530 219 537 c 0
 307 562 382 542 413 481 c 0
 445 423 459 328 467 247 c 0
 476 177 474 145 486 82 c 0
 489 58 501 19 490 -4 c 0
 477 -25 456 -26 432 -12 c 0
 412 0 403 95 396 154 c 0
448 208 m 0
 458 188 474 156 456 144 c 0
 434 130 414 174 390 186 c 0
 353 204 320 216 268 206 c 0
 238 200 208 190 184 172 c 0
 160 154 132 132 128 102 c 0
 124 74 138 38 160 20 c 0
 195 -10 242 17 272 30 c 0
 296 40 318 54 340 66 c 0
 366 80 386 114 414 110 c 0
 432 108 448 88 454 70 c 0
 462 40 442 6 434 -24 c 0
 426 -57 410 -87 410 -124 c 0
 410 -157 418 -178 436 -196 c 0
 456 -216 473 -232 514 -232 c 0
 526 -230 540 -220 552 -222 c 0
 579 -227 591 -271 568 -294 c 0
 550 -312 516 -317 484 -312 c 0
 416 -302 365 -270 346 -212 c 0
 340 -193 332 -165 332 -144 c 0
 332 -93 339 -60 358 -10 c 1
 303 -57 275 -79 192 -72 c 0
 123 -65 88 -23 62 28 c 0
 50 53 39 81 48 118 c 0
 60 174 100 205 138 236 c 0
 176 266 218 285 278 292 c 0
 317 297 358 295 386 276 c 0
 412 258 434 236 448 208 c 0
EndSplineSet
EndChar
StartChar: dcroat
Encoding: 273 273 472
Width: 600
VWidth: 2000
UnlinkRmOvrlpSave: 1
Flags: HMW
AnchorPoint: "acute" 297 912 basechar 0
AnchorPoint: "ogonek" 472 20 basechar 0
AnchorPoint: "cedilla" 316 2 basechar 0
LayerCount: 2
Fore
SplineSet
342 258 m 5
 358 258 l 5
 335 183 305 87 254 36 c 4
 230 12 180 -21 132 -2 c 4
 72 16 56 106 50 170 c 4
 50 241 73 298 98 348 c 4
 119 389 150 425 186 450 c 4
 207 466 249 476 278 476 c 4
 310 476 340 464 370 452 c 4
 394 442 418 428 438 410 c 4
 452 396 470 382 470 362 c 4
 470 348 458 332 444 328 c 4
 418 322 394 354 368 362 c 4
 319 379 263 400 222 366 c 4
 173 325 136 266 136 182 c 4
 136 149 137 104 158 88 c 4
 190 67 220 123 232 142 c 4
 244 160 248 184 256 204 c 4
 273 255 292 305 300 364 c 4
 306.055580133 421.528011264 302 479.720168951 302 540 c 4
 302 626.192953693 300 641.454101562 305 712 c 4
 309.685546875 778.106445312 306 839 337 880 c 4
 348 891 365 920 387 898 c 4
 417 876 411 826 411 782 c 4
 411 706.504882812 405.444354381 718.609264802 402 648 c 4
 398 566 392 482 400 400 c 4
 404 360 414 322 422 284 c 4
 434 234 440 190 458 146 c 4
 467 119 479 99 490 76 c 4
 498 62 508 52 512 38 c 4
 514 26 516 10 508 2 c 4
 494 -14 464 -16 444 -8 c 4
 432 -4 426 10 418 22 c 4
 406 42 396 66 388 88 c 4
 382 106 376 124 370 142 c 4
 358 180 348 228 342 258 c 5
488 614 m 4
 414 609 345 600 268 600 c 4
 242 600 218 600 192 602 c 4
 180 604 164 600 154 608 c 4
 146 614 138 624 138 634 c 4
 140 652 158 664 174 672 c 4
 194 682 218 676 240 678 c 4
 256 680 272 682 288 682 c 4
 314 684 340 684 366 684 c 4
 388 684 410 686 432 686 c 4
 465 686 495 684 522 676 c 4
 541 672 566 668 560 644 c 4
 558 632 548 624 538 618 c 4
 524 610 504 616 488 614 c 4
EndSplineSet
EndChar
StartChar: Eogonek
Encoding: 280 280 468
Width: 758
VWidth: 2000
UnlinkRmOvrlpSave: 1
Flags: HMW
AnchorPoint: "acute" 381.1 925.1 basechar 0
AnchorPoint: "ogonek" 740.2 -253.85 basechar 0
AnchorPoint: "cedilla" 438.1 -243.4 basechar 0
LayerCount: 2
Fore
SplineSet
122.700195312 495.700195312 m 0
 122.700195312 542.25 124.599609375 595.450195312 124.599609375 645.799804688 c 0
 124.599609375 697.099609375 122.700195312 753.150390625 122.700195312 801.599609375 c 0
 122.700195312 826.299804688 122.700195312 870 139.799804688 889 c 0
 147.400390625 898.5 162.599609375 896.599609375 175.900390625 896.599609375 c 0
 191.099609375 896.599609375 204.400390625 890.900390625 219.599609375 889 c 0
 316.5 881.400390625 415.299804688 890.900390625 512.200195312 889 c 0
 544.5 889 576.799804688 896.599609375 607.200195312 885.200195312 c 0
 618.599609375 881.400390625 633.799804688 862.400390625 635.700195312 851 c 0
 637.599609375 839.599609375 624.299804688 828.200195312 612.900390625 822.5 c 0
 590.099609375 809.200195312 561.599609375 803.5 536.900390625 799.700195312 c 0
 464.700195312 792.099609375 389.650390625 786.400390625 314.599609375 786.400390625 c 0
 278.5 786.400390625 242.400390625 790.200195312 217.700195312 794 c 1
 215.799804688 765.5 219.599609375 723.700195312 219.599609375 685.700195312 c 0
 219.599609375 633.450195312 215.799804688 589.75 215.799804688 539.400390625 c 0
 215.799804688 477.650390625 213.900390625 414.950195312 213.900390625 353.200195312 c 0
 213.900390625 287.650390625 217.700195312 223.049804688 217.700195312 155.599609375 c 0
 217.700195312 125.200195312 217.700195312 79.599609375 219.599609375 64.400390625 c 1
 349.75 75.7998046875 559.700195312 150.849609375 641.400390625 148 c 0
 658.5 147.049804688 679.400390625 148 692.700195312 136.599609375 c 0
 704.099609375 127.099609375 711.700195312 110 711.700195312 94.7998046875 c 0
 711.700195312 77.7001953125 700.299804688 62.5 696.5 47.2998046875 c 0
 682.25 -5.900390625 668 -61 673.700195312 -123.700195312 c 0
 675.599609375 -148.400390625 675.599609375 -176.900390625 690.799804688 -195.900390625 c 0
 706.950195312 -219.650390625 745.900390625 -216.799804688 778.200195312 -213 c 0
 794.349609375 -210.150390625 810.5 -199.700195312 827.599609375 -199.700195312 c 0
 835.200195312 -199.700195312 842.799804688 -199.700195312 848.5 -205.400390625 c 0
 858 -214.900390625 865.599609375 -239.599609375 861.799804688 -251 c 0
 850.400390625 -281.400390625 806.700195312 -287.099609375 776.299804688 -296.599609375 c 0
 731.650390625 -308.950195312 680.349609375 -302.299804688 649 -281.400390625 c 0
 604.349609375 -249.099609375 582.5 -176.900390625 590.099609375 -99 c 0
 590.099609375 -63.849609375 598.650390625 -33.4501953125 601.5 -0.2001953125 c 0
 603.400390625 18.7998046875 618.599609375 34 618.599609375 51.099609375 c 1
 578.700195312 47.2998046875 456.150390625 15 356.400390625 -7.7998046875 c 0
 311.75 -18.25 269 -28.7001953125 217.700195312 -32.5 c 0
 187.299804688 -36.2998046875 150.25 -19.2001953125 136 3.599609375 c 0
 125.549804688 16.900390625 120.799804688 45.400390625 120.799804688 66.2998046875 c 0
 120.799804688 127.099609375 126.5 174.599609375 126.5 244.900390625 c 24
 126.5 341.799804688 119.849609375 410.200195312 122.700195312 495.700195312 c 0
326 412.099609375 m 0
 256.650390625 399.75 194.900390625 395.950195312 117 391.200195312 c 0
 79 388.349609375 29.599609375 383.599609375 18.2001953125 417.799804688 c 0
 10.599609375 455.799804688 39.099609375 475.75 61.900390625 480.5 c 0
 96.099609375 486.200195312 130.299804688 486.200195312 164.5 490 c 0
 217.700195312 496.650390625 272.799804688 508.049804688 329.799804688 512.799804688 c 0
 346.900390625 514.700195312 365.900390625 514.700195312 383 516.599609375 c 0
 423.849609375 520.400390625 464.700195312 529.900390625 510.299804688 529.900390625 c 0
 527.400390625 529.900390625 555.900390625 522.299804688 569.200195312 520.400390625 c 0
 580.599609375 520.400390625 597.700195312 509 599.599609375 499.5 c 0
 604.349609375 471 525.5 447.25 498.900390625 442.5 c 0
 476.099609375 436.799804688 451.400390625 433 428.599609375 429.200195312 c 0
 394.400390625 423.5 360.200195312 417.799804688 326 412.099609375 c 0
EndSplineSet
EndChar
StartChar: eogonek
Encoding: 281 281 469
Width: 518
VWidth: 2000
Flags: HMW
AnchorPoint: "acute" 254.175 598.125 basechar 0
AnchorPoint: "ogonek" 485.975 -143.275 basechar 0
AnchorPoint: "cedilla" 275.075 -152.775 basechar 0
LayerCount: 2
Fore
SplineSet
242.775390625 548.724609375 m 0
 269.375 559.174804688 302.625 568.674804688 328.275390625 568.674804688 c 0
 377.674804688 568.674804688 425.174804688 549.674804688 447.974609375 512.625 c 0
 459.375 494.575195312 465.075195312 453.724609375 465.075195312 432.825195312 c 3
 465.075195312 368.224609375 421.375 340.674804688 390.974609375 320.724609375 c 0
 309.275390625 266.575195312 237.075195312 232.375 119.275390625 216.224609375 c 1
 118.6015625 139.209960938 162 27.4365234375 267.474609375 42.9248046875 c 0
 313.999023438 49.7568359375 366.275390625 77.125 398.575195312 109.424804688 c 0
 409.974609375 120.825195312 427.075195312 126.525390625 442.275390625 126.525390625 c 0
 460.325195312 126.525390625 463.174804688 63.8251953125 463.174804688 44.8251953125 c 0
 463.174804688 31.525390625 459.375 18.224609375 459.375 4.9248046875 c 0
 459.375 -72.974609375 503.075195312 -129.025390625 584.775390625 -101.474609375 c 0
 596.174804688 -97.6748046875 601.875 -82.474609375 613.275390625 -80.5751953125 c 0
 639.875 -74.875 648.424804688 -109.075195312 637.974609375 -133.775390625 c 0
 614.224609375 -191.724609375 530.625 -203.125 463.174804688 -173.674804688 c 0
 439.424804688 -163.224609375 422.325195312 -137.575195312 408.075195312 -116.674804688 c 0
 400.474609375 -105.275390625 392.875 -93.875 389.075195312 -80.5751953125 c 0
 381.474609375 -55.875 383.375 -29.275390625 385.275390625 -4.5751953125 c 1
 364.375 -21.6748046875 328.275390625 -28.3251953125 297.875 -36.875 c 0
 224.724609375 -58.724609375 156.325195312 -27.375 113.575195312 6.8251953125 c 0
 63.224609375 46.724609375 36.025390625 121.575195312 36.025390625 208.025390625 c 0
 36.025390625 333.701171875 76.1982421875 409 124.974609375 461.325195312 c 0
 155.219726562 493.770507812 202.875 532.575195312 242.775390625 548.724609375 c 0
332.075195312 482.224609375 m 3
 284.575195312 482.224609375 235.174804688 444.224609375 208.575195312 417.625 c 0
 189.575195312 398.625 170.575195312 380.575195312 155.375 356.825195312 c 0
 145.875 341.625 136.375 320.724609375 134.474609375 305.525390625 c 1
 180.075195312 310.275390625 219.025390625 325.474609375 256.075195312 339.724609375 c 0
 283.625 351.125 309.275390625 370.125 337.775390625 389.125 c 0
 354.875 400.525390625 375.775390625 417.625 375.775390625 432.825195312 c 3
 375.775390625 458.474609375 355.825195312 482.224609375 332.075195312 482.224609375 c 3
EndSplineSet
Validated: 33
EndChar
StartChar: uni0122
Encoding: 290 290 467
Width: 728
VWidth: 2000
Flags: HMW
AnchorPoint: "cedilla" 366 -423 basechar 0
AnchorPoint: "ogonek" 646 49 basechar 0
AnchorPoint: "acute" 376 957 basechar 0
LayerCount: 2
Fore
SplineSet
402 -50 m 0
 420 -58 430 -78 438 -94 c 0
 448 -116 452 -140 452 -164 c 0
 452 -182 450 -198 446 -216 c 0
 442 -230 438 -244 432 -258 c 0
 426 -274 418 -288 410 -302 c 0
 402 -318 390 -334 380 -348 c 0
 366 -366 354 -382 334 -398 c 0
 322 -408 308 -420 292 -420 c 0
 284 -420 274 -420 270 -412 c 0
 254 -378 276 -354 304 -306 c 0
 316 -284 330 -264 340 -242 c 0
 348 -222 360 -202 362 -182 c 0
 364 -168 360 -154 358 -140 c 0
 356 -122 346 -104 350 -86 c 0
 354 -72 362 -58 374 -52 c 0
 382 -48 394 -46 402 -50 c 0
668 286 m 0
 668 209 680 134 680 56 c 0
 680 48 684 38 678 32 c 0
 668 18 646 4 630 12 c 0
 600 26 592 64 588 176 c 0
 586 224 588 270 588 302 c 1
 543 240 506 170 456 110 c 0
 405 48 351 -15 248 -22 c 0
 151 -31 99 48 72 116 c 0
 57 156 50 213 50 262 c 0
 50 314 51 375 58 422 c 0
 80 541 108 658 158 748 c 0
 174 774 188 804 208 826 c 0
 249 874 309 920 392 920 c 0
 454 920 501 891 538 860 c 0
 556 846 574 830 584 810 c 0
 596 788 612 762 604 740 c 0
 600 728 584 716 572 716 c 0
 550 716 536 744 520 762 c 0
 494 795 444 832 390 832 c 0
 324 832 277 771 250 726 c 0
 234 702 222 672 210 646 c 0
 174 562 140 459 140 344 c 0
 136 289 139 253 144 206 c 0
 148 164 163 124 180 106 c 0
 195 89 218 72 240 72 c 0
 276 72 302 98 330 120 c 0
 344 132 364 156 376 170 c 0
 430 235 452 264 502 336 c 0
 532 379 553 424 582 462 c 0
 594 478 602 506 622 508 c 0
 638 510 650 492 658 478 c 0
 676 444 668 404 670 366 c 0
 672 338 668 314 668 286 c 0
EndSplineSet
Validated: 33
EndChar
StartChar: Hbar
Encoding: 294 294 473
Width: 772
VWidth: 2000
UnlinkRmOvrlpSave: 1
Flags: HMW
AnchorPoint: "acute" 355.35 977.8 basechar 0
AnchorPoint: "ogonek" 644.15 81 basechar 0
AnchorPoint: "cedilla" 387.65 48.7002 basechar 0
LayerCount: 2
Fore
SplineSet
102.650390625 704.200195312 m 0
 102.650390625 749.799804688 95.0498046875 796.349609375 95.0498046875 842.900390625 c 0
 95.0498046875 863.799804688 83.650390625 892.299804688 98.849609375 907.5 c 0
 100.75 909.400390625 106.450195312 907.5 110.25 907.5 c 0
 136.849609375 907.5 162.5 898 174.849609375 880.900390625 c 0
 193.849609375 852.400390625 188.150390625 812.5 190.049804688 778.299804688 c 0
 193.849609375 729.849609375 188.150390625 670.950195312 188.150390625 618.700195312 c 0
 188.150390625 543.650390625 184.349609375 482.849609375 184.349609375 411.599609375 c 0
 184.349609375 371.700195312 191.950195312 330.849609375 191.950195312 290 c 0
 191.950195312 258.650390625 190.049804688 228.25 190.049804688 198.799804688 c 0
 190.049804688 168.400390625 191.950195312 138 193.849609375 107.599609375 c 0
 195.75 77.2001953125 210.950195312 46.7998046875 203.349609375 16.400390625 c 0
 199.549804688 1.2001953125 190.049804688 -21.599609375 174.849609375 -23.5 c 0
 155.849609375 -25.400390625 140.650390625 -4.5 131.150390625 12.599609375 c 0
 104.549804688 60.099609375 112.150390625 120.900390625 108.349609375 174.099609375 c 0
 100.75 271 104.549804688 367.900390625 104.549804688 464.799804688 c 0
 104.549804688 481.900390625 104.549804688 500.900390625 104.549804688 518 c 0
 104.549804688 537 106.450195312 557.900390625 106.450195312 576.900390625 c 0
 106.450195312 592.099609375 106.450195312 605.400390625 106.450195312 620.599609375 c 0
 106.450195312 635.799804688 102.650390625 651 102.650390625 666.200195312 c 0
 102.650390625 677.599609375 102.650390625 692.799804688 102.650390625 704.200195312 c 0
475.049804688 660.5 m 0
 525.400390625 664.299804688 574.799804688 665.25 623.25 670 c 0
 649.849609375 670 719.200195312 671.900390625 733.450195312 660.5 c 0
 762.900390625 641.5 746.75 593.049804688 722.049804688 580.700195312 c 0
 710.650390625 574.049804688 696.400390625 578.799804688 682.150390625 578.799804688 c 0
 659.349609375 580.700195312 628.950195312 580.700195312 606.150390625 580.700195312 c 0
 549.150390625 580.700195312 518.75 575 463.650390625 571.200195312 c 0
 448.450195312 570.25 421.849609375 569.299804688 406.650390625 567.400390625 c 0
 365.799804688 561.700195312 339.200195312 559.799804688 302.150390625 556 c 0
 248.950195312 550.299804688 212.849609375 544.599609375 165.349609375 544.599609375 c 0
 152.049804688 544.599609375 138.75 542.700195312 125.450195312 542.700195312 c 0
 100.75 542.700195312 69.400390625 549.349609375 53.25 561.700195312 c 0
 37.099609375 572.150390625 2.900390625 600.650390625 28.5498046875 626.299804688 c 0
 38.0498046875 635.799804688 57.0498046875 632 70.349609375 632 c 0
 131.150390625 632 188.150390625 632 248.950195312 637.700195312 c 0
 325.900390625 644.349609375 394.299804688 654.799804688 475.049804688 660.5 c 0
596.650390625 432.5 m 0
 606.150390625 374.549804688 542.5 379.299804688 503.549804688 366 c 0
 490.25 362.200195312 478.849609375 356.5 465.549804688 352.700195312 c 0
 435.150390625 344.150390625 400 335.599609375 370.549804688 331.799804688 c 0
 312.599609375 323.25 260.349609375 320.400390625 203.349609375 309 c 0
 190.049804688 306.150390625 172.950195312 303.299804688 163.450195312 310.900390625 c 0
 137.799804688 330.849609375 141.599609375 373.599609375 163.450195312 390.700195312 c 0
 174.849609375 398.299804688 191.950195312 400.200195312 205.25 402.099609375 c 0
 248.950195312 406.849609375 290.75 409.700195312 340.150390625 417.299804688 c 0
 397.150390625 425.849609375 443.700195312 438.200195312 495.950195312 451.5 c 0
 532.049804688 460.049804688 588.099609375 484.75 596.650390625 432.5 c 0
513.049804688 829.599609375 m 3
 513.049804688 847.650390625 510.200195312 899.900390625 532.049804688 899.900390625 c 3
 561.5 899.900390625 592.849609375 869.5 604.25 816.299804688 c 0
 609 794.450195312 611.849609375 782.099609375 615.650390625 759.299804688 c 24
 619.450195312 723.200195312 619.450195312 698.5 623.25 668.099609375 c 0
 627.049804688 592.099609375 631.799804688 513.25 640.349609375 434.400390625 c 0
 649.849609375 344.150390625 672.650390625 168.400390625 674.549804688 155.099609375 c 0
 679.299804688 129.450195312 691.650390625 75.2998046875 668.849609375 52.5 c 1
 628 27.7998046875 603.299804688 72.4501953125 590.950195312 101.900390625 c 0
 583.349609375 120.900390625 585.25 141.799804688 583.349609375 162.700195312 c 0
 573.849609375 245.349609375 568.150390625 331.799804688 558.650390625 413.5 c 0
 554.849609375 468.599609375 546.299804688 518.950195312 541.549804688 573.099609375 c 0
 526.349609375 765 513.049804688 810.599609375 513.049804688 829.599609375 c 3
EndSplineSet
EndChar
StartChar: hbar
Encoding: 295 295 474
Width: 642
VWidth: 2000
UnlinkRmOvrlpSave: 1
Flags: HMW
AnchorPoint: "acute" 178.45 951.7 basechar 0
AnchorPoint: "ogonek" 480.55 26.4004 basechar 0
AnchorPoint: "cedilla" 279.15 3.59961 basechar 0
LayerCount: 2
Fore
SplineSet
212.650390625 605.900390625 m 0
 212.650390625 571.700195312 212.650390625 537.5 212.650390625 503.299804688 c 0
 210.75 431.099609375 214.549804688 315.200195312 216.450195312 263.900390625 c 1
 263.950195312 345.599609375 307.650390625 419.700195312 376.049804688 457.700195312 c 0
 469.150390625 508.049804688 537.549804688 404.5 548.950195312 339.900390625 c 0
 561.299804688 270.549804688 567 186.950195312 571.75 115.700195312 c 0
 575.549804688 75.7998046875 602.150390625 28.2998046875 577.450195312 -4 c 0
 566.049804688 -17.2998046875 540.400390625 -23.9501953125 526.150390625 -15.400390625 c 0
 490.049804688 5.5 481.5 77.7001953125 476.75 130.900390625 c 0
 471.049804688 197.400390625 486.25 309.5 442.549804688 362.700195312 c 0
 437.799804688 369.349609375 425.450195312 370.299804688 417.849609375 368.400390625 c 0
 387.450195312 358.900390625 355.150390625 309.5 334.25 284.799804688 c 0
 285.799804688 224.950195312 252.549804688 123.299804688 231.650390625 41.599609375 c 0
 227.849609375 26.400390625 233.549804688 3.599609375 220.25 -4 c 0
 205.049804688 -13.5 178.450195312 -5.900390625 165.150390625 5.5 c 0
 136.650390625 30.2001953125 138.549804688 75.7998046875 132.849609375 113.799804688 c 0
 129.049804688 134.700195312 130.950195312 157.5 129.049804688 178.400390625 c 0
 127.150390625 224 123.349609375 271.5 123.349609375 317.099609375 c 0
 121.450195312 376 125.25 434.900390625 125.25 493.799804688 c 0
 125.25 528 127.150390625 564.099609375 127.150390625 598.299804688 c 0
 129.049804688 640.099609375 129.049804688 681.900390625 130.950195312 723.700195312 c 0
 132.849609375 767.400390625 127.150390625 811.099609375 134.75 852.900390625 c 0
 138.549804688 875.700195312 136.650390625 913.700195312 159.450195312 919.400390625 c 0
 176.549804688 923.200195312 191.75 900.400390625 201.25 885.200195312 c 0
 220.25 854.799804688 216.450195312 822.5 216.450195312 786.400390625 c 0
 216.450195312 729.400390625 212.650390625 662.900390625 212.650390625 605.900390625 c 0
319.049804688 543.200195312 m 0
 277.25 543.200195312 240.200195312 546.049804688 191.75 543.200195312 c 0
 130.950195312 539.400390625 60.650390625 519.450195312 24.5498046875 560.299804688 c 0
 2.7001953125 585 16 598.299804688 39.75 607.799804688 c 0
 66.349609375 621.099609375 98.650390625 615.400390625 127.150390625 617.299804688 c 0
 194.599609375 624.900390625 265.849609375 626.799804688 339.950195312 626.799804688 c 0
 381.75 626.799804688 421.650390625 624.900390625 463.450195312 623 c 0
 489.099609375 623 525.200195312 623 533.75 602.099609375 c 0
 541.349609375 583.099609375 528.049804688 566 512.849609375 552.700195312 c 0
 501.450195312 541.299804688 482.450195312 545.099609375 467.25 543.200195312 c 0
 434.950195312 539.400390625 400.75 541.299804688 368.450195312 541.299804688 c 0
 351.349609375 541.299804688 336.150390625 543.200195312 319.049804688 543.200195312 c 0
123.349609375 391.200195312 m 1024
EndSplineSet
EndChar
StartChar: Iogonek
Encoding: 302 302 515
Width: 626
VWidth: 2000
Flags: HMW
AnchorPoint: "acute" 322.4 965.9 basechar 0
AnchorPoint: "ogonek" 514.3 -228.7 basechar 0
AnchorPoint: "cedilla" 335.7 -236.3 basechar 0
LayerCount: 2
Fore
SplineSet
79.2001953125 859.5 m 0
 117.200195312 865.200195312 231.200195312 880.400390625 269.200195312 891.799804688 c 1
 273 907 286.299804688 916.5 307.200195312 916.5 c 0
 320.5 916.5 334.400390625 912.700195312 343.900390625 901.299804688 c 1
 397.099609375 903.200195312 450.299804688 903.200195312 467.400390625 901.299804688 c 0
 513 895.599609375 520.599609375 883.799804688 503.5 851.5 c 0
 497.799804688 838.200195312 490.200195312 830.599609375 478.799804688 826.799804688 c 0
 469.763671875 823.788085938 384.500976562 823.098632812 354.900390625 819.700195312 c 1
 356.799804688 806.400390625 356.799804688 737.900390625 356.799804688 692.299804688 c 0
 356.799804688 591.599609375 349.200195312 511.799804688 349.200195312 392.099609375 c 0
 349.200195312 369.299804688 347.299804688 348.400390625 347.299804688 323.700195312 c 0
 347.299804688 295.200195312 360.599609375 211.599609375 360.599609375 169.799804688 c 0
 360.599609375 156.5 358.700195312 147 354.900390625 145.099609375 c 0
 341.599609375 137.5 326.200195312 101.400390625 305.299804688 101.400390625 c 0
 301.5 101.400390625 299.599609375 103.299804688 295.799804688 105.200195312 c 0
 276.799804688 122.299804688 278.900390625 150.799804688 278.900390625 192.599609375 c 0
 278.900390625 249.599609375 277 280 269.400390625 361.700195312 c 0
 267.5 375 269.400390625 392.099609375 269.400390625 411.099609375 c 0
 269.400390625 475.700195312 278.900390625 603 278.900390625 679 c 0
 278.900390625 745.5 277 802.099609375 275.099609375 809.700195312 c 1
 261.799804688 805.900390625 185.599609375 796.400390625 174.200195312 796.400390625 c 0
 162.799804688 796.400390625 88.7001953125 796.400390625 79.2001953125 802.099609375 c 0
 73.5 805.900390625 64 806.299804688 64 838.599609375 c 0
 64 848.099609375 69.7001953125 857.599609375 79.2001953125 859.5 c 0
514.299804688 -2.599609375 m 0
 480.099609375 -34.900390625 461.099609375 -88.099609375 461.099609375 -128 c 3
 461.099609375 -148.900390625 463 -156.5 470.599609375 -167.900390625 c 0
 478.200195312 -179.299804688 495.299804688 -188.799804688 510.5 -188.799804688 c 3
 523.799804688 -188.799804688 550.400390625 -179.299804688 569.400390625 -179.299804688 c 3
 582.700195312 -179.299804688 596 -185 596 -200.200195312 c 3
 596 -221.099609375 571.299804688 -242 552.299804688 -253.400390625 c 0
 531.400390625 -266.700195312 517.400390625 -270.5 502.200195312 -270.5 c 7
 487 -270.5 475.599609375 -266.700195312 462.299804688 -261 c 4
 441.400390625 -251.5 424.299804688 -240.099609375 409.099609375 -223 c 4
 384.400390625 -196.400390625 376.799804688 -164.099609375 376.799804688 -139.400390625 c 7
 376.799804688 -93.7998046875 397.700195312 -34.900390625 416.700195312 -4.5 c 5
 392 -4.5 362.299804688 -2.599609375 341.400390625 -2.599609375 c 0
 276.799804688 -0.7001953125 217.900390625 5 176.099609375 10.7001953125 c 0
 124.799804688 16.400390625 96.2998046875 27.900390625 96.2998046875 51.7001953125 c 3
 96.2998046875 89.7001953125 111.5 110.299804688 145.700195312 110.299804688 c 0
 160.900390625 110.299804688 174.200195312 106.5 181.799804688 98.900390625 c 0
 187.5 93.2001953125 221.227595205 87.1370202432 290.099609375 82.099609375 c 0
 402.200195312 73.900390625 449.700195312 91.599609375 535.200195312 91.599609375 c 0
 556.099609375 91.599609375 573.200195312 80.5 573.200195312 52 c 0
 573.200195312 34.900390625 537.099609375 18.2998046875 514.299804688 -2.599609375 c 0
EndSplineSet
Validated: 33
EndChar
StartChar: iogonek
Encoding: 303 303 516
Width: 242
VWidth: 2000
Flags: HMW
AnchorPoint: "acute" 120 926 basechar 0
AnchorPoint: "ogonek" 152 -322 basechar 0
AnchorPoint: "cedilla" 144 -316 basechar 0
LayerCount: 2
Fore
SplineSet
45 850 m 0
 45 862.465986468 62.544286174 879 78 879 c 0
 110.657648447 879 127.359409626 854.124689766 139.255290519 820.419693903 c 0
 142.945240873 809.349842841 153.240149481 792.471589926 164.658893758 778.424273326 c 0
 173.602887105 767.421390391 183.184171755 757.680859315 192.533425641 755.213554615 c 0
 194.906091111 754.266333145 200.146517344 747.57806191 204.339237404 737.666041666 c 0
 209.451385631 725.580398934 213 710.490418663 213 704 c 0
 213 687.24678166 183.565325565 673 162 673 c 0
 138.265568496 673 112.162276455 694.86968218 90.557212615 726.311021315 c 0
 63.7575717611 765.311905694 45 817.165989506 45 850 c 0
169.064141314 -361.157046541 m 0
 153.18315279 -361.157046541 137.387181813 -359.191954247 121.100309458 -355.120236158 c 0
 92.7335770125 -349.483383347 67.3590153933 -328.288584502 45.3614025731 -308.299783343 c 0
 31.6595363794 -296.552501951 20.1435132714 -283.071150381 12.5164390762 -267.851471265 c 0
 3.1235220033 -247.125719491 3 -224.02224115 3 -200 c 1
 4.27790368853 -193.028990587 10.8807749128 -119.240941172 24.6697377462 -81.7908210411 c 0
 36.415316299 -52.458120241 56.6463979707 -23.9468326143 72.3443890149 3.52465171297 c 0
 80.5305699935 17.8504684255 90.7697346628 30.2690065968 99.1032425373 44.8526453772 c 1
 97.1692717316 69.9942658504 93 101.727506247 93 126 c 0
 86.9927990667 304.299328276 81.0828573825 412.084841754 72.9029379706 452.984438814 c 0
 70.9525341981 462.736457676 69 476.479165066 69 490 c 0
 69 521.520781654 88.7310325827 539 114 539 c 0
 140.512840608 539 154.952344018 500.405548899 159.024995255 449.49740844 c 0
 169.0066761 349.680600132 173.001482896 263.838208053 175.000005663 191.929119437 c 0
 175.006619968 150.64987215 180.132660118 129.837570745 183.097062029 115.015561186 c 0
 187.18661246 94.5678090336 197 72.7370667689 197 50 c 0
 196.999998494 39.2659715217 193.677906854 32.5817665835 188.043827839 25.0574603098 c 0
 183.977190001 19.9710877058 179.465958584 13.9535815116 171.997622812 3.99580048188 c 0
 164.498308372 -6.00328543802 154.010902141 -19.9865324939 138.020577709 -40.973833311 c 0
 111.494318056 -77.6996907343 87 -130.563251694 87 -188 c 0
 87 -216.736801176 118.861637099 -265 172 -265 c 0
 202.236399099 -265 224.749030335 -262.951813235 262.939684961 -254.911675419 c 0
 282.298184895 -251.224342098 305.825541454 -247.167413832 325.031442026 -247.167413832 c 0
 348.363268698 -247.167413832 361 -252.636018975 361 -266 c 0
 361 -295.377867136 316.962558808 -321.041427469 264.265479362 -341.309534949 c 0
 229.315641 -354.253919527 198.91162612 -361.157046541 169.064141314 -361.157046541 c 0
EndSplineSet
Validated: 1
EndChar
StartChar: dotlessi
Encoding: 305 305 272
Width: 252
VWidth: 2000
Flags: MW
AnchorPoint: "ogonek" 152 30 basemark 0
AnchorPoint: "cedilla" 144 36 basemark 0
AnchorPoint: "acute" 122 620 basemark 0
LayerCount: 2
Fore
SplineSet
97.44921875 33.4541015625 m 0
 94.2216796875 56.578125 93.5703125 85.6162109375 92.599609375 114.400390625 c 0
 87.2001953125 274.599609375 81.7998046875 427.799804688 74.599609375 463.799804688 c 4
 72.7998046875 472.799804688 71 485.400390625 71 498 c 4
 71 528.599609375 90.7998046875 546.599609375 116 546.599609375 c 4
 144.799804688 546.599609375 157.400390625 507 161 462 c 4
 170 372 175.400390625 238.625 175.400390625 173.799804688 c 0
 175.400390625 136 182.599609375 80.2001953125 187.099609375 66.7001953125 c 0
 188.709960938 61.8701171875 197 46 197 31.599609375 c 0
 197 13.599609375 191.635742188 -2.599609375 146.599609375 -2.599609375 c 3
 117.799804688 -2.599609375 100.47265625 11.7900390625 97.44921875 33.4541015625 c 0
EndSplineSet
Validated: 1
EndChar
StartChar: IJ
Encoding: 306 306 475
Width: 590
VWidth: 2000
Flags: HMW
LayerCount: 2
Fore
SplineSet
502.799804688 299.400390625 m 0
 495.599609375 251.700195312 494.245161186 196.648799697 479.400390625 153.599609375 c 0
 470.400390625 127.5 460.562370026 106.751452534 445.200195312 87 c 0
 420 54.599609375 395.894221291 21.8647508551 358.799804688 4.2001953125 c 0
 339.900390625 -4.7998046875 323.700195312 -6.599609375 299.400390625 -6.599609375 c 0
 273.299804688 -6.599609375 263.051421666 -3.19180223366 241.799804688 4.2001953125 c 0
 221.099609375 11.400390625 200.235515 14.4795147614 184.200195312 27.599609375 c 0
 164.400390625 43.7998046875 142.542419616 63.1008138075 137.400390625 88.7998046875 c 0
 135.599609375 97.7998046875 133.798865707 112.200383139 135.599609375 121.200195312 c 0
 137.400390625 130.200195312 142.799589264 141.000359029 151.799804688 146.400390625 c 0
 179.721514655 163.153113636 206.128823429 138.871176571 223.799804688 121.200195312 c 0
 235.5 109.5 265.299804688 84 284.200195312 84 c 0
 323.799804688 84 362.148528106 108.187546709 385 139.200195312 c 0
 410.200195312 173.400390625 413.553534047 229.206231738 419 270.599609375 c 0
 428 339 435.882885352 410.069103101 438.799804688 483 c 0
 440.599609375 528 445.599609375 611 445.599609375 656 c 1
 438.400390625 643.400390625 415.390514838 607.182343308 404.200195312 587.599609375 c 0
 379 543.5 331.020907739 482.241465553 304.799804688 441.599609375 c 0
 286.799804688 413.700195312 232.476587873 366.727899074 196.799804688 358.799804688 c 0
 148.200195312 348 98.4570452986 389.094446754 81.599609375 420 c 0
 70.7998046875 439.799804688 71.5825930382 463.279752753 69 484.799804688 c 0
 63.599609375 529.799804688 61.7998046875 574.799804688 61.7998046875 619.799804688 c 0
 61.7998046875 672 65.5940125815 722.536039056 70.7998046875 774.599609375 c 0
 72.599609375 792.599609375 71.4702691367 812.663648606 76.2001953125 830.400390625 c 0
 83.400390625 857.400390625 81.7460001272 893.065003256 106.799804688 904.200195312 c 0
 123 911.400390625 132.800156253 900.600078134 147.200195312 889.799804688 c 0
 161.599609375 879 161.200195312 852.700195312 161.200195312 830.200195312 c 0
 161.200195312 787 150.016976868 750.286725166 145 711.400390625 c 0
 141.400390625 683.5 139.799804688 646.799804688 139.799804688 618 c 0
 139.799804688 590.099609375 141.592274408 552.284664116 143.599609375 526.200195312 c 0
 145.400390625 502.799804688 151.400195307 455.999609378 165.799804688 448.799804688 c 0
 192.799804688 435.299804688 231.573911377 470.423976643 251.400390625 492 c 0
 282 525.299804688 310.069288795 579.104633932 330.400390625 618 c 0
 351.099609375 657.599609375 369.79359836 696.502515899 386.599609375 745.799804688 c 0
 400.390465635 786.252701159 423 918.599609375 465 918.599609375 c 3
 502 918.599609375 512.55078125 898 520.200195312 839.400390625 c 4
 523.5625 813.643554688 526.200195312 783.599609375 526.200195312 756.599609375 c 0
 526.200195312 687.299804688 522.309466029 618.006838818 520.799804688 547.799804688 c 0
 519 464.099609375 514.57957538 377.439574059 502.799804688 299.400390625 c 0
EndSplineSet
Validated: 33
EndChar
StartChar: ij
Encoding: 307 307 476
Width: 558
VWidth: 2000
Flags: MW
LayerCount: 2
Fore
SplineSet
168 688 m 0
 119 680 55 706 50 746 c 0
 45 778 71 794 102 794 c 1
 145 787 218 756 200 702 c 0
 197 694 179 688 168 688 c 0
432 812 m 0
 465 808 498 784 498 748 c 0
 498 678 388 723 388 768 c 0
 388 788 408 802 426 810 c 0
 428 810 430 812 432 812 c 0
138 292 m 0
 138 232 150 110 202 110 c 3
 284 110 331 349 354 406 c 0
 368 442 402 564 448 564 c 0
 481 557 509 530 518 498 c 0
 524 474 512 450 512 426 c 0
 512 324 509 228 506 128 c 0
 504 78 500 19 500 -34 c 0
 500 -72 494 -121 486 -160 c 0
 466 -256 362 -354 266 -354 c 0
 196 -354 148 -340 110 -278 c 0
 93 -251 106 -194 136 -194 c 3
 164 -194 178 -234 204 -246 c 0
 290 -282 349 -237 378 -186 c 0
 424 -104 409 -30 414 102 c 4
 416 165 421 275 424 316 c 1
 388 236 336 18 198 18 c 3
 68 18 54 156 54 300 c 0
 54 334 56 366 56 400 c 0
 56 433 66 537 78 554 c 0
 93 575 136 568 154 548 c 0
 169 533 142 445 142 424 c 0
 140 380 136 336 138 292 c 0
EndSplineSet
Validated: 2081
EndChar
